<svg width="1920" height="177" viewBox="0 0 1920 177" fill="none" xmlns="http://www.w3.org/2000/svg">
<path d="M557.4 36.9V30.75H601.6V36.9H557.4ZM697.269 52.7L693.969 57.35C689.669 54.9167 686.185 52.15 683.519 49.05C680.885 45.9167 678.835 42.05 677.369 37.45H675.119V51.15L682.019 48.25L682.969 53.5C680.269 54.6 676.902 56.0333 672.869 57.8C672.302 58.0333 671.819 58.2333 671.419 58.4C671.052 58.5667 670.752 58.7 670.519 58.8L668.119 53.85C668.919 53.6167 669.402 53.3333 669.569 53C669.769 52.7 669.869 52.1333 669.869 51.3V37.3L666.619 40.55C665.952 39.55 664.985 38.25 663.719 36.65V57.5H658.569V37.95C657.202 41.15 655.652 44.1 653.919 46.8L650.619 42.25C651.819 40.45 653.119 38.1 654.519 35.2C655.919 32.2667 657.135 29.3833 658.169 26.55H653.169V21.35H658.569V12.6L663.719 12.85V21.35H668.919V26.55H663.719V31.5L664.619 30.55C665.352 31.25 666.219 32.1667 667.219 33.3C668.252 34.4333 669.135 35.4833 669.869 36.45V14.7H692.969V37.45H682.669C683.502 39.5833 684.352 41.3333 685.219 42.7C687.085 41.3667 689.335 39.65 691.969 37.55L694.919 41.3C693.285 42.6 691.002 44.3167 688.069 46.45C690.402 48.95 693.469 51.0333 697.269 52.7ZM687.719 23.65V19.4H675.119V23.65H687.719ZM687.719 28.45H675.119V32.55H687.719V28.45ZM766.138 46.1H759.688C759.288 48.6667 758.521 50.95 757.388 52.95C756.288 54.95 754.654 57 752.488 59.1L747.988 56.05C750.088 54.2167 751.638 52.5667 752.638 51.1C753.638 49.6 754.304 47.9333 754.638 46.1H748.938V40.95H755.038V40.4V35.9H748.338V30.8H752.037L751.488 24.1L751.388 22.9H749.288V18H754.588C754.021 15.8 753.588 14.2667 753.288 13.4L758.488 12.55C758.754 13.25 759.288 15.0667 760.088 18H765.688V22.9H763.838C763.504 25.6333 763.121 28.2667 762.688 30.8H766.088V35.9H760.038V40.4V40.95H766.138V46.1ZM781.288 40.85C782.721 42.8167 784.471 44.7 786.538 46.5C788.604 48.3 790.754 49.8833 792.988 51.25L789.938 56.2C786.138 53.4667 782.921 50.2833 780.288 46.65V58.05H775.388V46.8C772.788 50.5333 769.304 53.9333 764.938 57L761.788 52.25C767.088 48.9833 771.154 45.1833 773.988 40.85H766.688V26.7H775.388V22.85H766.638V17.85H775.388V12.65L780.288 12.9V17.85H790.388V22.85H780.288V26.7H789.038V40.85H781.288ZM755.688 22.9L756.488 30.8H758.287C758.821 28.1333 759.221 25.5 759.488 22.9H755.688ZM775.388 31.05H771.338V36.4H775.388V31.05ZM784.488 36.4V31.05H780.288V36.4H784.488ZM843.206 32.15C848.606 31.3167 853.89 30.0667 859.056 28.4C856.956 27.1667 855.073 25.8667 853.406 24.5C851.306 26.2 849.256 27.7 847.256 29L844.406 24.5C846.973 22.8 849.49 20.8167 851.956 18.55C854.423 16.2833 856.34 14.1833 857.706 12.25L862.756 14.85C862.823 14.75 862.356 15.3167 861.356 16.55H882.456V21.6C879.323 24.2333 875.79 26.5667 871.856 28.6C875.59 29.7 880.84 30.8167 887.606 31.95L886.456 36.8C878.19 35.5667 871.19 33.8 865.456 31.5C859.19 34 852.106 35.9333 844.206 37.3L843.206 32.15ZM865.156 26.15C869.256 24.4167 872.54 22.7 875.006 21H857.206L857.156 21.1C859.456 23.0333 862.123 24.7167 865.156 26.15ZM884.656 43.5H868.206V51.55C868.206 53.1833 868.006 54.4167 867.606 55.25C867.206 56.0833 866.556 56.6833 865.656 57.05C864.756 57.4167 863.44 57.6833 861.706 57.85L858.606 58.2L856.956 52.85L859.656 52.6C860.656 52.5 861.356 52.3833 861.756 52.25C862.156 52.0833 862.423 51.8333 862.556 51.5C862.69 51.1667 862.756 50.6 862.756 49.8V43.5H845.706V38.3H862.756V34.2L868.206 34.4V38.3H884.656V43.5ZM842.756 52.65C845.19 51.4833 847.54 50.1 849.806 48.5C852.073 46.9 854.023 45.2333 855.656 43.5L859.006 47.45C857.373 49.1833 855.456 50.8833 853.256 52.55C851.056 54.1833 848.49 55.9 845.556 57.7L842.756 52.65ZM873.006 43.85C874.54 44.5833 876.79 45.85 879.756 47.65C882.723 49.4167 885.04 50.8667 886.706 52L884.106 57.2C882.506 55.9333 880.256 54.35 877.356 52.45C874.49 50.5167 872.206 49.0667 870.506 48.1L873.006 43.85ZM963.375 59.8H957.575V11.8H963.375V59.8ZM1078.34 47.6C1078.24 49.3 1078.08 51.0167 1077.84 52.75C1077.54 54.5833 1076.99 55.8333 1076.19 56.5C1075.39 57.1667 1074.13 57.5 1072.39 57.5H1068.89C1067.33 57.5 1066.16 57.1167 1065.39 56.35C1064.66 55.5833 1064.29 54.25 1064.29 52.35V40.35H1061.74C1061.61 44.5833 1060.83 48.0833 1059.39 50.85C1057.99 53.5833 1055.84 56.2 1052.94 58.7L1049.64 54.75C1049.41 55.7167 1048.93 56.4 1048.19 56.8C1047.46 57.2333 1046.38 57.5167 1044.94 57.65L1042.94 57.85L1041.39 52.9L1043.19 52.75C1043.99 52.65 1044.51 52.4833 1044.74 52.25C1045.01 52.0167 1045.14 51.6 1045.14 51V42.9H1040.99C1040.89 45.8667 1040.54 48.4333 1039.94 50.6C1039.34 52.7667 1038.39 55.2 1037.09 57.9L1032.34 56.05C1033.41 53.7833 1034.21 51.8333 1034.74 50.2C1035.31 48.5333 1035.73 46.4 1035.99 43.8C1036.29 41.2 1036.44 37.7167 1036.44 33.35V15.35H1049.89V52.55C1049.89 53.1833 1049.88 53.6333 1049.84 53.9C1052.28 52.3 1054.01 50.5 1055.04 48.5C1056.11 46.4667 1056.71 43.75 1056.84 40.35H1052.44V22.05H1057.24C1056.31 19.8833 1054.96 17.5 1053.19 14.9L1057.64 12.4C1057.81 12.6333 1058.03 12.9833 1058.29 13.45C1058.96 14.5167 1059.61 15.5833 1060.24 16.65C1060.88 17.7167 1061.46 18.8167 1061.99 19.95L1059.14 22.05H1064.09C1065.03 20.55 1065.96 18.8667 1066.89 17C1067.86 15.1 1068.53 13.5833 1068.89 12.45L1073.49 14.65C1072.63 16.7833 1071.43 19.25 1069.89 22.05H1074.54V40.35H1069.34V50.9C1069.34 51.6333 1069.43 52.1167 1069.59 52.35C1069.76 52.5833 1070.14 52.7 1070.74 52.7H1072.04C1072.34 52.7333 1072.58 52.6167 1072.74 52.35C1072.91 52.0833 1073.06 51.5833 1073.19 50.85C1073.39 49.7833 1073.54 48.1667 1073.64 46L1078.34 47.6ZM1045.14 26.8V20.1H1041.04V26.8H1045.14ZM1057.49 35.25H1069.49V27.1H1057.49V35.25ZM1041.04 31.55V38H1045.14V31.55H1041.04ZM1138.61 23.8C1136.55 25.1667 1134.21 26.4667 1131.61 27.7L1129.01 23.1C1132.21 21.8 1135.15 20.2167 1137.81 18.35C1140.48 16.4833 1142.65 14.5 1144.31 12.4L1148.36 15C1146.8 17 1144.86 18.9667 1142.56 20.9H1158.71C1156.58 19.0333 1154.6 16.8667 1152.76 14.4L1156.66 11.7C1158.9 14.5667 1161.25 16.8667 1163.71 18.6C1166.21 20.3333 1169.25 21.8333 1172.81 23.1L1170.71 28C1168.21 27 1166 25.9167 1164.06 24.75L1163.61 28.85C1163.51 30.2167 1163.23 31.25 1162.76 31.95C1162.33 32.6167 1161.61 33.1167 1160.61 33.45C1159.65 33.75 1158.16 33.9833 1156.16 34.15L1152.61 34.45L1151.01 29.8L1154.91 29.5C1156.05 29.4 1156.85 29.3 1157.31 29.2C1157.78 29.1 1158.1 28.9167 1158.26 28.65C1158.46 28.3833 1158.6 27.9333 1158.66 27.3L1158.96 25.3H1147.46C1146.96 27.6 1145.96 29.55 1144.46 31.15C1143 32.7167 1140.73 34.1667 1137.66 35.5H1166.61V49.05H1161.21V40.05H1140.46V49.2H1134.96V36.6C1134.46 36.7667 1134.15 36.8833 1134.01 36.95L1132.66 37.4L1130.66 32.55C1133.5 31.6833 1135.66 30.9167 1137.16 30.25C1138.66 29.5833 1139.78 28.8833 1140.51 28.15C1141.25 27.3833 1141.76 26.4333 1142.06 25.3H1138.61V23.8ZM1153.61 41C1153.61 42.2333 1153.56 43.2833 1153.46 44.15C1153.23 46.65 1152.36 48.7333 1150.86 50.4C1149.4 52.0667 1147.18 53.5167 1144.21 54.75C1141.25 55.9833 1137.15 57.25 1131.91 58.55L1129.81 53.4C1134.65 52.4 1138.38 51.4167 1141.01 50.45C1143.65 49.45 1145.46 48.4333 1146.46 47.4C1147.5 46.3333 1148.06 45.1 1148.16 43.7C1148.2 43.3 1148.21 42.4167 1148.21 41.05L1153.61 41ZM1153.91 47.6C1159.51 49.2333 1165.26 51.2333 1171.16 53.6L1169.76 59.1C1164 56.4 1158.2 54.05 1152.36 52.05L1153.91 47.6ZM1268.43 54.05L1264.98 59C1260.91 55.8 1257.68 52.7 1255.28 49.7C1252.81 52.8333 1249.46 56 1245.23 59.2L1241.83 54.6L1243.23 53.6C1236.53 54.5667 1230.06 55.2833 1223.83 55.75L1223.53 50.6C1226.63 50.4 1229.71 50.15 1232.78 49.85V44.2H1225.48V39H1232.78V33.9C1229.41 34.1333 1227.15 34.3333 1225.98 34.5L1224.78 29.5C1224.95 29.3667 1225.18 29.2 1225.48 29C1225.81 28.8 1226.03 28.65 1226.13 28.55C1226.53 28.0833 1227.2 27.0667 1228.13 25.5C1229.1 23.9 1230.03 22.2667 1230.93 20.6H1224.78V15.65H1245.88V20.6H1236.53C1234.1 25.2 1232.4 28.0833 1231.43 29.25L1238.08 28.85C1237.58 27.7833 1236.85 26.4167 1235.88 24.75L1239.73 22.7C1241.33 25.2333 1242.66 27.6 1243.73 29.8C1245.26 27.4667 1246.63 24.8 1247.83 21.8C1249.03 18.8 1249.93 15.7333 1250.53 12.6L1255.43 13.55C1254.96 15.7167 1254.33 17.9667 1253.53 20.3H1266.83V25.4H1263.68C1263.18 29.6333 1262.51 33.3167 1261.68 36.45C1260.85 39.5833 1259.73 42.4333 1258.33 45C1260.86 48.1 1264.23 51.1167 1268.43 54.05ZM1251.53 25.4C1251.43 25.6667 1251.25 26.0667 1250.98 26.6C1251.68 31.8667 1253.08 36.4167 1255.18 40.25C1256.11 38.25 1256.86 36.0667 1257.43 33.7C1258 31.3 1258.46 28.5333 1258.83 25.4H1251.53ZM1244.98 52.3C1247.98 49.9333 1250.38 47.5667 1252.18 45.2C1250.15 41.8667 1248.6 37.8833 1247.53 33.25L1246.83 34.3L1244.58 31.5L1245.13 32.6L1241.13 35.35L1240.23 33.35L1237.98 33.5V39H1245.13V44.2H1237.98V49.3C1239.28 49.1667 1241.6 48.8833 1244.93 48.45V50.85L1244.98 52.3ZM1361.5 17.05V26.45H1356.45V21.1H1325.7V26.45H1320.7V17.05H1338.4L1337.35 13.85L1342.8 13C1343.53 14.9333 1344.03 16.2833 1344.3 17.05H1361.5ZM1327.6 26.85V23.2H1354.65V26.85H1327.6ZM1355.1 37.95H1327.15V28.85H1355.1V37.95ZM1350 32.4H1332.35V34.45H1350V32.4ZM1329.1 58H1323.6V40.05H1358.55V58H1353.2V56.3H1329.1V58ZM1338.45 46.45V43.9H1329.1V46.45H1338.45ZM1343.85 46.45H1353.2V43.9H1343.85V46.45ZM1329.1 50.05V52.6H1338.45V50.05H1329.1ZM1343.85 50.05V52.6H1353.2V50.05H1343.85Z" fill="white"/>
<path d="M0 95H1920" stroke="white" stroke-width="3"/>
<path d="M68.24 163.062V156.022C68.24 154.875 68.0267 154.129 67.6 153.782C67.2 153.409 66.48 153.222 65.44 153.222V149.182C66.48 149.182 67.2 149.009 67.6 148.662C68.0267 148.315 68.24 147.569 68.24 146.422V139.382C68.24 136.849 68.92 134.995 70.28 133.822C71.6667 132.622 73.7867 132.022 76.64 132.022V136.062C75.76 136.062 75.1067 136.155 74.68 136.342C74.28 136.529 74 136.849 73.84 137.302C73.68 137.755 73.6 138.449 73.6 139.382V146.422C73.6 147.862 73.2933 148.955 72.68 149.702C72.0933 150.422 71.1867 150.929 69.96 151.222C71.1867 151.515 72.0933 152.035 72.68 152.782C73.2933 153.502 73.6 154.582 73.6 156.022V163.062C73.6 164.022 73.68 164.729 73.84 165.182C74.0267 165.635 74.32 165.942 74.72 166.102C75.1467 166.289 75.7867 166.382 76.64 166.382V170.422C73.76 170.422 71.64 169.822 70.28 168.622C68.92 167.449 68.24 165.595 68.24 163.062ZM88.9938 140.422C88.5138 139.222 87.8871 137.862 87.1138 136.342C86.3404 134.795 85.6738 133.622 85.1138 132.822L88.3538 130.622C88.9938 131.422 89.7271 132.502 90.5538 133.862C91.3804 135.222 92.0338 136.449 92.5138 137.542L88.9938 140.422ZM109.554 136.022C106.807 136.395 104.714 136.635 103.274 136.742L103.154 132.822C105.127 132.689 107.394 132.435 109.954 132.062C112.514 131.689 114.82 131.275 116.874 130.822L117.514 134.662C116.34 134.929 114.887 135.209 113.154 135.502V142.582H117.074V146.502H113.154V153.862H117.314V157.862H103.714V139.862L107.314 140.062V153.862H109.554V136.022ZM110.914 161.182C113.42 161.182 116.034 161.062 118.754 160.822L117.714 164.942C115.367 165.182 113.007 165.302 110.634 165.302C109.54 165.302 108.727 165.289 108.194 165.262C106.06 165.182 104.154 164.835 102.474 164.222C100.82 163.609 99.3671 162.662 98.1138 161.382C97.1538 162.929 95.8471 164.715 94.1938 166.742L90.9138 163.902C92.8338 161.982 94.4071 160.022 95.6338 158.022C94.3538 155.835 93.3138 152.875 92.5138 149.142L95.7938 148.222C96.2471 150.489 96.8071 152.449 97.4738 154.102C98.2738 151.942 98.7938 149.515 99.0338 146.822H92.7538V143.142L97.9538 135.742H93.3138V132.062H102.234V135.782L97.3138 143.182H102.474V146.942C102.26 149.262 101.954 151.289 101.554 153.022C101.18 154.755 100.66 156.382 99.9938 157.902C101.034 158.942 102.287 159.729 103.754 160.262C105.22 160.769 106.954 161.062 108.954 161.142L110.914 161.182ZM92.4338 155.542L94.2738 159.062C93.4738 159.809 91.9271 161.329 89.6338 163.622C88.9138 164.342 88.4338 164.835 88.1938 165.102L85.7138 162.342C86.2471 161.969 86.5671 161.582 86.6738 161.182C86.8071 160.755 86.8737 160.169 86.8737 159.422V146.542H83.7938V142.102H90.5938V157.382L92.4338 155.542ZM147.609 160.782H162.089V164.902H127.809V160.782H143.049V152.542H132.009V148.462H143.049V141.742H135.049C133.929 144.275 132.595 146.715 131.049 149.062L127.129 146.662C128.782 144.369 130.142 142.009 131.209 139.582C132.302 137.155 133.209 134.475 133.929 131.542L138.249 132.582C137.555 134.902 137.035 136.555 136.689 137.542H143.049V130.182L147.609 130.342V137.542H160.209V141.742H147.609V148.462H158.489V152.542H147.609V160.782ZM205.384 144.582V148.822H190.864V160.502C190.864 161.889 190.664 162.955 190.264 163.702C189.89 164.449 189.264 164.995 188.384 165.342C187.53 165.689 186.317 165.915 184.744 166.022L181.544 166.262L180.064 161.782L183.424 161.542C184.224 161.489 184.81 161.395 185.184 161.262C185.557 161.102 185.81 160.875 185.944 160.582C186.077 160.262 186.144 159.782 186.144 159.142V148.822H170.424V144.582H186.144V136.302H173.624V132.102H202.224V136.302H190.864V144.582H205.384ZM243.199 141.422V150.182H248.759V154.382H222.999V150.182H228.159V141.422H224.319V137.222H228.159V130.222L232.599 130.422V137.222H238.759V130.222L243.199 130.422V137.222H247.479V141.422H243.199ZM222.119 139.542C221.345 138.742 220.212 137.742 218.719 136.542C217.252 135.315 216.025 134.382 215.039 133.742L217.479 130.502C218.359 130.982 219.519 131.769 220.959 132.862C222.399 133.955 223.559 134.915 224.439 135.742L222.119 139.542ZM220.279 149.062C219.319 148.155 218.065 147.089 216.519 145.862C214.999 144.635 213.799 143.742 212.919 143.182L215.479 139.702C216.519 140.369 217.745 141.249 219.159 142.342C220.599 143.409 221.759 144.369 222.639 145.222L220.279 149.062ZM238.759 141.422H232.599V150.182H238.759V141.422ZM220.599 151.822L222.759 152.622C222.225 154.355 221.425 156.702 220.359 159.662C219.319 162.595 218.479 164.795 217.839 166.262L213.799 164.662C214.332 163.622 215.185 161.449 216.359 158.142C217.559 154.809 218.359 152.489 218.759 151.182L220.599 151.822ZM222.399 163.302C223.679 162.369 225.105 161.115 226.679 159.542C228.279 157.942 229.745 156.369 231.079 154.822L234.119 157.702C232.865 159.142 231.412 160.689 229.759 162.342C228.105 163.995 226.545 165.435 225.079 166.662L222.399 163.302ZM240.119 154.822C241.212 155.782 242.532 157.062 244.079 158.662C245.652 160.235 247.052 161.689 248.279 163.022L245.199 166.542C244.159 165.235 242.825 163.715 241.199 161.982C239.599 160.222 238.225 158.822 237.079 157.782L240.119 154.822ZM262.974 138.622V142.982H258.694V134.622H272.814L272.574 133.542C272.52 133.329 272.414 132.942 272.254 132.382C272.12 131.795 271.974 131.275 271.814 130.822L276.374 130.102C276.534 130.502 276.854 131.555 277.334 133.262L277.694 134.622H290.774V142.782H286.454V138.622H262.974ZM292.534 162.622L289.934 167.022C286.334 165.502 283.254 163.675 280.694 161.542C278.134 159.382 276.16 156.969 274.774 154.302C272.214 159.155 267.214 163.382 259.774 166.982L256.934 162.742C260.827 161.009 263.88 159.302 266.094 157.622C268.307 155.915 269.894 154.049 270.854 152.022C271.84 149.995 272.334 147.609 272.334 144.862V140.022L276.934 140.182V145.622C276.934 146.022 276.92 146.329 276.894 146.542C277.267 150.115 278.707 153.195 281.214 155.782C283.747 158.369 287.52 160.649 292.534 162.622ZM278.934 150.942C280.24 149.635 281.547 148.222 282.854 146.702C284.16 145.182 285.174 143.862 285.894 142.742L289.254 145.582C288.32 146.835 287.134 148.302 285.694 149.982C284.28 151.662 283.04 153.035 281.974 154.102L278.934 150.942ZM263.454 142.822C264.387 143.755 265.547 145.022 266.934 146.622C268.32 148.195 269.48 149.609 270.414 150.862L267.174 154.222C265.627 152.142 264.307 150.422 263.214 149.062C262.12 147.675 261.147 146.569 260.294 145.742L263.454 142.822ZM334.549 135.822C334.549 136.515 334.535 137.195 334.509 137.862C334.482 139.702 334.402 143.795 334.269 150.142C334.135 156.489 334.055 159.969 334.029 160.582C333.949 161.889 333.709 162.889 333.309 163.582C332.909 164.302 332.269 164.822 331.389 165.142C330.535 165.462 329.335 165.675 327.789 165.782L324.389 166.022L323.029 161.702L326.389 161.462C327.375 161.382 328.095 161.275 328.549 161.142C329.002 160.982 329.322 160.702 329.509 160.302C329.695 159.875 329.802 159.209 329.829 158.302L330.149 140.102H322.669C322.002 141.569 321.215 143.129 320.309 144.782L316.749 142.462V165.342H301.909V136.222H305.989C306.629 134.329 307.162 132.249 307.589 129.982L312.149 130.742C311.855 132.155 311.375 133.982 310.709 136.222H316.749V141.902C317.869 140.035 318.869 138.022 319.749 135.862C320.629 133.675 321.269 131.622 321.669 129.702L325.989 130.702C325.535 132.462 325.015 134.169 324.429 135.822H334.549ZM306.109 148.022H312.549V140.382H306.109V148.022ZM324.229 156.062C323.642 154.755 322.882 153.275 321.949 151.622C321.042 149.969 320.202 148.582 319.429 147.462L322.709 145.062C323.642 146.262 324.602 147.635 325.589 149.182C326.602 150.729 327.442 152.155 328.109 153.462L324.229 156.062ZM306.109 152.462V161.062H312.549V152.462H306.109ZM374.804 166.382L374.204 164.142C372.124 164.302 370.11 164.529 368.164 164.822L366.364 165.102L364.884 160.582C365.444 160.289 365.817 159.995 366.004 159.702C366.19 159.409 366.31 159.235 366.364 159.182C367.217 158.035 368.47 155.742 370.124 152.302L368.444 152.462L367.364 152.582L365.004 152.862L363.764 148.862C364.164 148.675 364.484 148.462 364.724 148.222C364.964 147.982 365.244 147.609 365.564 147.102C365.937 146.489 366.484 145.435 367.204 143.942C367.924 142.449 368.577 141.022 369.164 139.662H361.284C359.31 144.035 357.95 146.702 357.204 147.662L360.244 147.462C361.177 145.489 361.91 143.875 362.444 142.622L365.764 144.142C363.684 149.022 361.67 153.142 359.724 156.502L362.444 155.502C363.03 156.995 363.617 158.689 364.204 160.582C364.79 162.449 365.244 164.062 365.564 165.422L362.084 166.822L361.364 163.942L359.884 164.102C357.964 164.315 356.444 164.515 355.324 164.702C354.95 164.755 354.63 164.809 354.364 164.862C354.097 164.915 353.87 164.955 353.684 164.982L352.124 160.302C352.577 160.035 352.937 159.742 353.204 159.422C353.47 159.075 353.644 158.862 353.724 158.782C355.11 156.782 356.577 154.369 358.124 151.542L355.324 151.822C354.684 151.929 354.044 152.009 353.404 152.062L352.124 148.062C352.55 147.849 352.857 147.649 353.044 147.462C353.23 147.275 353.524 146.902 353.924 146.342C354.244 145.809 354.71 144.902 355.324 143.622C355.937 142.315 356.524 140.995 357.084 139.662H353.444V135.782H359.284C358.217 134.022 357.257 132.635 356.404 131.622L359.804 129.262C360.337 129.929 360.977 130.809 361.724 131.902C362.47 132.995 363.084 133.969 363.564 134.822L362.204 135.782H366.604C368.444 133.142 369.75 131.062 370.524 129.542L374.164 131.662C373.417 132.969 372.524 134.342 371.484 135.782H378.164V139.662H373.284C372.484 141.555 371.644 143.382 370.764 145.142C369.884 146.875 369.15 148.062 368.564 148.702L371.964 148.342C372.977 146.022 373.764 144.169 374.324 142.782L377.844 144.222C376.084 148.382 374.217 152.302 372.244 155.982L375.044 154.982C376.43 158.769 377.51 162.062 378.284 164.862L374.804 166.382ZM350.444 138.822C349.804 138.075 348.857 137.169 347.604 136.102C346.35 135.035 345.27 134.182 344.364 133.542L346.604 130.382C348.204 131.395 350.27 132.982 352.804 135.142L350.444 138.822ZM350.044 149.142C349.164 148.182 348.057 147.115 346.724 145.942C345.417 144.742 344.324 143.835 343.444 143.222L346.004 140.102C346.937 140.715 348.044 141.555 349.324 142.622C350.63 143.662 351.684 144.569 352.484 145.342L350.044 149.142ZM350.644 151.262L352.684 151.902C352.47 152.835 351.764 155.209 350.564 159.022C349.39 162.835 348.617 165.195 348.244 166.102L344.124 164.942C344.657 163.635 345.497 161.155 346.644 157.502C347.79 153.849 348.457 151.529 348.644 150.542L350.644 151.262ZM373.164 160.342C372.897 159.435 372.484 158.209 371.924 156.662C371.017 158.289 370.23 159.595 369.564 160.582L373.164 160.342ZM360.364 160.142C359.99 158.942 359.644 157.969 359.324 157.222C358.577 158.529 357.897 159.595 357.284 160.422L360.364 160.142ZM413.179 148.942C414.245 150.915 415.605 152.849 417.259 154.742C418.939 156.609 420.739 158.315 422.659 159.862L420.219 164.142C418.672 162.622 417.179 160.969 415.739 159.182C414.325 157.395 413.085 155.569 412.019 153.702V166.622H407.899V153.822C406.939 155.555 405.832 157.209 404.579 158.782C403.325 160.355 401.752 162.075 399.859 163.942L397.739 161.422H388.339V133.502H399.019V158.742C401.952 156.022 404.485 152.755 406.619 148.942H400.139V144.822H407.899V139.422H401.539V135.182H407.899V130.222L412.019 130.422V135.182H419.419V139.422H412.019V144.822H420.899V148.942H413.179ZM392.379 157.102H395.059V137.702H392.379V157.102ZM432.594 163.062V156.022C432.594 154.609 432.887 153.529 433.474 152.782C434.087 152.035 435.007 151.515 436.234 151.222C435.007 150.929 434.087 150.409 433.474 149.662C432.887 148.915 432.594 147.835 432.594 146.422V139.382C432.594 138.422 432.5 137.715 432.314 137.262C432.154 136.809 431.86 136.502 431.434 136.342C431.034 136.155 430.407 136.062 429.554 136.062V132.022C432.434 132.022 434.554 132.622 435.914 133.822C437.3 134.995 437.994 136.849 437.994 139.382V146.422C437.994 147.569 438.194 148.329 438.594 148.702C439.02 149.049 439.754 149.222 440.794 149.222V153.262C439.754 153.262 439.02 153.435 438.594 153.782C438.194 154.129 437.994 154.875 437.994 156.022V163.062C437.994 165.595 437.3 167.449 435.914 168.622C434.527 169.822 432.407 170.422 429.554 170.422V166.382C430.434 166.382 431.074 166.289 431.474 166.102C431.9 165.915 432.194 165.595 432.354 165.142C432.514 164.689 432.594 163.995 432.594 163.062Z" fill="#FFE300"/>
<path d="M612.24 163.062V156.022C612.24 154.875 612.027 154.129 611.6 153.782C611.2 153.409 610.48 153.222 609.44 153.222V149.182C610.48 149.182 611.2 149.009 611.6 148.662C612.027 148.315 612.24 147.569 612.24 146.422V139.382C612.24 136.849 612.92 134.995 614.28 133.822C615.667 132.622 617.787 132.022 620.64 132.022V136.062C619.76 136.062 619.107 136.155 618.68 136.342C618.28 136.529 618 136.849 617.84 137.302C617.68 137.755 617.6 138.449 617.6 139.382V146.422C617.6 147.862 617.293 148.955 616.68 149.702C616.093 150.422 615.187 150.929 613.96 151.222C615.187 151.515 616.093 152.035 616.68 152.782C617.293 153.502 617.6 154.582 617.6 156.022V163.062C617.6 164.022 617.68 164.729 617.84 165.182C618.027 165.635 618.32 165.942 618.72 166.102C619.147 166.289 619.787 166.382 620.64 166.382V170.422C617.76 170.422 615.64 169.822 614.28 168.622C612.92 167.449 612.24 165.595 612.24 163.062ZM640.274 146.862V159.862H636.754V135.622L640.274 135.822V139.222C641.687 137.942 643.02 136.449 644.274 134.742C645.527 133.009 646.54 131.315 647.314 129.662L650.994 131.142C650.54 132.049 650.26 132.595 650.154 132.782H660.834V136.222C659.474 138.515 657.7 140.569 655.514 142.382C657.94 143.529 660.7 144.462 663.794 145.182L662.474 149.062C659.354 148.155 656.834 147.262 654.914 146.382L656.314 148.982C652.474 151.515 648.234 153.582 643.594 155.182L641.954 151.582C644.034 150.942 646.114 150.142 648.194 149.182C650.3 148.195 652.274 147.142 654.114 146.022C653.474 145.729 652.754 145.342 651.954 144.862C649.074 146.595 645.554 148.115 641.394 149.422L640.274 146.862ZM637.834 131.142C637.007 134.289 635.994 137.289 634.794 140.142V166.422H630.994V147.902C630.274 149.155 629.607 150.262 628.994 151.222L625.954 148.182C627.42 145.915 628.94 143.062 630.514 139.622C632.114 136.155 633.26 133.009 633.954 130.182L637.834 131.142ZM648.034 136.302L647.914 136.502C649.034 137.942 650.38 139.222 651.954 140.342C653.634 139.142 654.994 137.795 656.034 136.302H648.034ZM640.274 140.422V145.502C643.34 144.595 646.074 143.569 648.474 142.422C647.487 141.622 646.527 140.649 645.594 139.502C644.66 140.595 643.5 141.742 642.114 142.942L640.274 140.422ZM641.274 157.542C647.38 155.702 652.767 153.222 657.434 150.102L659.394 152.982C657.26 154.609 654.754 156.102 651.874 157.462C649.02 158.795 645.994 159.942 642.794 160.902L641.274 157.542ZM639.594 163.422C643.647 162.462 647.46 161.195 651.034 159.622C654.607 158.049 657.794 156.249 660.594 154.222L662.594 157.142C659.98 159.249 656.9 161.075 653.354 162.622C649.807 164.195 645.767 165.555 641.234 166.702L639.594 163.422ZM670.889 149.542V144.622H706.249V149.542H670.889ZM714.384 145.742C718.704 145.075 722.93 144.075 727.064 142.742C725.384 141.755 723.877 140.715 722.544 139.622C720.864 140.982 719.224 142.182 717.624 143.222L715.344 139.622C717.397 138.262 719.41 136.675 721.384 134.862C723.357 133.049 724.89 131.369 725.984 129.822L730.024 131.902C730.077 131.822 729.704 132.275 728.904 133.262H745.784V137.302C743.277 139.409 740.45 141.275 737.304 142.902C740.29 143.782 744.49 144.675 749.904 145.582L748.984 149.462C742.37 148.475 736.77 147.062 732.184 145.222C727.17 147.222 721.504 148.769 715.184 149.862L714.384 145.742ZM731.944 140.942C735.224 139.555 737.85 138.182 739.824 136.822H725.584L725.544 136.902C727.384 138.449 729.517 139.795 731.944 140.942ZM747.544 154.822H734.384V161.262C734.384 162.569 734.224 163.555 733.904 164.222C733.584 164.889 733.064 165.369 732.344 165.662C731.624 165.955 730.57 166.169 729.184 166.302L726.704 166.582L725.384 162.302L727.544 162.102C728.344 162.022 728.904 161.929 729.224 161.822C729.544 161.689 729.757 161.489 729.864 161.222C729.97 160.955 730.024 160.502 730.024 159.862V154.822H716.384V150.662H730.024V147.382L734.384 147.542V150.662H747.544V154.822ZM714.024 162.142C715.97 161.209 717.85 160.102 719.664 158.822C721.477 157.542 723.037 156.209 724.344 154.822L727.024 157.982C725.717 159.369 724.184 160.729 722.424 162.062C720.664 163.369 718.61 164.742 716.264 166.182L714.024 162.142ZM738.224 155.102C739.45 155.689 741.25 156.702 743.624 158.142C745.997 159.555 747.85 160.715 749.184 161.622L747.104 165.782C745.824 164.769 744.024 163.502 741.704 161.982C739.41 160.435 737.584 159.275 736.224 158.502L738.224 155.102ZM764.199 140.982C763.772 139.942 763.065 138.595 762.079 136.942C761.092 135.262 760.239 133.969 759.519 133.062L762.839 130.782C763.532 131.635 764.345 132.809 765.279 134.302C766.212 135.795 766.999 137.142 767.639 138.342L764.199 140.982ZM772.919 154.862V160.342H769.039V139.782H776.559L772.119 136.662L773.199 135.302H769.399V131.742H790.799V135.222C789.679 135.649 787.292 137.022 783.639 139.342L782.919 139.782H790.679V156.742C790.679 157.729 790.545 158.489 790.279 159.022C790.039 159.529 789.625 159.915 789.039 160.182C788.452 160.449 787.599 160.649 786.479 160.782L784.799 160.942L783.479 156.982L785.039 156.782C785.705 156.702 786.132 156.569 786.319 156.382C786.505 156.169 786.599 155.755 786.599 155.142V154.862H781.519V159.902H777.719V154.862H772.919ZM775.759 135.302L779.359 137.662C781.492 136.409 783.012 135.622 783.919 135.302H775.759ZM780.639 161.902C785.092 161.902 789.319 161.769 793.319 161.502L792.479 165.302C787.945 165.569 783.905 165.702 780.359 165.702C778.412 165.702 776.439 165.662 774.439 165.582C772.545 165.529 771.012 165.395 769.839 165.182C768.665 164.969 767.599 164.569 766.639 163.982C765.679 163.422 764.745 162.569 763.839 161.422C763.145 162.062 762.439 162.782 761.719 163.582C760.999 164.382 760.292 165.195 759.599 166.022L756.799 162.542L761.719 157.582V147.462H758.199V143.142H765.759V157.542C766.452 158.715 767.172 159.595 767.919 160.182C768.665 160.742 769.532 161.142 770.519 161.382C771.532 161.595 772.905 161.742 774.639 161.822C775.972 161.875 777.972 161.902 780.639 161.902ZM777.719 145.662V143.382H772.919V145.662H777.719ZM781.519 145.662H786.599V143.382H781.519V145.662ZM772.919 149.182V151.342H777.719V149.182H772.919ZM781.519 149.182V151.342H786.599V149.182H781.519ZM813.494 133.022C812.4 134.569 810.88 136.395 808.934 138.502C807.014 140.609 805.214 142.382 803.534 143.822L801.454 140.062C802.814 138.889 804.334 137.329 806.014 135.382C807.72 133.435 809.04 131.755 809.974 130.342L813.494 133.022ZM825.774 160.742H836.374V164.902H811.454V160.742H821.414V152.342H813.494V148.062H821.414V140.822H812.894V136.582H821.934C821.427 134.609 820.92 132.862 820.414 131.342L824.934 130.662C825.494 132.289 826.107 134.262 826.774 136.582H835.054V140.822H825.774V148.062H833.814V152.342H825.774V160.742ZM813.094 142.822C812.267 144.342 811.227 145.955 809.974 147.662V166.142H805.734V152.942C804.4 154.409 803.187 155.649 802.094 156.662L800.254 152.222C801.72 150.889 803.414 149.035 805.334 146.662C807.28 144.289 808.72 142.222 809.654 140.462L813.094 142.822ZM856.349 131.142C855.949 132.822 855.495 134.369 854.989 135.782H863.949V140.302C863.309 143.955 862.335 147.262 861.029 150.222C859.749 153.155 858.069 155.969 855.989 158.662C853.909 161.329 851.295 164.115 848.149 167.022L844.949 163.222C847.962 160.662 850.415 158.209 852.309 155.862C854.229 153.489 855.749 151.062 856.869 148.582C857.989 146.075 858.909 143.235 859.629 140.062H853.389C852.642 141.795 851.922 143.329 851.229 144.662C853.069 145.862 854.549 146.942 855.669 147.902L853.669 152.102C851.989 150.662 850.455 149.462 849.069 148.502C848.349 149.755 847.522 151.035 846.589 152.342L843.509 148.742C845.402 145.889 847.095 142.835 848.589 139.582C850.109 136.329 851.229 133.142 851.949 130.022L856.349 131.142ZM877.709 152.382C876.242 150.995 875.002 149.889 873.989 149.062C872.975 148.235 871.642 147.195 869.989 145.942V166.302H865.829V130.302L869.989 130.462V144.022L871.669 141.782L874.189 143.622C875.175 144.315 876.149 145.035 877.109 145.782C878.069 146.502 879.029 147.289 879.989 148.142L877.709 152.382ZM922.324 135.542H907.204C906.83 136.689 906.404 137.902 905.924 139.182H920.444V166.022H916.364V164.342H894.364V165.982H890.164V139.182H901.204C901.764 137.715 902.19 136.502 902.484 135.542H888.284V131.542H922.324V135.542ZM898.164 143.102H894.364V160.542H898.164V143.102ZM902.204 146.342H908.404V143.102H902.204V146.342ZM912.524 160.542H916.364V143.102H912.524V160.542ZM902.204 153.462H908.404V150.222H902.204V153.462ZM908.404 157.262H902.204V160.542H908.404V157.262ZM965.299 135.822C965.299 136.515 965.285 137.195 965.259 137.862C965.232 139.702 965.152 143.795 965.019 150.142C964.885 156.489 964.805 159.969 964.779 160.582C964.699 161.889 964.459 162.889 964.059 163.582C963.659 164.302 963.019 164.822 962.139 165.142C961.285 165.462 960.085 165.675 958.539 165.782L955.139 166.022L953.779 161.702L957.139 161.462C958.125 161.382 958.845 161.275 959.299 161.142C959.752 160.982 960.072 160.702 960.259 160.302C960.445 159.875 960.552 159.209 960.579 158.302L960.899 140.102H953.419C952.752 141.569 951.965 143.129 951.059 144.782L947.499 142.462V165.342H932.659V136.222H936.739C937.379 134.329 937.912 132.249 938.339 129.982L942.899 130.742C942.605 132.155 942.125 133.982 941.459 136.222H947.499V141.902C948.619 140.035 949.619 138.022 950.499 135.862C951.379 133.675 952.019 131.622 952.419 129.702L956.739 130.702C956.285 132.462 955.765 134.169 955.179 135.822H965.299ZM936.859 148.022H943.299V140.382H936.859V148.022ZM954.979 156.062C954.392 154.755 953.632 153.275 952.699 151.622C951.792 149.969 950.952 148.582 950.179 147.462L953.459 145.062C954.392 146.262 955.352 147.635 956.339 149.182C957.352 150.729 958.192 152.155 958.859 153.462L954.979 156.062ZM936.859 152.462V161.062H943.299V152.462H936.859ZM1009.67 147.022L1008.15 151.062C1004.29 149.809 1001.19 148.395 998.874 146.822C996.314 148.582 993.327 150.129 989.914 151.462L988.074 147.542C990.98 146.502 993.474 145.355 995.554 144.102C994.487 143.009 993.46 141.715 992.474 140.222C991.754 141.022 991.007 141.809 990.234 142.582L988.354 139.982V144.702H985.194V149.382H988.474V153.342H985.194V159.142L989.114 158.422L989.154 160.382L989.194 162.582C982.687 163.622 977.847 164.355 974.674 164.782L974.234 160.742L975.754 160.542V146.982L979.274 147.142V160.062C979.674 160.009 980.38 159.902 981.394 159.742V144.702H976.274V131.662H988.354V138.782C989.687 137.342 990.9 135.795 991.994 134.142C993.114 132.489 993.98 130.902 994.594 129.382L998.394 130.502C997.967 131.542 997.594 132.382 997.274 133.022H1007.51V136.822C1006.07 139.649 1004.27 142.089 1002.11 144.142C1004.17 145.262 1006.69 146.222 1009.67 147.022ZM984.634 135.502H979.954V140.862H984.634V135.502ZM998.794 141.742C1000.37 140.409 1001.77 138.755 1002.99 136.782H995.114C995.06 136.835 995.007 136.915 994.954 137.022C996.1 138.915 997.38 140.489 998.794 141.742ZM994.874 166.422H990.914V151.462H1006.83V166.422H1002.79V164.782H994.874V166.422ZM1002.79 161.022V155.302H994.874V161.022H1002.79ZM1019.97 163.062V156.022C1019.97 154.609 1020.26 153.529 1020.85 152.782C1021.46 152.035 1022.38 151.515 1023.61 151.222C1022.38 150.929 1021.46 150.409 1020.85 149.662C1020.26 148.915 1019.97 147.835 1019.97 146.422V139.382C1019.97 138.422 1019.88 137.715 1019.69 137.262C1019.53 136.809 1019.24 136.502 1018.81 136.342C1018.41 136.155 1017.78 136.062 1016.93 136.062V132.022C1019.81 132.022 1021.93 132.622 1023.29 133.822C1024.68 134.995 1025.37 136.849 1025.37 139.382V146.422C1025.37 147.569 1025.57 148.329 1025.97 148.702C1026.4 149.049 1027.13 149.222 1028.17 149.222V153.262C1027.13 153.262 1026.4 153.435 1025.97 153.782C1025.57 154.129 1025.37 154.875 1025.37 156.022V163.062C1025.37 165.595 1024.68 167.449 1023.29 168.622C1021.9 169.822 1019.78 170.422 1016.93 170.422V166.382C1017.81 166.382 1018.45 166.289 1018.85 166.102C1019.28 165.915 1019.57 165.595 1019.73 165.142C1019.89 164.689 1019.97 163.995 1019.97 163.062Z" fill="#FFE300"/>
<path d="M1199.24 163.062V156.022C1199.24 154.875 1199.03 154.129 1198.6 153.782C1198.2 153.409 1197.48 153.222 1196.44 153.222V149.182C1197.48 149.182 1198.2 149.009 1198.6 148.662C1199.03 148.315 1199.24 147.569 1199.24 146.422V139.382C1199.24 136.849 1199.92 134.995 1201.28 133.822C1202.67 132.622 1204.79 132.022 1207.64 132.022V136.062C1206.76 136.062 1206.11 136.155 1205.68 136.342C1205.28 136.529 1205 136.849 1204.84 137.302C1204.68 137.755 1204.6 138.449 1204.6 139.382V146.422C1204.6 147.862 1204.29 148.955 1203.68 149.702C1203.09 150.422 1202.19 150.929 1200.96 151.222C1202.19 151.515 1203.09 152.035 1203.68 152.782C1204.29 153.502 1204.6 154.582 1204.6 156.022V163.062C1204.6 164.022 1204.68 164.729 1204.84 165.182C1205.03 165.635 1205.32 165.942 1205.72 166.102C1206.15 166.289 1206.79 166.382 1207.64 166.382V170.422C1204.76 170.422 1202.64 169.822 1201.28 168.622C1199.92 167.449 1199.24 165.595 1199.24 163.062ZM1248.19 136.022L1248.11 138.782C1247.77 151.635 1247.55 158.942 1247.47 160.702C1247.42 161.982 1247.18 162.969 1246.75 163.662C1246.35 164.382 1245.71 164.902 1244.83 165.222C1243.95 165.569 1242.75 165.795 1241.23 165.902L1237.71 166.142L1236.35 161.862L1239.63 161.622C1240.62 161.542 1241.31 161.435 1241.71 161.302C1242.14 161.169 1242.45 160.915 1242.63 160.542C1242.82 160.169 1242.95 159.555 1243.03 158.702C1243.09 158.009 1243.19 154.995 1243.35 149.662C1243.51 144.329 1243.58 141.209 1243.55 140.302H1235.59C1234.71 142.435 1233.77 144.342 1232.75 146.022L1229.03 143.982C1231.27 140.382 1233.18 135.675 1234.75 129.862L1238.71 130.902C1238.34 132.395 1237.83 134.102 1237.19 136.022H1248.19ZM1215.79 145.622L1214.91 141.582C1215.53 141.315 1216.03 140.955 1216.43 140.502C1217.1 139.702 1218.09 138.235 1219.39 136.102C1220.73 133.942 1221.81 131.915 1222.63 130.022L1226.27 131.942C1225.47 133.622 1224.49 135.409 1223.31 137.302C1222.17 139.169 1221.26 140.475 1220.59 141.222C1222.73 141.142 1224.14 141.075 1224.83 141.022C1226.09 139.022 1226.94 137.555 1227.39 136.622L1230.71 138.782C1229.35 141.129 1227.87 143.542 1226.27 146.022C1224.7 148.475 1223.5 150.142 1222.67 151.022L1228.03 150.222L1229.27 150.022L1229.35 154.262C1229.17 154.289 1228.02 154.435 1225.91 154.702C1223.41 155.022 1221.06 155.342 1218.87 155.662C1217.67 155.875 1216.95 156.022 1216.71 156.102L1215.79 151.822C1216.41 151.715 1216.89 151.542 1217.23 151.302C1217.61 151.062 1218.03 150.702 1218.51 150.222C1219.39 149.182 1220.63 147.462 1222.23 145.062L1220.95 145.142C1219.46 145.222 1218.25 145.315 1217.31 145.422C1217.07 145.422 1216.79 145.449 1216.47 145.502C1216.15 145.555 1215.93 145.595 1215.79 145.622ZM1237.83 156.062C1237.27 154.969 1236.43 153.582 1235.31 151.902C1234.22 150.195 1233.21 148.755 1232.27 147.582L1235.47 145.262C1236.35 146.275 1237.34 147.555 1238.43 149.102C1239.53 150.649 1240.49 152.089 1241.31 153.422L1237.83 156.062ZM1230.99 160.182L1231.19 162.582C1230.47 162.582 1227.94 162.942 1223.59 163.662C1219.25 164.409 1216.35 164.929 1214.91 165.222L1214.35 160.982C1216.3 160.662 1219.31 160.155 1223.39 159.462C1227.5 158.769 1229.99 158.329 1230.87 158.142L1230.99 160.182ZM1279.41 152.902C1282.74 156.235 1287.49 159.035 1293.65 161.302L1291.77 165.622C1285.98 163.142 1281.33 160.102 1277.81 156.502V166.422H1273.41V156.422C1269.92 160.075 1265.24 163.142 1259.37 165.622L1257.49 161.382C1263.73 159.035 1268.5 156.209 1271.81 152.902H1261.33V141.062H1273.41V137.782H1259.17V133.702H1273.41V130.142L1277.81 130.342V133.702H1291.93V137.782H1277.81V141.062H1289.77V152.902H1279.41ZM1273.41 144.822H1265.69V149.222H1273.41V144.822ZM1285.41 149.222V144.822H1277.81V149.222H1285.41ZM1329.06 160.782C1330.82 160.782 1333.41 160.729 1336.82 160.622L1336.02 164.902C1333.78 165.009 1331.25 165.062 1328.42 165.062C1325.6 165.062 1323.06 165.009 1320.82 164.902C1318.53 164.795 1316.74 164.649 1315.46 164.462C1314.18 164.275 1313.08 163.942 1312.14 163.462C1311.24 163.009 1310.36 162.315 1309.5 161.382C1308.78 160.582 1308.29 160.182 1308.02 160.182C1307.92 160.182 1307.78 160.249 1307.62 160.382C1307.49 160.515 1307.33 160.689 1307.14 160.902C1306.96 161.089 1306.81 161.235 1306.7 161.342C1305.85 162.249 1304.82 163.529 1303.62 165.182L1300.54 161.342C1301.05 160.542 1302.09 159.235 1303.66 157.422C1304.46 156.515 1304.92 155.982 1305.02 155.822C1305.58 155.209 1306.05 154.795 1306.42 154.582C1306.8 154.369 1307.25 154.262 1307.78 154.262C1308.16 154.262 1308.52 154.342 1308.86 154.502C1312.25 152.555 1315.68 150.329 1319.14 147.822C1322.61 145.315 1325.46 143.075 1327.7 141.102H1304.86V136.702H1317.54C1316.85 134.142 1316.32 132.355 1315.94 131.342L1320.42 130.702L1320.9 132.182L1322.3 136.702H1333.86V141.222C1331.52 143.755 1328.29 146.609 1324.18 149.782C1320.08 152.955 1316.08 155.662 1312.18 157.902C1313.14 158.942 1314.18 159.635 1315.3 159.982C1316.45 160.302 1318.2 160.502 1320.54 160.582C1323.66 160.715 1326.5 160.782 1329.06 160.782ZM1379.92 151.142V155.582H1365V161.222C1365 162.582 1364.84 163.609 1364.52 164.302C1364.2 165.022 1363.65 165.529 1362.88 165.822C1362.13 166.115 1361 166.329 1359.48 166.462L1356.56 166.702L1355.08 162.182L1357.92 161.982C1358.75 161.902 1359.31 161.822 1359.6 161.742C1359.89 161.635 1360.09 161.449 1360.2 161.182C1360.31 160.889 1360.36 160.395 1360.36 159.702V155.582H1344.84V151.142H1360.36V146.542H1347.96V142.102H1360.36V136.822C1355.59 137.142 1351.33 137.369 1347.6 137.502L1347.32 133.102C1351.24 132.995 1356.05 132.742 1361.76 132.342C1367.49 131.915 1372.37 131.462 1376.4 130.982L1376.96 135.422C1374.03 135.769 1370.04 136.129 1365 136.502V142.102H1376.8V146.542H1365V151.142H1379.92ZM1390.09 163.062V156.022C1390.09 154.609 1390.39 153.529 1390.97 152.782C1391.59 152.035 1392.51 151.515 1393.73 151.222C1392.51 150.929 1391.59 150.409 1390.97 149.662C1390.39 148.915 1390.09 147.835 1390.09 146.422V139.382C1390.09 138.422 1390 137.715 1389.81 137.262C1389.65 136.809 1389.36 136.502 1388.93 136.342C1388.53 136.155 1387.91 136.062 1387.05 136.062V132.022C1389.93 132.022 1392.05 132.622 1393.41 133.822C1394.8 134.995 1395.49 136.849 1395.49 139.382V146.422C1395.49 147.569 1395.69 148.329 1396.09 148.702C1396.52 149.049 1397.25 149.222 1398.29 149.222V153.262C1397.25 153.262 1396.52 153.435 1396.09 153.782C1395.69 154.129 1395.49 154.875 1395.49 156.022V163.062C1395.49 165.595 1394.8 167.449 1393.41 168.622C1392.03 169.822 1389.91 170.422 1387.05 170.422V166.382C1387.93 166.382 1388.57 166.289 1388.97 166.102C1389.4 165.915 1389.69 165.595 1389.85 165.142C1390.01 164.689 1390.09 163.995 1390.09 163.062Z" fill="#FFE300"/>
<path d="M1656.24 163.062V156.022C1656.24 154.875 1656.03 154.129 1655.6 153.782C1655.2 153.409 1654.48 153.222 1653.44 153.222V149.182C1654.48 149.182 1655.2 149.009 1655.6 148.662C1656.03 148.315 1656.24 147.569 1656.24 146.422V139.382C1656.24 136.849 1656.92 134.995 1658.28 133.822C1659.67 132.622 1661.79 132.022 1664.64 132.022V136.062C1663.76 136.062 1663.11 136.155 1662.68 136.342C1662.28 136.529 1662 136.849 1661.84 137.302C1661.68 137.755 1661.6 138.449 1661.6 139.382V146.422C1661.6 147.862 1661.29 148.955 1660.68 149.702C1660.09 150.422 1659.19 150.929 1657.96 151.222C1659.19 151.515 1660.09 152.035 1660.68 152.782C1661.29 153.502 1661.6 154.582 1661.6 156.022V163.062C1661.6 164.022 1661.68 164.729 1661.84 165.182C1662.03 165.635 1662.32 165.942 1662.72 166.102C1663.15 166.289 1663.79 166.382 1664.64 166.382V170.422C1661.76 170.422 1659.64 169.822 1658.28 168.622C1656.92 167.449 1656.24 165.595 1656.24 163.062ZM1688.03 155.862L1688.11 158.462C1686.73 158.729 1685.69 158.915 1684.99 159.022L1683.43 159.302V166.462H1679.43V159.942C1676.85 160.315 1674.33 160.635 1671.87 160.902L1671.43 156.582C1674.1 156.315 1676.77 155.995 1679.43 155.622V150.982H1672.79V146.822C1673.75 144.902 1674.74 142.289 1675.75 138.982H1672.39V135.062H1676.95C1677.51 133.009 1677.98 131.209 1678.35 129.662L1682.31 130.462C1682.1 131.502 1681.7 133.035 1681.11 135.062H1687.39V138.982H1679.91C1678.71 142.849 1677.74 145.515 1676.99 146.982H1679.43V140.582L1683.43 140.782V146.982H1687.15V150.982H1683.43V155.022C1685.62 154.675 1687.13 154.422 1687.95 154.262L1688.03 155.862ZM1706.75 146.742H1694.15C1693.67 148.369 1693.34 149.462 1693.15 150.022H1704.47V154.062C1703.86 154.809 1702.31 157.075 1699.83 160.862C1701.46 161.849 1702.63 162.582 1703.35 163.062L1701.47 167.342C1699.93 166.222 1697.82 164.835 1695.15 163.182C1692.49 161.529 1690.19 160.169 1688.27 159.102L1690.15 155.342C1691.62 156.115 1693.67 157.262 1696.31 158.782L1699.71 153.982H1688.87V149.862C1689.38 148.342 1689.71 147.302 1689.87 146.742H1686.67V142.782H1690.91L1691.75 139.062H1688.31V135.222H1692.51C1692.81 133.809 1693.1 132.089 1693.39 130.062L1697.67 130.542C1697.33 132.569 1697.03 134.129 1696.79 135.222H1705.27V139.062H1695.99C1695.73 140.342 1695.51 141.302 1695.35 141.942L1695.15 142.782H1706.75V146.742ZM1739.65 152.182L1738.41 148.222L1741.45 147.942C1742.38 147.862 1743 147.702 1743.29 147.462C1743.61 147.222 1743.77 146.702 1743.77 145.902V130.982L1747.85 131.142V146.982C1747.85 148.235 1747.7 149.195 1747.41 149.862C1747.12 150.529 1746.6 151.022 1745.85 151.342C1745.13 151.635 1744.08 151.835 1742.69 151.942L1739.65 152.182ZM1734.77 161.862H1750.05V165.702H1715.17V161.862H1730.45V157.782H1719.17V154.022L1719.05 154.142L1715.73 151.582C1717.06 150.195 1718.02 149.022 1718.61 148.062C1719.2 147.075 1719.58 145.995 1719.77 144.822H1715.77V141.022H1720.05V140.062V136.102H1716.69V132.142H1735.45V136.102H1732.25V141.022H1736.25V144.822H1732.25V151.542H1728.17V144.822H1723.93C1723.72 146.689 1723.26 148.302 1722.57 149.662C1721.88 150.995 1720.76 152.435 1719.21 153.982H1730.45V151.942L1734.77 152.102V153.982H1746.13V157.782H1734.77V161.862ZM1737.17 132.982L1741.17 133.142V146.982H1737.17V132.982ZM1724.13 136.102V140.102V141.022H1728.17V136.102H1724.13ZM1786.06 160.782C1787.82 160.782 1790.41 160.729 1793.82 160.622L1793.02 164.902C1790.78 165.009 1788.25 165.062 1785.42 165.062C1782.6 165.062 1780.06 165.009 1777.82 164.902C1775.53 164.795 1773.74 164.649 1772.46 164.462C1771.18 164.275 1770.08 163.942 1769.14 163.462C1768.24 163.009 1767.36 162.315 1766.5 161.382C1765.78 160.582 1765.29 160.182 1765.02 160.182C1764.92 160.182 1764.78 160.249 1764.62 160.382C1764.49 160.515 1764.33 160.689 1764.14 160.902C1763.96 161.089 1763.81 161.235 1763.7 161.342C1762.85 162.249 1761.82 163.529 1760.62 165.182L1757.54 161.342C1758.05 160.542 1759.09 159.235 1760.66 157.422C1761.46 156.515 1761.92 155.982 1762.02 155.822C1762.58 155.209 1763.05 154.795 1763.42 154.582C1763.8 154.369 1764.25 154.262 1764.78 154.262C1765.16 154.262 1765.52 154.342 1765.86 154.502C1769.25 152.555 1772.68 150.329 1776.14 147.822C1779.61 145.315 1782.46 143.075 1784.7 141.102H1761.86V136.702H1774.54C1773.85 134.142 1773.32 132.355 1772.94 131.342L1777.42 130.702L1777.9 132.182L1779.3 136.702H1790.86V141.222C1788.52 143.755 1785.29 146.609 1781.18 149.782C1777.08 152.955 1773.08 155.662 1769.18 157.902C1770.14 158.942 1771.18 159.635 1772.3 159.982C1773.45 160.302 1775.2 160.502 1777.54 160.582C1780.66 160.715 1783.5 160.782 1786.06 160.782ZM1836.92 151.142V155.582H1822V161.222C1822 162.582 1821.84 163.609 1821.52 164.302C1821.2 165.022 1820.65 165.529 1819.88 165.822C1819.13 166.115 1818 166.329 1816.48 166.462L1813.56 166.702L1812.08 162.182L1814.92 161.982C1815.75 161.902 1816.31 161.822 1816.6 161.742C1816.89 161.635 1817.09 161.449 1817.2 161.182C1817.31 160.889 1817.36 160.395 1817.36 159.702V155.582H1801.84V151.142H1817.36V146.542H1804.96V142.102H1817.36V136.822C1812.59 137.142 1808.33 137.369 1804.6 137.502L1804.32 133.102C1808.24 132.995 1813.05 132.742 1818.76 132.342C1824.49 131.915 1829.37 131.462 1833.4 130.982L1833.96 135.422C1831.03 135.769 1827.04 136.129 1822 136.502V142.102H1833.8V146.542H1822V151.142H1836.92ZM1847.09 163.062V156.022C1847.09 154.609 1847.39 153.529 1847.97 152.782C1848.59 152.035 1849.51 151.515 1850.73 151.222C1849.51 150.929 1848.59 150.409 1847.97 149.662C1847.39 148.915 1847.09 147.835 1847.09 146.422V139.382C1847.09 138.422 1847 137.715 1846.81 137.262C1846.65 136.809 1846.36 136.502 1845.93 136.342C1845.53 136.155 1844.91 136.062 1844.05 136.062V132.022C1846.93 132.022 1849.05 132.622 1850.41 133.822C1851.8 134.995 1852.49 136.849 1852.49 139.382V146.422C1852.49 147.569 1852.69 148.329 1853.09 148.702C1853.52 149.049 1854.25 149.222 1855.29 149.222V153.262C1854.25 153.262 1853.52 153.435 1853.09 153.782C1852.69 154.129 1852.49 154.875 1852.49 156.022V163.062C1852.49 165.595 1851.8 167.449 1850.41 168.622C1849.03 169.822 1846.91 170.422 1844.05 170.422V166.382C1844.93 166.382 1845.57 166.289 1845.97 166.102C1846.4 165.915 1846.69 165.595 1846.85 165.142C1847.01 164.689 1847.09 163.995 1847.09 163.062Z" fill="#FFE300"/>
</svg>
