<svg width="601" height="164" viewBox="0 0 601 164" fill="none" xmlns="http://www.w3.org/2000/svg">
<path d="M196.135 24.855C196.135 20.375 197.127 17.1783 199.11 15.265C201.117 13.3283 204.01 12.36 207.79 12.36C209.983 12.36 211.85 12.6167 213.39 13.13V17.435C211.78 16.875 210.007 16.595 208.07 16.595C206.507 16.595 205.235 16.8517 204.255 17.365C203.298 17.8783 202.587 18.7417 202.12 19.955C201.653 21.145 201.42 22.7667 201.42 24.82C201.42 26.99 201.642 28.67 202.085 29.86C202.552 31.05 203.252 31.8783 204.185 32.345C205.142 32.8117 206.402 33.045 207.965 33.045C210.018 33.045 211.92 32.73 213.67 32.1V36.335C212.9 36.6383 212.002 36.8833 210.975 37.07C209.948 37.2567 208.875 37.35 207.755 37.35C205.212 37.35 203.1 37 201.42 36.3C199.763 35.6 198.468 34.34 197.535 32.52C196.602 30.6767 196.135 28.1217 196.135 24.855ZM241.2 37H236.3V26.08H226.29V37H221.355V12.71H226.29V21.95H236.3V12.71H241.2V37ZM255.009 30.77L252.769 37H247.694L256.759 12.71H263.374L272.404 37H267.154L265.019 30.77H255.009ZM263.549 26.64L260.259 17.085H259.839L256.444 26.64H263.549ZM296.269 20.865C296.269 22.9417 295.942 24.5983 295.289 25.835C294.659 27.0483 293.656 27.935 292.279 28.495C290.926 29.0317 289.106 29.3 286.819 29.3H283.739V37H278.804V12.71H286.819C289.222 12.71 291.101 12.99 292.454 13.55C293.831 14.0867 294.811 14.95 295.394 16.14C295.977 17.3067 296.269 18.8817 296.269 20.865ZM286.189 25.345C287.472 25.345 288.476 25.2167 289.199 24.96C289.922 24.7033 290.436 24.26 290.739 23.63C291.066 23 291.229 22.1133 291.229 20.97C291.229 19.36 290.856 18.24 290.109 17.61C289.362 16.98 288.056 16.665 286.189 16.665H283.739V25.345H286.189ZM312.94 17.015V37H308.005V17.015H301.53V12.71H319.415V17.015H312.94ZM341.496 37H326.341V12.71H340.936V16.98H331.276V22.475H340.236V26.57H331.276V32.695H341.496V37ZM357.265 27.97H354.395V37H349.46V12.71H357.335C359.552 12.71 361.337 12.9667 362.69 13.48C364.067 13.97 365.082 14.775 365.735 15.895C366.388 16.9917 366.715 18.4617 366.715 20.305C366.715 22.3117 366.33 23.8867 365.56 25.03C364.813 26.1733 363.647 26.9783 362.06 27.445L368.99 37H363.18L357.265 27.97ZM356.635 24.26C357.942 24.26 358.957 24.155 359.68 23.945C360.403 23.735 360.928 23.35 361.255 22.79C361.605 22.23 361.78 21.4017 361.78 20.305C361.78 19.3017 361.605 18.5433 361.255 18.03C360.928 17.5167 360.403 17.1667 359.68 16.98C358.957 16.77 357.942 16.665 356.635 16.665H354.395V24.26H356.635ZM388.569 18.17V14.18L395.814 12.71H399.314V37H394.519V17.015L388.569 18.17Z" fill="white"/>
<path d="M11.48 102.2C10.5467 100.287 9.33333 98 7.84 95.34C6.39333 92.6333 5.18 90.5333 4.2 89.04L11.97 84.35C12.95 85.7033 14.1867 87.64 15.68 90.16C17.1733 92.68 18.4333 94.92 19.46 96.88L11.48 102.2ZM49.42 94.92C46.06 95.34 42.7 95.69 39.34 95.97L38.78 87.36C42.28 87.1267 46.1767 86.73 50.47 86.17C54.81 85.61 58.6833 85.0267 62.09 84.42L63.42 92.89C61.88 93.17 59.7333 93.52 56.98 93.94V104.16H62.44V112.84H56.98V123.62H62.93V132.3H39.48V100.38L46.55 100.66V123.62H49.42V94.92ZM53.76 136.71C57.7267 136.71 61.6933 136.57 65.66 136.29L63.49 145.04C60.0833 145.367 56.3967 145.53 52.43 145.53C51.17 145.53 49.2333 145.483 46.62 145.39C39.76 145.157 34.23 143.173 30.03 139.44C28.49 141.867 26.5067 144.573 24.08 147.56L17.15 141.61C20.37 138.483 22.8433 135.38 24.57 132.3C22.3767 128.193 20.6733 123.177 19.46 117.25L26.11 115.64C26.81 118.86 27.6033 121.613 28.49 123.9C29.2833 121.193 29.89 117.647 30.31 113.26H20.3V105.42L28.42 94.36H21.14V86.1H37.31V94.64L29.75 105.42H37.24V113.68C36.96 117.647 36.5633 121.053 36.05 123.9C35.5367 126.747 34.8133 129.383 33.88 131.81C35.5133 133.443 37.4733 134.633 39.76 135.38C42.0467 136.08 44.94 136.5 48.44 136.64C49.6067 136.687 51.38 136.71 53.76 136.71ZM21.56 135.94C20.1133 137.153 17.8733 139.183 14.84 142.03L13.58 143.29L11.27 145.81L5.67 139.23C6.55667 138.297 7.14 137.387 7.42 136.5C7.74667 135.613 7.93333 134.447 7.98 133V113.33H3.36V103.74H16.38V130.13L18.97 127.47L21.56 135.94ZM116.716 135.38H140.866V144.9H80.5963V135.38H106.426V124.04H86.8963V115.71L79.4063 111.72C84.2596 103.88 87.7829 95.3167 89.9763 86.03L99.4263 88.2C98.9129 90.3 98.2363 92.6333 97.3963 95.2H106.426V83.93L116.716 84.28V95.2H137.716V104.79H116.716V114.59H135.476V124.04H116.716V135.38ZM106.426 114.59V104.79H93.9663C92.9396 107.45 91.4229 110.717 89.4163 114.59H106.426ZM216.143 108.57V118.16H192.203V135.31C192.203 138.25 191.876 140.467 191.223 141.96C190.569 143.453 189.426 144.527 187.792 145.18C186.206 145.833 183.803 146.3 180.583 146.58L174.843 147.07L171.553 137.06L177.153 136.64C178.459 136.547 179.393 136.383 179.953 136.15C180.559 135.87 180.956 135.403 181.143 134.75C181.376 134.05 181.493 132.93 181.493 131.39V118.16H155.873V108.57H181.493V96.11H160.983V86.59H211.033V96.11H192.203V108.57H216.143ZM245.079 100.59C243.632 99.3767 241.649 97.79 239.129 95.83C236.655 93.87 234.625 92.33 233.039 91.21L238.219 83.79C239.759 84.6767 241.789 86.0767 244.309 87.99C246.829 89.8567 248.765 91.3967 250.119 92.61L245.079 100.59ZM292.679 117.32V126.56H278.889C280.755 128.147 282.972 130.27 285.539 132.93C288.152 135.59 290.509 138.063 292.609 140.35L285.889 147.35C284.302 145.297 282.179 142.847 279.519 140C276.859 137.107 274.432 134.61 272.239 132.51L278.749 126.56H260.969L267.759 132.44C265.752 134.773 263.372 137.293 260.619 140C257.912 142.753 255.229 145.297 252.569 147.63L246.199 140.56C248.532 138.927 251.029 136.803 253.689 134.19C256.395 131.53 258.729 128.987 260.689 126.56H247.809V124.18C246.969 126.793 245.639 130.597 243.819 135.59C241.999 140.537 240.575 144.223 239.549 146.65L230.799 143.08C232.012 140.467 233.505 136.78 235.279 132.02C237.052 127.26 238.382 123.457 239.269 120.61L247.809 123.97V117.32H255.719V104.16H249.909V95.13H255.719V84.07L265.379 84.42V95.13H274.339V84.07L283.999 84.42V95.13H290.439V104.16H283.999V117.32H292.679ZM242.069 117.67C240.342 116.177 238.219 114.45 235.699 112.49C233.225 110.483 231.219 108.967 229.679 107.94L235.139 100.17C236.912 101.29 238.989 102.737 241.369 104.51C243.749 106.283 245.779 107.893 247.459 109.34L242.069 117.67ZM274.339 104.16H265.379V117.32H274.339V104.16ZM370.755 133.63L363.965 141.47C359.112 137.177 355.005 132.93 351.645 128.73C348.285 124.483 345.485 119.91 343.245 115.01V137.9C343.245 140.233 342.918 142.03 342.265 143.29C341.612 144.55 340.562 145.437 339.115 145.95C337.715 146.51 335.732 146.907 333.165 147.14L326.585 147.63L323.505 137.69L329.735 137.2C331.275 137.107 332.302 136.827 332.815 136.36C333.328 135.847 333.585 134.797 333.585 133.21V84.07L343.245 84.42V94.29C344.318 98.07 345.602 101.593 347.095 104.86C352.415 100.287 356.592 96.1333 359.625 92.4L366.835 100.45C362.308 104.837 357.315 109.27 351.855 113.75C356.755 121.497 363.055 128.123 370.755 133.63ZM330.785 97.65V107.52C329.618 113.447 327.612 119.163 324.765 124.67C321.965 130.13 318.022 135.683 312.935 141.33L304.325 135.8C309.178 130.76 313.028 126 315.875 121.52C318.768 116.993 320.868 112.327 322.175 107.52H308.665V97.65H330.785ZM443.231 92.61C443.185 96.5767 442.998 103.95 442.671 114.73C442.391 125.463 442.135 133.233 441.901 138.04C441.808 140.093 441.411 141.68 440.711 142.8C440.011 143.967 439.031 144.807 437.771 145.32C436.511 145.833 434.831 146.183 432.731 146.37L425.031 147.07L422.091 137.13L428.601 136.57C429.721 136.43 430.538 136.267 431.051 136.08C431.565 135.847 431.915 135.427 432.101 134.82C432.335 134.213 432.475 133.233 432.521 131.88C432.895 124.133 433.175 114.263 433.361 102.27H422.511C420.925 105.63 419.408 108.477 417.961 110.81L412.011 106.89V145.53H385.341V92.82H392.341L394.861 84L404.801 84.84L402.351 92.82H412.011V101.85C413.738 98.6767 415.278 95.48 416.631 92.26C418.031 88.9933 419.081 86.0533 419.781 83.44L429.161 84.84C428.601 86.8467 427.738 89.4367 426.571 92.61H443.231ZM394.511 113.61H403.191V102.34H394.511V113.61ZM424.191 128.66C421.671 123.807 418.825 119.35 415.651 115.29L422.581 109.97C426.175 114.45 429.138 118.627 431.471 122.5L424.191 128.66ZM394.511 123.2V135.87H403.191V123.2H394.511ZM510.108 101.08C508.988 103.507 507.844 105.863 506.678 108.15C505.558 110.39 504.624 112.023 503.878 113.05L508.358 112.7C509.898 109.76 511.111 107.24 511.998 105.14L519.348 108.22C518.321 110.507 517.014 113.167 515.428 116.2C513.841 119.233 512.278 122.057 510.738 124.67L509.688 125.93L514.378 124.6C515.311 127.307 516.361 130.643 517.528 134.61C518.741 138.577 519.674 141.82 520.328 144.34L512.628 146.86C512.254 145.18 511.951 143.92 511.718 143.08L509.198 143.29C506.024 143.477 503.528 143.663 501.708 143.85C500.028 144.083 498.768 144.293 497.928 144.48L497.998 144.9L491.348 146.79C491.161 145.763 490.904 144.48 490.578 142.94C486.564 143.267 483.344 143.593 480.918 143.92C479.378 144.153 477.954 144.433 476.648 144.76L473.427 135.03C474.781 134.283 476.088 132.977 477.348 131.11C478.981 128.777 480.894 125.487 483.088 121.24L480.568 121.52C478.888 121.707 477.464 121.917 476.298 122.15L473.638 113.61C474.431 113.237 475.084 112.793 475.598 112.28C476.158 111.72 476.671 110.997 477.138 110.11C478.258 108.197 479.728 105.187 481.548 101.08H475.528V93.52L471.048 100.52C469.694 99.26 467.874 97.6967 465.588 95.83C463.301 93.9633 461.481 92.54 460.128 91.56L465.168 84.49C468.014 86.31 471.468 88.9233 475.528 92.33H484.558L481.548 85.33L491.908 84.49L494.987 92.33H499.608L502.828 84.42L513.258 85.4L509.898 92.33H520.538V101.08H510.108ZM469.088 117.25C467.454 115.71 465.518 113.96 463.278 112C461.038 110.04 459.194 108.523 457.747 107.45L463.138 100.31C464.724 101.477 466.614 102.947 468.808 104.72C471.001 106.493 472.821 108.01 474.268 109.27L469.088 117.25ZM490.228 101.08C487.661 106.68 485.538 110.647 483.858 112.98L487.918 112.7C489.831 108.827 491.044 106.237 491.558 104.93L498.068 107.94L495.968 112.63C496.481 112.07 496.994 111.3 497.508 110.32C498.908 107.847 500.378 104.767 501.918 101.08H490.228ZM503.598 121.24L501.078 121.52C499.584 121.66 498.068 121.893 496.528 122.22L494.428 115.85C492.981 118.977 491.301 122.337 489.388 125.93L488.828 126.7L493.168 125.72C493.634 127.307 494.171 129.243 494.778 131.53C494.964 132.09 495.198 132.93 495.478 134.05C496.084 133.583 496.808 132.743 497.648 131.53C499.234 129.243 501.218 125.813 503.598 121.24ZM474.548 121.73C473.801 124.997 472.704 129.15 471.258 134.19C469.811 139.183 468.528 143.29 467.408 146.51L458.518 143.99C459.824 140.49 461.201 136.267 462.648 131.32C464.141 126.327 465.214 122.22 465.868 119L474.548 121.73ZM509.898 134.75C509.478 133.023 508.848 130.9 508.008 128.38C506.234 131.367 504.764 133.653 503.598 135.24L509.898 134.75ZM486.588 130.2C485.374 132.44 484.418 134.05 483.718 135.03L485.538 134.89L489.108 134.54C488.361 131.833 487.801 129.897 487.428 128.73L486.588 130.2ZM582.444 117.81C585.944 123.783 591.45 129.617 598.964 135.31L593.154 142.66C590.774 140.84 588.44 138.647 586.154 136.08C583.867 133.467 581.79 130.667 579.924 127.68V146.65H570.964V128.38C567.697 134.027 563.497 139.02 558.364 143.36L552.344 137.2H536.454V89.53H557.454V131.6C562.26 127.12 565.9 122.523 568.374 117.81H559.204V108.5H570.964V101.08H560.464V91.84H570.964V84.07L579.924 84.35V91.84H592.594V101.08H579.924V108.5H594.974V117.81H582.444ZM544.994 127.82H549.124V98.77H544.994V127.82Z" fill="white"/>
</svg>
