<svg width="507" height="543" viewBox="0 0 507 543" fill="none" xmlns="http://www.w3.org/2000/svg">
<path d="M3.52418 51.4388C3.41402 124.963 1.96621 420.458 1.73015 493.715M1.22656 49.6133C1.77736 122.539 4.27956 417.28 5.06642 491.039" stroke="white" stroke-width="1.57371" stroke-linecap="round"/>
<path d="M1 495.705C84.3123 495.516 418.521 492.856 502.621 492.919M3.53368 494.729C87.4282 494.76 422.534 494.792 506.161 494.556" stroke="white" stroke-width="1.57371" stroke-linecap="round"/>
<path d="M94.4465 153.736C98.7585 149.449 99.9388 144.266 102.709 143.124ZM94.4465 153.736C96.335 150.995 98.79 148.167 102.709 143.124ZM95.0603 163.645C97.6727 159.604 101.701 152.875 111.584 142.439ZM95.0603 163.645C100.474 156.582 105.982 150.609 111.584 142.439ZM94.6511 174.89C101.182 163.065 108.358 152.032 119.437 143.072ZM94.6511 174.89C101.969 165.051 112.009 154.527 119.437 143.072ZM95.2806 184.799C99.9073 172.939 109.9 169.426 128.313 142.369ZM95.2806 184.799C107.776 171.305 118.383 154.017 128.313 142.369ZM94.8557 196.043C102.425 180.248 112.859 170.884 136.166 143.001ZM94.8557 196.043C109.208 179.001 122.065 161.801 136.166 143.001ZM94.4465 207.287C107.32 185.501 124.552 171.235 145.041 142.316ZM94.4465 207.287C107.681 190.632 120.57 174.819 145.041 142.316ZM95.076 217.196C116.809 192.968 133.144 164.612 152.894 142.949ZM95.076 217.196C106.076 202.965 119.39 187.17 152.894 142.949ZM94.6669 228.441C108.453 207.955 128.061 182.234 158.67 146.234ZM94.6669 228.441C111.789 206.303 127.432 186.942 158.67 146.234ZM95.2806 238.35C120.649 210.098 139.108 177.806 158.261 157.461ZM95.2806 238.35C112.371 216.827 128.454 196.798 158.261 157.461ZM94.8714 249.594C108.059 229.916 121.609 215.527 158.89 167.388ZM94.8714 249.594C107.713 231.181 121.64 214.385 158.89 167.388ZM94.4623 260.838C115.393 229.354 142.539 201.261 158.465 178.614ZM94.4623 260.838C108.421 240.827 121.53 222.854 158.465 178.614ZM95.076 270.747C110.797 246.572 132.09 230.514 159.095 188.541ZM95.076 270.747C110.672 250.103 127.904 230.443 159.095 188.541ZM94.6669 281.992C113.677 263.491 127.117 236.856 158.685 199.785ZM94.6669 281.992C113.772 256.991 130.406 236.083 158.685 199.785ZM95.2964 291.901C110.782 272.03 125.496 252.089 158.276 211.012ZM95.2964 291.901C113.756 265.529 134.261 241.354 158.276 211.012ZM94.8714 303.145C111.018 283.186 126.267 265.266 158.89 220.939ZM94.8714 303.145C110.734 280.85 125.937 260.75 158.89 220.939ZM94.4623 314.389C120.318 281.078 142.083 247.099 158.481 232.165ZM94.4623 314.389C117.438 284.434 139.423 257.078 158.481 232.165ZM95.0918 324.298C121.058 292.076 145.104 262.173 159.095 242.092ZM95.0918 324.298C118.556 295.327 140.005 267.462 159.095 242.092ZM94.6826 335.543C110.184 314.143 126.062 295.889 158.685 253.336ZM94.6826 335.543C119.972 304.41 146.159 271.099 158.685 253.336ZM95.2964 345.452C117.785 316.462 140.021 281.746 158.276 264.563ZM95.2964 345.452C109.302 327.197 126.991 303.725 158.276 264.563ZM94.8872 356.696C113.583 336.316 128.061 309.839 158.89 274.489ZM94.8872 356.696C110.404 334.629 126.031 314.776 158.89 274.489ZM94.478 367.94C107.65 349.106 124.961 327.601 158.481 285.716ZM94.478 367.94C112.953 346.119 128.045 324.298 158.481 285.716ZM95.0918 377.849C116.793 354.623 136.417 328.286 159.11 295.643ZM95.0918 377.849C109.664 361.65 122.317 344.239 159.11 295.643ZM94.6826 389.094C109.601 368.731 128.596 349.106 158.701 306.87ZM94.6826 389.094C113.331 363.003 135.017 339.847 158.701 306.87ZM95.3121 399.003C112.812 376.865 137.645 351.109 158.292 318.114ZM95.3121 399.003C117.36 369.785 139.486 341.762 158.292 318.114ZM94.8872 410.247C117.612 385.123 141.327 351.952 158.906 328.04ZM94.8872 410.247C117.989 380.063 138.196 352.058 158.906 328.04ZM94.478 421.491C110.734 394.259 133.821 375.231 158.497 339.267ZM94.478 421.491C110.152 403.219 120.979 387.372 158.497 339.267ZM95.1075 431.4C116.793 407.383 129.572 387.53 159.11 349.194ZM95.1075 431.4C120.476 397.702 143.94 365.533 159.11 349.194ZM94.6983 442.644C119.705 416.642 142.036 385.017 158.701 360.421ZM94.6983 442.644C116.337 414.253 138.322 383.647 158.701 360.421ZM95.3121 452.554C119.657 422.51 141.973 390.903 158.292 371.665ZM95.3121 452.554C110.325 432.911 124.662 415.693 158.292 371.665ZM94.9029 463.798C109.57 445.948 126.566 424.654 158.906 381.591ZM94.9029 463.798C116.762 434.405 139.282 404.326 158.906 381.591ZM94.4938 475.025C115.235 448.425 139.722 418.944 158.497 392.818ZM94.4938 475.025C116.368 446.281 139.769 414.253 158.497 392.818ZM95.1075 484.951C120.728 458.387 139.455 422.862 159.126 402.745ZM95.1075 484.951C111.883 464.905 127.856 447.23 159.126 402.745ZM95.737 494.86C118.43 460.425 143.483 429.714 158.717 413.972ZM95.737 494.86C111.317 475.991 125.622 453.59 158.717 413.972ZM104.613 494.175C118.115 478.749 132.971 457.824 158.292 425.216ZM104.613 494.175C119.107 476.957 133.947 457.789 158.292 425.216ZM112.466 494.808C124.001 484.775 131.948 469.543 158.922 435.125ZM112.466 494.808C122.6 481.824 131.177 470.896 158.922 435.125ZM120.303 495.44C126.629 486.55 135.316 471.37 158.512 446.369ZM120.303 495.44C134.214 478.574 145.026 462.427 158.512 446.369ZM129.194 494.737C138.841 481.982 151.84 468.137 159.126 456.296ZM129.194 494.737C135.111 488.061 142.193 479.733 159.126 456.296ZM137.031 495.37C140.934 483.511 148.33 476.904 158.717 467.523ZM137.031 495.37C143.609 486.585 150.707 479.101 158.717 467.523ZM145.923 494.685C150.612 487.569 156.687 484.108 158.308 478.767ZM145.923 494.685C151.604 488.184 156.467 482.825 158.308 478.767ZM153.76 495.317C154.326 492.998 156.986 492.26 158.922 488.676ZM153.76 495.317C155.869 492.33 157.537 490.362 158.922 488.676ZM104.676 494.087C102.048 490.573 96.7442 487.938 95.1705 484.863ZM104.676 494.087C101.371 491.311 97.6097 487.358 95.1705 484.863ZM113.551 493.402C107.272 487.411 104.125 482.667 94.5567 474.954ZM113.551 493.402C108.846 488.184 102.96 484.125 94.5567 474.954ZM123.623 493.859C110.797 487.481 104.786 477.414 95.1232 466.187ZM123.623 493.859C115.267 486.058 109.287 478.275 95.1232 466.187ZM133.695 494.316C122.899 484.477 112.875 475.499 94.4938 456.278ZM133.695 494.316C121.326 483.651 112.45 473.18 94.4938 456.278ZM142.571 493.63C130.06 481.367 124.032 471.88 95.0603 447.511ZM142.571 493.63C131.948 482.544 121.499 474.269 95.0603 447.511ZM152.642 494.087C136.103 472.67 116.258 460.161 94.4465 437.602ZM152.642 494.087C134.025 475.885 115.786 459.37 94.4465 437.602ZM159.142 491.083C133.396 471.669 109.413 448.583 95.0131 428.835ZM159.142 491.083C137.488 469.965 114.37 450.744 95.0131 428.835ZM158.528 481.174C144.396 467.031 129.304 452.87 94.3836 418.926ZM158.528 481.174C140.226 463.078 119.925 443.804 94.3836 418.926ZM159.095 472.407C134.167 450.322 114.653 432.454 94.9501 410.159ZM159.095 472.407C143.31 457.947 130.894 443.927 94.9501 410.159ZM158.465 462.498C145.199 448.161 125.118 430.346 94.3364 400.25ZM158.465 462.498C141.485 447.002 125.795 433.526 94.3364 400.25ZM159.032 453.731C135.284 431.277 114.385 407.33 94.9029 391.483ZM159.032 453.731C133.6 431.593 110.435 406.733 94.9029 391.483ZM158.418 443.822C147.953 427.957 130.264 413.62 94.2734 381.574ZM158.418 443.822C132.31 418.294 106.58 393.257 94.2734 381.574ZM158.984 435.055C144.711 419.172 128.344 402.341 94.84 372.807ZM158.984 435.055C138.841 415.096 120.806 395.963 94.84 372.807ZM158.355 425.146C136.575 407.682 120.46 388.514 95.4065 364.057ZM158.355 425.146C141.438 407.049 121.845 388.865 95.4065 364.057ZM158.922 416.379C141.642 400.25 126.015 380.362 94.7928 354.131ZM158.922 416.379C144.459 401.884 129.336 389.199 94.7928 354.131ZM158.308 406.469C136.449 380.906 110.325 362.125 95.3593 345.381ZM158.308 406.469C136.811 387.108 119.941 367.905 95.3593 345.381ZM158.874 397.702C133.569 379.325 116.4 352.725 94.7298 335.455ZM158.874 397.702C142.791 382.558 128.108 369.205 94.7298 335.455ZM158.245 387.793C145.026 369.416 129.32 354.5 95.2964 326.705ZM158.245 387.793C136.638 368.081 115.629 347.648 95.2964 326.705ZM158.811 379.026C132.326 354.992 110.656 329.727 94.6826 316.779ZM158.811 379.026C140.116 362.511 122.097 341.78 94.6826 316.779ZM158.198 369.117C141.469 354.271 123.513 332.415 95.2491 308.029ZM158.198 369.117C140.84 351.654 122.647 336.368 95.2491 308.029ZM158.764 360.35C133.506 335.086 108.122 314.846 94.6354 298.103ZM158.764 360.35C135.457 338.986 110.923 314.319 94.6354 298.103ZM158.15 350.441C138.495 330.518 114.574 313.265 95.2019 289.353ZM158.15 350.441C134.922 329.71 113.961 305.534 95.2019 289.353ZM158.717 341.674C141.028 322.576 120.696 304.744 94.5724 279.426ZM158.717 341.674C132.31 316.831 107.115 292.463 94.5724 279.426ZM158.087 331.765C147.528 320.328 133.506 309.61 95.139 270.677ZM158.087 331.765C142.429 318.448 127.652 300.966 95.139 270.677ZM158.654 322.998C135.41 300.281 115.786 275.631 94.5252 260.75ZM158.654 322.998C139.722 305.534 121.168 285.681 94.5252 260.75ZM158.04 313.089C142.004 295.959 121.042 273.734 95.0918 252.001ZM158.04 313.089C140.824 297.716 126.298 280.727 95.0918 252.001ZM158.607 304.322C143.562 290.636 131.035 278.689 94.4623 242.074ZM158.607 304.322C137.015 285.33 116.652 264.528 94.4623 242.074ZM159.173 295.555C148.74 281.658 131.98 270.677 95.0288 233.325ZM159.173 295.555C144.349 281.64 129.792 265.863 95.0288 233.325ZM158.544 285.646C132.703 262.771 109.995 239.035 94.4151 223.398ZM158.544 285.646C136.764 263.702 114.747 243.884 94.4151 223.398ZM159.11 276.879C132.404 252.071 107.178 230.426 94.9816 214.649ZM159.11 276.879C143.782 262.859 127.935 247.327 94.9816 214.649ZM158.497 266.97C132.877 240.44 108.578 217.706 94.3521 204.722ZM158.497 266.97C136.008 245.623 116.667 224.821 94.3521 204.722ZM159.063 258.203C138.825 234.59 117.045 215.984 94.9187 195.973ZM159.063 258.203C144.412 245.571 132.467 231.339 94.9187 195.973ZM158.434 248.294C136.543 224.892 117.202 206.989 94.3049 186.046ZM158.434 248.294C136.858 227.826 118.084 206.426 94.3049 186.046ZM159 239.527C137.393 216.529 115.157 191.861 94.8714 177.297ZM159 239.527C136.89 215.387 111.018 192.652 94.8714 177.297ZM158.386 229.618C141.611 212.558 130.264 198.063 95.438 168.53ZM158.386 229.618C144.412 217.811 132.515 203.475 95.438 168.53ZM158.953 220.851C146.08 207.902 133.899 194.725 94.8085 158.62ZM158.953 220.851C132.546 195.41 107.949 173.062 94.8085 158.62ZM158.324 210.942C140.682 195.92 121.278 177.103 95.375 149.853ZM158.324 210.942C136.496 188.734 115.629 166.632 95.375 149.853ZM158.89 202.175C140.761 185.66 129.918 168.371 97.1376 142.246ZM158.89 202.175C144.286 188.681 130.579 174.573 97.1376 142.246ZM158.276 192.266C137.865 172.535 122.679 156.02 107.209 142.703ZM158.276 192.266C137.85 171.358 118.666 154.474 107.209 142.703ZM158.843 183.498C146.206 168.705 130.736 159.235 116.085 142ZM158.843 183.498C145.482 170.234 130.721 157.215 116.085 142ZM158.213 173.589C146.473 167.019 140.714 156.881 126.157 142.474ZM158.213 173.589C151.006 164.77 141.988 159.077 126.157 142.474ZM158.78 164.822C154.861 162.802 147.087 157.039 136.229 142.931ZM158.78 164.822C149.401 158.568 143.121 149.625 136.229 142.931ZM158.166 154.913C155.648 151.224 154.2 148.606 145.104 142.228ZM158.166 154.913C155.381 150.995 151.651 148.237 145.104 142.228ZM158.733 146.146C157.442 145.303 156.608 144.794 155.176 142.685ZM158.733 146.146C157.678 145.321 157.065 144.46 155.176 142.685Z" stroke="#0197D7" stroke-width="0.786856" stroke-linecap="round"/>
<path d="M94.8555 142.493C105.289 146.006 123.513 146.358 157.804 142.493M94.8555 142.493C108.232 143.178 121.687 141.421 157.804 142.493M94.8555 142.493C96.9013 243.762 95.721 365.27 94.8555 493.877M94.8555 142.493C97.1688 235.205 99.2776 363.021 94.8555 493.877M157.804 142.493C156.828 222.591 161.534 297.84 157.804 493.877M157.804 142.493C156.372 215.932 154.719 290.285 157.804 493.877M157.804 493.877C143.31 496.495 120.837 492.015 94.8555 493.877M157.804 493.877C143.027 493.508 126.644 494.791 94.8555 493.877" stroke="white" stroke-width="1.57371" stroke-linecap="round"/>
<path d="M283.292 211.772C284.111 207.91 286.739 206.255 291.554 200.664ZM283.292 211.772C285.039 209.418 287.384 205.28 291.554 200.664ZM283.906 222.144C288.407 213.703 294.969 205.758 300.43 199.947ZM283.906 222.144C290.531 214.236 295.457 205.979 300.43 199.947ZM283.497 233.914C291.554 217.914 302.948 207.983 308.283 200.609ZM283.497 233.914C291.46 225.16 295.19 217.215 308.283 200.609ZM284.126 244.286C293.301 236.194 301.469 222.585 317.159 199.873ZM284.126 244.286C291.586 232.203 299.8 221.206 317.159 199.873ZM283.701 256.055C295.63 238.842 313.366 217.822 325.011 200.535ZM283.701 256.055C292.357 244.396 301.595 230.787 325.011 200.535ZM283.292 267.825C302.932 245.15 318.433 216.737 333.887 199.818ZM283.292 267.825C298.368 248.184 315.239 227.44 333.887 199.818ZM283.922 278.197C304.112 247.394 322.997 222.88 341.74 200.48ZM283.922 278.197C298.557 259.899 310.675 241.711 341.74 200.48ZM283.513 289.967C306.205 257.067 327.152 229.187 347.515 203.919ZM283.513 289.967C301.154 266.63 319.377 242.557 347.515 203.919ZM284.126 300.339C306.127 265.545 330.047 233.822 347.106 215.671ZM284.126 300.339C298.557 281.195 310.612 261.793 347.106 215.671ZM283.717 312.109C302.743 286.933 320.951 258.446 347.736 226.061ZM283.717 312.109C305.482 282.942 328.914 252.193 347.736 226.061ZM283.308 323.878C309.825 291.512 328.835 262.989 347.311 237.812ZM283.308 323.878C304.018 294.105 326.475 263.871 347.311 237.812ZM283.922 334.25C300.619 319.171 311.525 296.974 347.94 248.203ZM283.922 334.25C305.812 307.29 325.2 276.763 347.94 248.203ZM283.513 346.02C308.361 307.75 333.604 280.165 347.531 259.973ZM283.513 346.02C306.504 316.063 329.496 281.287 347.531 259.973ZM284.142 356.392C305.135 326.839 326.113 302.344 347.122 271.724ZM284.142 356.392C302.523 332.54 318.386 309.129 347.122 271.724ZM283.717 368.162C309.731 335.758 332.754 299.18 347.736 282.114ZM283.717 368.162C304.254 338.811 327.671 313.488 347.736 282.114ZM283.308 379.932C304.16 346.48 329.355 317.423 347.327 293.866ZM283.308 379.932C300.304 357.201 319.881 332.448 347.327 293.866ZM283.937 390.304C309.211 358.434 331.29 326.545 347.94 304.256ZM283.937 390.304C300.76 367.574 317.096 345.34 347.94 304.256ZM283.528 402.073C298.321 383.26 320.038 355.381 347.531 316.026ZM283.528 402.073C299.675 380.962 314.908 362.682 347.531 316.026ZM284.142 412.446C305.025 378.828 328.489 354.167 347.122 327.777ZM284.142 412.446C301.437 388.722 316.372 369.891 347.122 327.777ZM283.733 424.215C301.5 395.674 322.541 372.428 347.736 338.168ZM283.733 424.215C301.941 399.168 321.187 375.224 347.736 338.168ZM283.324 435.985C304.128 408.234 325.499 376.787 347.327 349.919ZM283.324 435.985C295.599 417.374 308.897 400.014 347.327 349.919ZM283.937 446.357C299.423 427.213 311.289 404.538 347.956 360.309ZM283.937 446.357C298.73 426.367 313.413 404.225 347.956 360.309ZM283.528 458.127C302.082 436.813 320.526 409.154 347.547 372.061ZM283.528 458.127C301.437 437.53 316.922 414.395 347.547 372.061ZM284.158 468.499C300.619 452.518 313.271 430.192 347.138 383.83ZM284.158 468.499C299.974 446.688 318.213 423.958 347.138 383.83ZM283.733 480.269C304.286 452.904 321.203 434.256 347.751 394.221ZM283.733 480.269C306.567 447.847 331.936 415.756 347.751 394.221ZM283.324 492.038C304.349 470.007 319.85 439.755 347.342 405.972ZM283.324 492.038C294.45 475.487 309.101 455.497 347.342 405.972ZM290.138 494.08C302.617 476.241 323.768 451.157 347.956 416.363ZM290.138 494.08C311.336 462.982 335.13 433.594 347.956 416.363ZM297.991 494.742C310.14 479.588 322.021 467.138 347.547 428.114ZM297.991 494.742C314.279 470.798 333.368 449.134 347.547 428.114ZM306.866 494.024C317.442 477.878 326.302 462.522 347.138 439.884ZM306.866 494.024C317.757 479.846 329.906 463.809 347.138 439.884ZM314.719 494.686C329.512 477.731 342.291 460.591 347.751 450.274ZM314.719 494.686C326.302 477.455 339.883 463.276 347.751 450.274ZM323.595 493.951C334.501 482.439 342.039 472.894 347.342 462.025ZM323.595 493.951C331.951 480.912 343.188 470.062 347.342 462.025ZM331.448 494.613C333.494 487.33 338.262 482.108 347.972 472.416ZM331.448 494.613C336.012 491.247 339.568 484.333 347.972 472.416ZM340.324 493.896C341.693 490.53 343.518 489.666 347.563 484.167ZM340.324 493.896C342.495 490.126 345.013 486.558 347.563 484.167ZM293.805 494.76C289.461 489.464 286.77 487.275 283.119 483.91ZM293.805 494.76C290.72 490.365 286.99 487.22 283.119 483.91ZM302.68 494.043C295.961 489.942 291.885 483.027 283.686 474.733ZM302.68 494.043C294.529 487.055 287.368 479.515 283.686 474.733ZM312.752 494.521C303.483 482.862 299.376 475.745 284.252 465.556ZM312.752 494.521C303.813 486.153 295.205 476.774 284.252 465.556ZM321.628 493.785C313.98 486.19 309.589 476.131 283.623 455.184ZM321.628 493.785C311.43 483.781 297.629 470.945 283.623 455.184ZM331.7 494.282C320.117 484.13 303.782 466.421 284.189 446.008ZM331.7 494.282C315.144 475.855 297.33 459.984 284.189 446.008ZM341.771 494.76C332.187 486.687 321.203 471.864 283.576 435.636ZM341.771 494.76C323.925 473.483 304.585 453.4 283.576 435.636ZM348.271 491.615C333.667 471.441 313.35 458.495 284.142 426.459ZM348.271 491.615C329.339 469.418 310.203 451.58 284.142 426.459ZM348.837 482.439C325.908 463.405 309.951 442.716 283.528 416.087ZM348.837 482.439C330.991 465.115 315.695 449.612 283.528 416.087ZM348.224 472.067C328.867 449.888 304.27 424.436 284.095 406.91ZM348.224 472.067C324.933 449.962 302.13 426.496 284.095 406.91ZM348.79 462.89C323.705 438.78 295.961 413.788 283.465 396.538ZM348.79 462.89C330.126 441.484 308.818 424.289 283.465 396.538ZM348.176 452.518C331.353 436.702 314.231 422.156 284.032 387.361ZM348.176 452.518C332.345 435.249 313.555 418.551 284.032 387.361ZM348.743 443.341C338.152 428.408 319.236 414.413 283.418 376.989ZM348.743 443.341C322.903 417.006 298.746 390.819 283.418 376.989ZM348.113 432.969C335.366 422.045 320.479 407.922 283.985 367.813ZM348.113 432.969C334.233 419.894 322.824 406.855 283.985 367.813ZM348.68 423.792C328.064 409.135 313.224 388.759 283.355 357.441ZM348.68 423.792C328.678 406.597 310.077 385.173 283.355 357.441ZM348.066 413.42C331.117 396.796 319.566 386.423 283.922 348.264ZM348.066 413.42C331.684 397.733 316.199 382.065 283.922 348.264ZM348.633 404.244C335.13 393.743 319.708 373.881 283.308 337.892ZM348.633 404.244C334.469 389.182 317.127 372.557 283.308 337.892ZM348.003 393.871C324.099 370.185 302.523 349.312 283.875 328.715ZM348.003 393.871C326.129 373.679 307.653 350.691 283.875 328.715ZM348.57 384.695C323.265 354.737 298.809 333.441 283.245 318.343ZM348.57 384.695C324.476 359.316 299.911 335.17 283.245 318.343ZM347.956 374.323C330.85 354.792 320.196 345.027 283.812 309.166ZM347.956 374.323C332.754 358.599 317.52 344.806 283.812 309.166ZM348.523 365.146C328.898 341.938 308.629 321.23 283.198 298.794ZM348.523 365.146C332.785 347.105 316.749 333.405 283.198 298.794ZM347.893 354.774C334.359 341.22 317.961 322.095 283.764 289.618ZM347.893 354.774C331.999 338.94 317.143 323.161 283.764 289.618ZM348.46 345.597C324.02 316.063 294.387 292.376 283.135 279.245ZM348.46 345.597C326.475 324.651 305.34 300.891 283.135 279.245ZM349.026 336.439C329.087 318.214 313.728 302.38 283.701 270.069ZM349.026 336.439C333.069 318.03 314.877 301.038 283.701 270.069ZM348.412 326.048C325.609 298.059 296.936 276.855 284.268 260.91ZM348.412 326.048C326.522 304.403 302.334 278.97 284.268 260.91ZM348.979 316.89C329.984 291.971 307.055 272.57 283.654 250.52ZM348.979 316.89C325.531 293.81 305.419 269.958 283.654 250.52ZM348.349 306.5C335.776 291.751 319.299 278.032 284.221 241.343ZM348.349 306.5C329.937 286.528 310.958 270.234 284.221 241.343ZM348.916 297.341C334.926 280.956 322.084 271.485 283.591 230.971ZM348.916 297.341C326.538 275.935 306.19 252.12 283.591 230.971ZM348.302 286.951C328.175 270.014 316.214 249.049 284.158 221.795ZM348.302 286.951C322.368 261.223 297.723 236.268 284.158 221.795ZM348.869 277.793C325.468 259.237 306.788 237.114 283.544 211.422ZM348.869 277.793C325.704 251.256 299.171 229.334 283.544 211.422ZM348.239 267.402C325.767 243.642 308.802 224.939 284.111 202.246ZM348.239 267.402C334.265 254.437 320.4 240.166 284.111 202.246ZM348.806 258.225C326.27 237.169 297.613 210.944 287.053 195.497ZM348.806 258.225C331.275 239.412 314.011 220.875 287.053 195.497ZM348.192 247.853C337.633 231.817 324.319 220.765 297.125 195.975ZM348.192 247.853C332.927 232.075 315.569 215.836 297.125 195.975ZM348.759 238.677C336.94 223.523 323.013 211.018 306.001 195.257ZM348.759 238.677C335.351 223.468 318.355 207.744 306.001 195.257ZM348.145 228.305C340.78 222.659 332.471 210.356 316.073 195.736ZM348.145 228.305C335.256 215.634 321.817 201.86 316.073 195.736ZM348.711 219.128C339.521 211.57 330.881 200.315 324.948 195ZM348.711 219.128C342.322 212.011 336.185 204.213 324.948 195ZM348.082 208.756C345.47 206.641 341.425 202.117 335.02 195.497ZM348.082 208.756C344.069 204.747 339.489 198.862 335.02 195.497Z" stroke="#F7B530" stroke-width="0.786856" stroke-linecap="round"/>
<path d="M283.702 200.005C300.745 202.874 309.479 202.893 346.65 200.005M283.702 200.005C301.91 198.553 319.425 200.208 346.65 200.005M283.702 200.005C286.424 322.135 284.741 413.534 283.702 494.248M283.702 200.005C280.649 367.54 280.838 432.844 283.702 494.248M346.65 200.005C348.145 295.303 342.354 391.668 346.65 494.248M346.65 200.005C347.862 264.739 348.051 328.498 346.65 494.248M346.65 494.248C324.634 492.685 305.136 494.322 283.702 494.248M346.65 494.248C324.398 494.524 303.326 493.053 283.702 494.248" stroke="white" stroke-width="1.57371" stroke-linecap="round"/>
<path d="M201.355 148.582C207.934 150.187 231.697 152.8 241.69 157.867C251.698 162.935 257.93 175.556 261.361 178.955M200.27 148C206.643 149.715 230.469 153.351 240.95 158.686C251.415 164.02 259.488 176.657 263.092 180.009" stroke="#E03131" stroke-width="3.14742" stroke-linecap="round"/>
<path d="M250.58 173.055C255.789 175.699 260.007 178.012 263.091 180.01ZM250.58 173.055C254.813 175.683 258.543 177.304 263.091 180.01Z" stroke="#E03131" stroke-width="3.14742" stroke-linecap="round"/>
<path d="M257.977 166.633C260.258 171.81 261.565 176.673 263.091 180.009ZM257.977 166.633C259.818 171.338 261.14 175.036 263.091 180.009Z" stroke="#E03131" stroke-width="3.14742" stroke-linecap="round"/>
<path d="M101.347 103.605C101.736 103.605 102.246 103.897 102.878 104.48C103.51 105.039 103.826 105.562 103.826 106.048C103.826 108.235 103.121 111.686 101.711 116.401C100.302 121.092 99.196 123.437 98.3939 123.437C98.1266 123.437 97.8592 123.267 97.5919 122.927C97.3488 122.563 97.2273 122.186 97.2273 121.797C97.2273 121.384 97.3367 120.8 97.5554 120.047C97.7742 119.294 98.078 118.297 98.4668 117.058C98.88 115.818 99.2203 114.664 99.4876 113.594C97.1787 114.639 94.9792 115.162 92.889 115.162C91.4793 115.162 90.2884 114.749 89.3162 113.922C88.3683 113.072 87.8944 111.905 87.8944 110.422C87.8944 109.353 88.2954 108.004 89.0975 106.376C89.9238 104.723 90.8596 103.204 91.9046 101.819C92.9497 100.409 93.9827 99.1938 95.0035 98.173C96.0242 97.1279 96.7291 96.6054 97.1179 96.6054C97.5311 96.6054 97.92 96.7512 98.2846 97.0429C98.6734 97.3345 98.8679 97.6626 98.8679 98.0272C98.8679 98.3674 98.2238 99.3032 96.9357 100.834C95.6475 102.341 94.3594 104.018 93.0713 105.865C91.7831 107.713 91.1391 109.183 91.1391 110.277C91.1391 111.613 91.8196 112.282 93.1806 112.282C94.3472 112.282 95.7812 111.966 97.4825 111.334C99.2081 110.702 100.095 110.374 100.144 110.35C100.436 108.381 100.581 106.522 100.581 104.772C100.581 103.994 100.837 103.605 101.347 103.605ZM121.427 103.605C121.815 103.605 122.326 103.897 122.958 104.48C123.59 105.039 123.906 105.562 123.906 106.048C123.906 108.235 123.201 111.686 121.791 116.401C120.381 121.092 119.276 123.437 118.474 123.437C118.206 123.437 117.939 123.267 117.672 122.927C117.428 122.563 117.307 122.186 117.307 121.797C117.307 121.384 117.416 120.8 117.635 120.047C117.854 119.294 118.158 118.297 118.546 117.058C118.96 115.818 119.3 114.664 119.567 113.594C117.258 114.639 115.059 115.162 112.969 115.162C111.559 115.162 110.368 114.749 109.396 113.922C108.448 113.072 107.974 111.905 107.974 110.422C107.974 109.353 108.375 108.004 109.177 106.376C110.003 104.723 110.939 103.204 111.984 101.819C113.029 100.409 114.062 99.1938 115.083 98.173C116.104 97.1279 116.809 96.6054 117.198 96.6054C117.611 96.6054 118 96.7512 118.364 97.0429C118.753 97.3345 118.948 97.6626 118.948 98.0272C118.948 98.3674 118.303 99.3032 117.015 100.834C115.727 102.341 114.439 104.018 113.151 105.865C111.863 107.713 111.219 109.183 111.219 110.277C111.219 111.613 111.899 112.282 113.26 112.282C114.427 112.282 115.861 111.966 117.562 111.334C119.288 110.702 120.175 110.374 120.223 110.35C120.515 108.381 120.661 106.522 120.661 104.772C120.661 103.994 120.916 103.605 121.427 103.605ZM130.715 123.219C130.107 123.219 129.415 122.83 128.637 122.052C127.859 121.25 127.47 120.594 127.47 120.083C127.47 119.549 127.677 119.026 128.09 118.516C128.528 117.981 128.965 117.714 129.403 117.714C129.864 117.714 130.387 118.309 130.97 119.5C131.578 120.691 131.882 121.59 131.882 122.198C131.882 122.392 131.748 122.611 131.481 122.854C131.213 123.097 130.958 123.219 130.715 123.219ZM143.96 99.2667C143.96 101.867 143.34 105.61 142.101 110.495C141.833 111.468 141.529 112.671 141.189 114.105C140.849 115.539 140.569 116.693 140.351 117.568C140.132 118.419 139.889 119.281 139.622 120.156C139.135 121.882 138.662 122.745 138.2 122.745C137.86 122.745 137.495 122.502 137.106 122.016C136.741 121.53 136.559 121.031 136.559 120.521C136.559 119.986 136.814 118.722 137.325 116.729C137.86 114.736 138.455 112.014 139.111 108.563C139.767 105.112 140.217 101.478 140.46 97.6626C140.533 96.9092 140.812 96.5325 141.299 96.5325C141.833 96.5325 142.404 96.8727 143.012 97.5532C143.644 98.2338 143.96 98.8049 143.96 99.2667ZM161.731 96.4231C163.627 96.4231 165.061 96.812 166.033 97.5897C167.005 98.3674 167.491 99.4125 167.491 100.725C167.491 102.013 166.859 103.374 165.595 104.808C164.331 106.218 162.569 107.822 160.309 109.62C162.569 111.759 163.699 113.582 163.699 115.089C163.699 116.28 163.165 117.446 162.095 118.589C161.05 119.707 159.774 120.594 158.267 121.25C156.785 121.882 155.436 122.198 154.221 122.198C153.006 122.198 151.802 121.76 150.612 120.886C149.445 119.986 148.862 118.978 148.862 117.86C148.862 116.742 149.457 115.502 150.648 114.141C151.839 112.756 153.492 111.2 155.606 109.475C152.082 106.752 150.016 104.942 149.408 104.043C149.068 103.556 148.898 103.107 148.898 102.694C148.898 102.256 148.959 101.831 149.08 101.418C149.226 100.98 149.408 100.761 149.627 100.761C149.846 100.761 150.15 100.968 150.539 101.381C150.928 101.77 151.28 102.122 151.596 102.438C151.936 102.754 152.471 103.216 153.2 103.824C153.953 104.431 154.804 105.1 155.752 105.829C156.7 106.558 157.429 107.141 157.939 107.579C159.373 106.437 160.455 105.549 161.184 104.917C161.913 104.286 162.606 103.569 163.262 102.767C163.943 101.965 164.283 101.296 164.283 100.761C164.283 99.8379 163.663 99.3761 162.424 99.3761C161.208 99.3761 159.811 99.6799 158.231 100.287C156.651 100.871 155.691 101.162 155.351 101.162C155.011 101.162 154.573 100.98 154.038 100.616C153.528 100.251 153.273 99.8986 153.273 99.5584C153.273 98.8292 154.209 98.1244 156.08 97.4439C157.951 96.7634 159.835 96.4231 161.731 96.4231ZM160.418 114.615C160.418 113.934 159.616 112.877 158.012 111.443C156.7 112.488 155.691 113.315 154.986 113.922C154.282 114.506 153.625 115.162 153.018 115.891C152.41 116.62 152.106 117.216 152.106 117.677C152.106 118.115 152.313 118.516 152.726 118.88C153.164 119.245 153.637 119.427 154.148 119.427C155.485 119.427 156.858 118.941 158.267 117.969C159.701 116.972 160.418 115.854 160.418 114.615Z" fill="white"/>
<path d="M288.593 176.386C290.503 176.638 292.024 177.11 293.157 177.802C294.29 178.495 294.856 179.418 294.856 180.572C294.856 181.705 294.185 182.828 292.842 183.94C291.52 185.052 289.905 185.923 287.995 186.552C286.107 187.182 284.187 187.496 282.235 187.496C280.305 187.496 279.34 187.14 279.34 186.426C279.34 186.237 279.959 185.996 281.197 185.702C282.456 185.388 283.83 185.062 285.32 184.727C286.81 184.37 288.173 183.814 289.411 183.059C290.67 182.282 291.3 181.39 291.3 180.383C291.3 179.838 290.922 179.397 290.167 179.061C289.411 178.705 288.572 178.453 287.649 178.306C285.215 177.949 283.998 177.53 283.998 177.047C283.998 176.879 284.029 176.753 284.092 176.669C284.26 176.376 284.795 175.966 285.697 175.442C286.6 174.917 287.512 174.403 288.436 173.9C289.38 173.396 290.24 172.735 291.017 171.917C291.793 171.098 292.181 170.27 292.181 169.43C292.181 168.444 291.646 167.951 290.576 167.951C289.716 167.951 288.625 168.297 287.303 168.99C285.981 169.661 285.225 169.997 285.036 169.997C284.869 169.997 284.543 169.776 284.061 169.336C283.578 168.874 283.337 168.528 283.337 168.297C283.337 167.668 284.187 167.017 285.886 166.346C287.607 165.674 289.128 165.339 290.45 165.339C291.772 165.339 292.884 165.79 293.786 166.692C294.71 167.594 295.171 168.633 295.171 169.808C295.171 170.962 294.51 172.147 293.188 173.364C291.866 174.561 290.335 175.568 288.593 176.386ZM299.366 166.44C299.366 166.23 300.227 166 301.947 165.748C303.689 165.496 305.388 165.37 307.046 165.37C308.725 165.37 309.784 165.517 310.225 165.811C310.582 166.083 310.886 166.524 311.138 167.133C311.411 167.72 311.547 168.203 311.547 168.58C311.547 168.958 311.442 169.388 311.232 169.871C311.043 170.332 310.76 170.899 310.382 171.57C310.005 172.221 309.627 172.85 309.249 173.459C308.893 174.046 308.462 174.749 307.959 175.568C307.455 176.365 306.973 177.162 306.511 177.96C306.049 178.736 305.273 180.121 304.182 182.114C303.112 184.108 302.314 185.524 301.79 186.363C301.286 187.182 300.898 187.591 300.625 187.591C300.353 187.591 300.09 187.402 299.838 187.024C299.587 186.626 299.461 186.237 299.461 185.86C299.461 185.167 300.237 183.51 301.79 180.887C303.343 178.243 304.895 175.652 306.448 173.113C308.022 170.553 308.809 169.053 308.809 168.612C308.809 168.234 308.452 168.045 307.739 168.045C307.046 168.045 305.923 168.161 304.371 168.392C302.839 168.622 301.863 168.738 301.444 168.738C301.024 168.738 300.573 168.455 300.09 167.888C299.608 167.3 299.366 166.818 299.366 166.44ZM315.322 188.189C314.797 188.189 314.199 187.853 313.528 187.182C312.856 186.489 312.521 185.923 312.521 185.482C312.521 185.02 312.699 184.569 313.056 184.129C313.433 183.667 313.811 183.436 314.189 183.436C314.587 183.436 315.039 183.95 315.542 184.978C316.067 186.007 316.329 186.783 316.329 187.308C316.329 187.475 316.214 187.664 315.983 187.874C315.752 188.084 315.532 188.189 315.322 188.189ZM332.107 171.256C332.443 171.256 332.884 171.508 333.429 172.011C333.975 172.494 334.247 172.945 334.247 173.364C334.247 175.253 333.639 178.232 332.422 182.303C331.205 186.353 330.25 188.378 329.558 188.378C329.327 188.378 329.096 188.231 328.865 187.937C328.656 187.622 328.551 187.297 328.551 186.961C328.551 186.605 328.645 186.101 328.834 185.451C329.023 184.8 329.285 183.94 329.621 182.87C329.977 181.8 330.271 180.803 330.502 179.88C328.509 180.782 326.61 181.233 324.805 181.233C323.588 181.233 322.56 180.876 321.721 180.163C320.902 179.429 320.493 178.421 320.493 177.141C320.493 176.218 320.839 175.054 321.532 173.648C322.245 172.221 323.053 170.909 323.955 169.713C324.858 168.496 325.749 167.447 326.631 166.566C327.512 165.664 328.12 165.213 328.456 165.213C328.813 165.213 329.149 165.339 329.463 165.59C329.799 165.842 329.967 166.125 329.967 166.44C329.967 166.734 329.411 167.542 328.299 168.864C327.187 170.165 326.075 171.612 324.963 173.207C323.85 174.802 323.294 176.071 323.294 177.015C323.294 178.17 323.882 178.747 325.057 178.747C326.064 178.747 327.302 178.474 328.771 177.928C330.261 177.383 331.027 177.099 331.069 177.078C331.32 175.379 331.446 173.774 331.446 172.263C331.446 171.591 331.667 171.256 332.107 171.256ZM338.678 166.44C338.678 166.23 339.539 166 341.259 165.748C343.001 165.496 344.7 165.37 346.358 165.37C348.037 165.37 349.096 165.517 349.537 165.811C349.894 166.083 350.198 166.524 350.45 167.133C350.723 167.72 350.859 168.203 350.859 168.58C350.859 168.958 350.754 169.388 350.544 169.871C350.355 170.332 350.072 170.899 349.694 171.57C349.317 172.221 348.939 172.85 348.561 173.459C348.205 174.046 347.774 174.749 347.271 175.568C346.767 176.365 346.285 177.162 345.823 177.96C345.361 178.736 344.585 180.121 343.494 182.114C342.424 184.108 341.627 185.524 341.102 186.363C340.598 187.182 340.21 187.591 339.937 187.591C339.665 187.591 339.402 187.402 339.151 187.024C338.899 186.626 338.773 186.237 338.773 185.86C338.773 185.167 339.549 183.51 341.102 180.887C342.655 178.243 344.207 175.652 345.76 173.113C347.334 170.553 348.121 169.053 348.121 168.612C348.121 168.234 347.764 168.045 347.051 168.045C346.358 168.045 345.236 168.161 343.683 168.392C342.151 168.622 341.175 168.738 340.756 168.738C340.336 168.738 339.885 168.455 339.402 167.888C338.92 167.3 338.678 166.818 338.678 166.44Z" fill="white"/>
<path d="M107.832 516.682C107.832 517.61 107.7 518.656 107.434 519.819C107.169 520.968 106.919 521.992 106.683 522.891C106.447 523.789 106.234 524.658 106.042 525.498C105.866 526.338 105.711 527.023 105.578 527.553C105.46 528.069 105.32 528.599 105.158 529.144C104.834 530.19 104.481 530.713 104.098 530.713C103.759 530.713 103.369 530.499 102.927 530.072C102.5 529.63 102.286 529.232 102.286 528.879C102.286 528.525 102.448 527.715 102.772 526.448C103.096 525.181 103.42 523.524 103.744 521.477C104.083 519.414 104.253 517.271 104.253 515.047C104.253 514.619 104.466 514.406 104.893 514.406C105.335 514.406 105.932 514.715 106.683 515.334C107.449 515.953 107.832 516.402 107.832 516.682ZM118.963 520.062C118.963 520.504 118.779 520.99 118.411 521.521C117.969 522.596 117.667 523.384 117.505 523.885C117.343 524.386 117.078 525.343 116.709 526.758C116.341 528.157 116.024 529.225 115.759 529.961C115.494 530.698 115.229 531.066 114.964 531.066C114.301 531.066 113.969 530.227 113.969 528.547C113.969 527.428 114.161 526.065 114.544 524.46C113.911 524.71 113.336 524.835 112.82 524.835C112.128 524.835 111.384 524.423 110.589 523.598C109.793 522.758 109.396 522.014 109.396 521.366C109.396 520.305 109.683 519.223 110.257 518.118C110.832 517.013 111.561 516.107 112.445 515.4C113.329 514.678 114.22 514.317 115.118 514.317C116.017 514.317 116.702 514.664 117.173 515.356C117.645 516.048 117.88 516.829 117.88 517.698C117.88 518.199 117.844 518.604 117.77 518.913C118.389 519.031 118.757 519.319 118.875 519.775C118.934 519.849 118.963 519.945 118.963 520.062ZM115.207 519.753L115.295 518.251C115.295 517.985 115.244 517.735 115.141 517.499C115.037 517.249 114.927 517.124 114.809 517.124C114.456 517.124 113.911 517.654 113.174 518.715C112.437 519.775 112.069 520.666 112.069 521.388C112.069 521.609 112.165 521.815 112.356 522.007C112.563 522.198 112.806 522.294 113.086 522.294C113.366 522.294 113.69 522.176 114.058 521.941C114.441 521.69 114.735 521.454 114.942 521.234C115.148 521.013 115.443 520.681 115.826 520.239C115.413 520.151 115.207 519.989 115.207 519.753ZM130.141 520.062C130.141 520.504 129.957 520.99 129.588 521.521C129.146 522.596 128.844 523.384 128.682 523.885C128.52 524.386 128.255 525.343 127.887 526.758C127.519 528.157 127.202 529.225 126.937 529.961C126.672 530.698 126.406 531.066 126.141 531.066C125.478 531.066 125.147 530.227 125.147 528.547C125.147 527.428 125.339 526.065 125.722 524.46C125.088 524.71 124.514 524.835 123.998 524.835C123.306 524.835 122.562 524.423 121.766 523.598C120.971 522.758 120.573 522.014 120.573 521.366C120.573 520.305 120.86 519.223 121.435 518.118C122.009 517.013 122.739 516.107 123.622 515.4C124.506 514.678 125.397 514.317 126.296 514.317C127.195 514.317 127.88 514.664 128.351 515.356C128.822 516.048 129.058 516.829 129.058 517.698C129.058 518.199 129.021 518.604 128.948 518.913C129.566 519.031 129.935 519.319 130.052 519.775C130.111 519.849 130.141 519.945 130.141 520.062ZM126.384 519.753L126.473 518.251C126.473 517.985 126.421 517.735 126.318 517.499C126.215 517.249 126.105 517.124 125.987 517.124C125.633 517.124 125.088 517.654 124.352 518.715C123.615 519.775 123.247 520.666 123.247 521.388C123.247 521.609 123.342 521.815 123.534 522.007C123.74 522.198 123.983 522.294 124.263 522.294C124.543 522.294 124.867 522.176 125.235 521.941C125.618 521.69 125.913 521.454 126.119 521.234C126.325 521.013 126.62 520.681 127.003 520.239C126.591 520.151 126.384 519.989 126.384 519.753ZM137.672 517.566L134.159 517.875C133.791 517.875 133.364 517.558 132.878 516.925C132.406 516.291 132.17 515.805 132.17 515.466C132.17 514.907 133.754 514.627 136.921 514.627C138.689 514.627 139.691 514.737 139.926 514.958C140.265 515.268 140.582 515.732 140.876 516.35C141.186 516.954 141.34 517.514 141.34 518.03C141.34 518.324 141.178 518.766 140.854 519.355C140.545 519.945 140.302 520.401 140.125 520.725C139.948 521.035 139.691 521.469 139.352 522.029C139.028 522.574 138.726 523.082 138.446 523.554C138.181 524.01 137.812 524.681 137.341 525.564C136.87 526.433 136.479 527.155 136.17 527.73C135.875 528.29 135.566 528.842 135.242 529.387C134.623 530.462 134.144 531 133.806 531C133.482 531 133.15 530.794 132.811 530.381C132.487 529.969 132.325 529.534 132.325 529.078C132.325 528.606 132.642 527.774 133.275 526.581C133.923 525.388 134.623 524.209 135.374 523.045C137.422 519.937 138.446 518.184 138.446 517.787C138.446 517.639 138.188 517.566 137.672 517.566Z" fill="white"/>
<path d="M296.832 516.682C296.832 517.61 296.7 518.656 296.434 519.819C296.169 520.968 295.919 521.992 295.683 522.891C295.447 523.789 295.234 524.658 295.042 525.498C294.866 526.338 294.711 527.023 294.578 527.553C294.46 528.069 294.32 528.599 294.158 529.144C293.834 530.19 293.481 530.713 293.098 530.713C292.759 530.713 292.369 530.499 291.927 530.072C291.5 529.63 291.286 529.232 291.286 528.879C291.286 528.525 291.448 527.715 291.772 526.448C292.096 525.181 292.42 523.524 292.744 521.477C293.083 519.414 293.253 517.271 293.253 515.047C293.253 514.619 293.466 514.406 293.893 514.406C294.335 514.406 294.932 514.715 295.683 515.334C296.449 515.953 296.832 516.402 296.832 516.682ZM307.963 520.062C307.963 520.504 307.779 520.99 307.411 521.521C306.969 522.596 306.667 523.384 306.505 523.885C306.343 524.386 306.078 525.343 305.709 526.758C305.341 528.157 305.024 529.225 304.759 529.961C304.494 530.698 304.229 531.066 303.964 531.066C303.301 531.066 302.969 530.227 302.969 528.547C302.969 527.428 303.161 526.065 303.544 524.46C302.911 524.71 302.336 524.835 301.82 524.835C301.128 524.835 300.384 524.423 299.589 523.598C298.793 522.758 298.396 522.014 298.396 521.366C298.396 520.305 298.683 519.223 299.257 518.118C299.832 517.013 300.561 516.107 301.445 515.4C302.329 514.678 303.22 514.317 304.118 514.317C305.017 514.317 305.702 514.664 306.173 515.356C306.645 516.048 306.88 516.829 306.88 517.698C306.88 518.199 306.844 518.604 306.77 518.913C307.389 519.031 307.757 519.319 307.875 519.775C307.934 519.849 307.963 519.945 307.963 520.062ZM304.207 519.753L304.295 518.251C304.295 517.985 304.244 517.735 304.141 517.499C304.037 517.249 303.927 517.124 303.809 517.124C303.456 517.124 302.911 517.654 302.174 518.715C301.437 519.775 301.069 520.666 301.069 521.388C301.069 521.609 301.165 521.815 301.356 522.007C301.563 522.198 301.806 522.294 302.086 522.294C302.366 522.294 302.69 522.176 303.058 521.941C303.441 521.69 303.735 521.454 303.942 521.234C304.148 521.013 304.443 520.681 304.826 520.239C304.413 520.151 304.207 519.989 304.207 519.753ZM319.141 520.062C319.141 520.504 318.957 520.99 318.588 521.521C318.146 522.596 317.844 523.384 317.682 523.885C317.52 524.386 317.255 525.343 316.887 526.758C316.519 528.157 316.202 529.225 315.937 529.961C315.672 530.698 315.406 531.066 315.141 531.066C314.478 531.066 314.147 530.227 314.147 528.547C314.147 527.428 314.339 526.065 314.722 524.46C314.088 524.71 313.514 524.835 312.998 524.835C312.306 524.835 311.562 524.423 310.766 523.598C309.971 522.758 309.573 522.014 309.573 521.366C309.573 520.305 309.86 519.223 310.435 518.118C311.009 517.013 311.739 516.107 312.622 515.4C313.506 514.678 314.397 514.317 315.296 514.317C316.195 514.317 316.88 514.664 317.351 515.356C317.822 516.048 318.058 516.829 318.058 517.698C318.058 518.199 318.021 518.604 317.948 518.913C318.566 519.031 318.935 519.319 319.052 519.775C319.111 519.849 319.141 519.945 319.141 520.062ZM315.384 519.753L315.473 518.251C315.473 517.985 315.421 517.735 315.318 517.499C315.215 517.249 315.105 517.124 314.987 517.124C314.633 517.124 314.088 517.654 313.352 518.715C312.615 519.775 312.247 520.666 312.247 521.388C312.247 521.609 312.342 521.815 312.534 522.007C312.74 522.198 312.983 522.294 313.263 522.294C313.543 522.294 313.867 522.176 314.235 521.941C314.618 521.69 314.913 521.454 315.119 521.234C315.325 521.013 315.62 520.681 316.003 520.239C315.591 520.151 315.384 519.989 315.384 519.753ZM332.395 517.809C332.395 519.179 331.165 520.939 328.705 523.09C329.884 524.298 330.473 525.483 330.473 526.647C330.473 527.663 329.781 528.592 328.396 529.431C327.026 530.256 325.656 530.669 324.286 530.669C323.653 530.669 322.916 530.359 322.076 529.741C321.252 529.122 320.839 528.459 320.839 527.752C320.839 526.456 321.988 524.85 324.286 522.935C323.594 522.405 323.049 521.977 322.651 521.653C322.268 521.315 321.9 520.917 321.546 520.46C321.193 519.989 321.016 519.554 321.016 519.156C321.016 518.744 321.082 518.309 321.215 517.853C321.362 517.381 321.553 517.146 321.789 517.146C321.951 517.146 322.113 517.212 322.275 517.345C322.437 517.477 322.644 517.691 322.894 517.985C323.144 518.28 323.343 518.508 323.491 518.67C323.638 518.818 323.851 519.017 324.131 519.267C324.426 519.503 324.654 519.694 324.816 519.841C324.978 519.974 325.273 520.21 325.7 520.549C326.127 520.873 326.385 521.071 326.474 521.145C327.416 520.394 328.131 519.768 328.617 519.267C329.118 518.751 329.368 518.295 329.368 517.897C329.368 517.485 329.118 517.278 328.617 517.278C327.954 517.278 327.217 517.499 326.407 517.941C325.612 518.383 325.074 518.604 324.794 518.604C324.529 518.604 324.205 518.464 323.822 518.184C323.439 517.904 323.248 517.617 323.248 517.322C323.248 516.586 323.748 515.938 324.75 515.378C325.766 514.818 327.063 514.538 328.639 514.538C329.788 514.538 330.701 514.811 331.379 515.356C332.057 515.901 332.395 516.719 332.395 517.809ZM327.38 526.117C327.38 525.763 327.114 525.336 326.584 524.835C325.199 525.911 324.374 526.64 324.109 527.023C323.977 527.185 323.91 527.325 323.91 527.443C323.91 527.546 323.999 527.671 324.176 527.818C324.367 527.965 324.5 528.039 324.573 528.039C325.118 528.039 325.722 527.848 326.385 527.465C327.048 527.082 327.38 526.632 327.38 526.117Z" fill="white"/>
<path d="M108.813 9.23695L111.047 6.59312C112.841 7.60029 115.611 9.20548 116.965 10.2127L114.635 13.1712C113.376 12.1011 110.67 10.4015 108.813 9.23695ZM107.113 18.1127L109.159 15.3115C110.921 16.1298 113.723 17.4832 115.076 18.3645L112.967 21.5119C111.708 20.5992 109.002 19.0884 107.113 18.1127ZM108.246 32.9056C109.883 30.5765 112.275 26.6737 114.132 23.0856L116.902 25.5721C115.265 28.8769 113.282 32.402 111.394 35.455L108.246 32.9056ZM116.367 12.3529H136.069V15.9724H116.367V12.3529ZM115.8 22.2673H136.447V25.9498H115.8V22.2673ZM119.923 6.46722H123.637V24.1557H119.923V6.46722ZM128.453 6.40427H132.167V24.1872H128.453V6.40427ZM120.741 27.2717L124.298 28.4048C122.693 31.143 120.175 33.9442 117.972 35.7068C117.279 35.0458 115.831 33.8498 115.013 33.3462C117.248 31.8669 119.451 29.5378 120.741 27.2717ZM127.981 28.9398L130.971 27.2717C133.016 29.2546 135.22 31.9299 136.321 33.7869L133.142 35.7697C132.167 33.8813 129.932 31.0171 127.981 28.9398ZM154.797 17.5462C155.93 26.296 158.825 31.0801 168.205 32.402C167.418 33.1888 166.442 34.794 166.033 35.8327C155.835 33.9128 152.908 28.4048 151.429 17.8609L154.797 17.5462ZM150.957 15.9095H155.111C154.576 25.5091 153.506 32.6223 140.57 35.8956C140.161 34.8885 139.217 33.3147 138.367 32.4964C150.201 29.7896 150.548 24.1243 150.957 15.9095ZM144.095 18.1756L147.463 19.0254C146.865 22.1729 145.795 24.8482 142.868 26.4848L140.035 24.1872C142.396 22.9597 143.623 20.8195 144.095 18.1756ZM161.154 18.1756L165.183 19.3402C163.861 21.7322 162.35 24.1872 161.091 25.7924L157.787 24.6593C158.983 22.8968 160.399 20.19 161.154 18.1756ZM151.02 6.30985H155.143V12.6676H151.02V6.30985ZM139.909 10.2441H166.536V17.7979H162.602V13.9581H143.686V17.7979H139.909V10.2441ZM171.73 11.7549H197.759V27.555H193.793V15.4689H175.538V27.7123H171.73V11.7549ZM173.713 22.2358H195.996V25.9498H173.713V22.2358ZM182.651 6.27838H186.648V35.8327H182.651V6.27838ZM204.966 11.3772H214.629V32.5908H204.966V29.2546H211.198V14.682H204.966V11.3772ZM202.763 11.3772H206.194V34.9199H202.763V11.3772ZM204.809 19.7808H212.867V23.0541H204.809V19.7808ZM207.233 6.2469L211.356 6.84491C210.632 8.98516 209.845 11.2198 209.216 12.6991L206.194 12.0382C206.635 10.4015 207.075 7.97799 207.233 6.2469ZM218.784 11.1569H227.974V14.5876H218.784V11.1569ZM226.684 11.1569H230.177C230.177 11.1569 230.177 12.3844 230.146 12.8565C229.737 27.0199 229.359 32.0243 228.069 33.6924C227.187 34.9199 226.306 35.2661 225.016 35.455C223.82 35.6438 221.9 35.6124 220.074 35.5179C220.011 34.4793 219.508 32.8741 218.815 31.8669C220.861 32.0243 222.749 32.0558 223.536 32.0558C224.166 32.0558 224.512 31.9299 224.921 31.4892C225.928 30.4191 226.337 25.0055 226.684 11.8808V11.1569ZM218.878 6.27838L222.498 7.12818C221.27 11.7864 219.224 16.5705 217.084 19.592C216.392 18.9625 214.849 17.8924 213.968 17.3888C216.077 14.7449 217.871 10.4644 218.878 6.27838ZM217.336 20.2215L220.294 18.5533C221.837 20.725 223.914 23.7466 224.89 25.6036L221.679 27.555C220.829 25.635 218.847 22.5506 217.336 20.2215ZM233.702 14.7449H261.715V18.6477H233.702V14.7449ZM249.849 16.3187C251.737 23.5263 255.734 29.5064 262.407 32.1502C261.463 33 260.204 34.6367 259.574 35.7383C252.367 32.3705 248.432 25.8553 246.04 17.1999L249.849 16.3187ZM245.505 6.27838H249.66C249.503 15.878 249.44 29.2231 235.937 35.7383C235.339 34.6996 234.175 33.3462 233.073 32.5279C245.977 26.7681 245.411 14.8079 245.505 6.27838ZM265.586 7.94651H292.811V11.4716H265.586V7.94651ZM264.925 31.3004H293.378V34.794H264.925V31.3004ZM283.621 24.6279L287.87 25.6036C286.799 27.7123 285.603 29.8841 284.659 31.3004L281.26 30.3247C282.11 28.751 283.086 26.3904 283.621 24.6279ZM271.125 25.9498L274.556 24.9426C275.5 26.5793 276.476 28.751 276.759 30.1988L273.108 31.3004C272.856 29.9155 272.007 27.6179 271.125 25.9498ZM272.542 17.1999V21.3545H285.981V17.1999H272.542ZM268.859 13.8637H289.852V24.6908H268.859V13.8637ZM300.491 18.1442H324.348V21.8581H300.491V18.1442ZM298.099 9.52022H323.656V13.1083H298.099V9.52022ZM298.351 18.1442H302.316V22.6135C302.316 26.5793 301.718 32.4964 298.791 36.2104C298.162 35.455 296.462 34.0072 295.644 33.5036C298.13 30.2932 298.351 25.7609 298.351 22.5191V18.1442ZM302.6 14.3043L305.936 12.888C306.912 14.1469 308.108 15.941 308.611 17.1685L305.086 18.7422C304.677 17.5462 303.575 15.6577 302.6 14.3043ZM316.008 13.1398L320.257 14.4932C318.966 16.3187 317.644 18.2386 316.637 19.4976L313.647 18.3015C314.497 16.8537 315.504 14.7135 316.008 13.1398ZM307.541 7.06523L311.444 6.15248C312.325 7.2226 313.206 8.76484 313.584 9.83496L309.492 10.968C309.209 9.89791 308.359 8.26125 307.541 7.06523ZM335.427 12.0382V13.1083H348.52V12.0382H335.427ZM335.427 9.17401V10.2127H348.52V9.17401H335.427ZM331.776 7.25408H352.329V15.0282H331.776V7.25408ZM334.766 24.5964V25.7295H349.37V24.5964H334.766ZM334.766 21.6378V22.7394H349.37V21.6378H334.766ZM331.21 19.6235H353.084V27.7123H331.21V19.6235ZM340.211 20.2844H343.894V33.7869H340.211V20.2844ZM327.779 16.0039H356.452V18.6792H327.779V16.0039ZM330.58 28.751H353.682V31.1745H330.58V28.751ZM327.716 32.3076H356.515V35.0773H327.716V32.3076Z" fill="white"/>
</svg>
