<svg width="677" height="163" viewBox="0 0 677 163" fill="none" xmlns="http://www.w3.org/2000/svg">
<path d="M234.135 24.855C234.135 20.375 235.127 17.1783 237.11 15.265C239.117 13.3283 242.01 12.36 245.79 12.36C247.983 12.36 249.85 12.6167 251.39 13.13V17.435C249.78 16.875 248.007 16.595 246.07 16.595C244.507 16.595 243.235 16.8517 242.255 17.365C241.298 17.8783 240.587 18.7417 240.12 19.955C239.653 21.145 239.42 22.7667 239.42 24.82C239.42 26.99 239.642 28.67 240.085 29.86C240.552 31.05 241.252 31.8783 242.185 32.345C243.142 32.8117 244.402 33.045 245.965 33.045C248.018 33.045 249.92 32.73 251.67 32.1V36.335C250.9 36.6383 250.002 36.8833 248.975 37.07C247.948 37.2567 246.875 37.35 245.755 37.35C243.212 37.35 241.1 37 239.42 36.3C237.763 35.6 236.468 34.34 235.535 32.52C234.602 30.6767 234.135 28.1217 234.135 24.855ZM279.2 37H274.3V26.08H264.29V37H259.355V12.71H264.29V21.95H274.3V12.71H279.2V37ZM293.009 30.77L290.769 37H285.694L294.759 12.71H301.374L310.404 37H305.154L303.019 30.77H293.009ZM301.549 26.64L298.259 17.085H297.839L294.444 26.64H301.549ZM334.269 20.865C334.269 22.9417 333.942 24.5983 333.289 25.835C332.659 27.0483 331.656 27.935 330.279 28.495C328.926 29.0317 327.106 29.3 324.819 29.3H321.739V37H316.804V12.71H324.819C327.222 12.71 329.101 12.99 330.454 13.55C331.831 14.0867 332.811 14.95 333.394 16.14C333.977 17.3067 334.269 18.8817 334.269 20.865ZM324.189 25.345C325.472 25.345 326.476 25.2167 327.199 24.96C327.922 24.7033 328.436 24.26 328.739 23.63C329.066 23 329.229 22.1133 329.229 20.97C329.229 19.36 328.856 18.24 328.109 17.61C327.362 16.98 326.056 16.665 324.189 16.665H321.739V25.345H324.189ZM350.94 17.015V37H346.005V17.015H339.53V12.71H357.415V17.015H350.94ZM379.496 37H364.341V12.71H378.936V16.98H369.276V22.475H378.236V26.57H369.276V32.695H379.496V37ZM395.265 27.97H392.395V37H387.46V12.71H395.335C397.552 12.71 399.337 12.9667 400.69 13.48C402.067 13.97 403.082 14.775 403.735 15.895C404.388 16.9917 404.715 18.4617 404.715 20.305C404.715 22.3117 404.33 23.8867 403.56 25.03C402.813 26.1733 401.647 26.9783 400.06 27.445L406.99 37H401.18L395.265 27.97ZM394.635 24.26C395.942 24.26 396.957 24.155 397.68 23.945C398.403 23.735 398.928 23.35 399.255 22.79C399.605 22.23 399.78 21.4017 399.78 20.305C399.78 19.3017 399.605 18.5433 399.255 18.03C398.928 17.5167 398.403 17.1667 397.68 16.98C396.957 16.77 395.942 16.665 394.635 16.665H392.395V24.26H394.635ZM436.299 19.885C436.299 18.5783 435.914 17.6567 435.144 17.12C434.397 16.56 433.324 16.28 431.924 16.28C430.22 16.28 428.412 16.56 426.499 17.12V13.165C428.249 12.6283 430.337 12.36 432.764 12.36C435.447 12.36 437.512 12.9317 438.959 14.075C440.429 15.2183 441.164 16.945 441.164 19.255C441.164 20.6783 440.919 21.95 440.429 23.07C439.962 24.19 439.11 25.4033 437.874 26.71C436.637 28.0167 434.805 29.6383 432.379 31.575L430.839 32.8V33.08H441.794V37H424.994V32.66C428.004 30.2567 430.302 28.3083 431.889 26.815C433.499 25.2983 434.63 24.015 435.284 22.965C435.96 21.915 436.299 20.8883 436.299 19.885Z" fill="black"/>
<path d="M26.95 110.51V135.64H19.6V91.82L26.95 92.03V96.09C29.05 94.0833 31.01 91.8433 32.83 89.37C34.65 86.8967 36.1433 84.4933 37.31 82.16L46.13 83.56C45.4767 84.96 44.94 86.01 44.52 86.71H62.23V94.2C59.99 97.84 57.2367 101.013 53.97 103.72C57.61 105.213 61.9033 106.497 66.85 107.57L63.84 115.69C59.5 114.57 55.86 113.403 52.92 112.19L54.6 115.06C47.6467 119.447 40.18 122.853 32.2 125.28L29.05 118.7C36.2833 116.6 43.0033 113.893 49.21 110.58C48.2767 110.113 47.25 109.577 46.13 108.97C41.6967 111.443 36.1433 113.707 29.47 115.76L26.95 110.51ZM21.77 84.05C20.4633 88.95 18.83 93.85 16.87 98.75V146H8.89V114.57C7.81667 116.203 6.65 117.93 5.39 119.75L0.77 111.49C3.15 107.523 5.57667 102.763 8.05 97.21C10.5233 91.6567 12.2733 86.7333 13.3 82.44L21.77 84.05ZM52.29 93.99H39.97C41.7433 96.1367 43.8667 98.0267 46.34 99.66C48.72 97.98 50.7033 96.09 52.29 93.99ZM26.95 100.78V107.85C31.5233 106.543 35.4667 105.19 38.78 103.79C37.38 102.53 36.05 101.2 34.79 99.8C33.1567 101.527 31.5233 103.067 29.89 104.42L26.95 100.78ZM27.86 129.27C37.94 126.423 47.25 122.293 55.79 116.88L59.57 122.48C51.5433 127.94 42.14 132.21 31.36 135.29L27.86 129.27ZM25.2 139.35C31.9667 137.81 38.4067 135.757 44.52 133.19C50.6333 130.623 56.0233 127.683 60.69 124.37L65.1 130.74C56.28 137.553 44.1467 142.85 28.7 146.63L25.2 139.35ZM79.4763 117.44V106.52H140.796V117.44H79.4763ZM155.243 108.27C162.149 107.243 168.706 105.797 174.913 103.93C172.579 102.53 170.573 101.177 168.893 99.87C166.373 101.783 163.946 103.417 161.613 104.77L156.503 97.14C159.956 95.1333 163.386 92.73 166.793 89.93C170.199 87.0833 172.929 84.4233 174.983 81.95L185.763 83.84C185.296 84.4467 184.386 85.52 183.033 87.06H211.103V95.95C206.996 99.1233 202.703 101.877 198.223 104.21C203.123 105.47 209.469 106.683 217.263 107.85L214.743 116.46C203.403 114.687 193.976 112.353 186.463 109.46C178.203 112.587 168.683 115.06 157.903 116.88L155.243 108.27ZM198.643 94.9H176.523C179.603 97.14 182.846 98.96 186.253 100.36C189.659 99.1 193.789 97.28 198.643 94.9ZM213.833 126.47H199.273C201.559 127.543 204.593 129.153 208.373 131.3C212.153 133.447 215.116 135.22 217.263 136.62L212.503 145.3C210.169 143.527 207.113 141.427 203.333 139C199.553 136.62 196.449 134.8 194.023 133.54L198.293 126.47H191.223V136.34C191.223 138.767 190.943 140.633 190.382 141.94C189.869 143.293 188.983 144.273 187.723 144.88C186.509 145.533 184.783 145.93 182.543 146.07L176.383 146.56L173.583 137.67L178.203 137.25C179.556 137.11 180.489 136.76 181.003 136.2C181.563 135.593 181.843 134.567 181.843 133.12V126.47H172.043L176.943 132.56C173.023 136.573 166.956 141.03 158.743 145.93L153.703 137.39C156.689 136.037 159.653 134.403 162.593 132.49C165.579 130.53 168.169 128.523 170.363 126.47H158.463V117.44H181.843V112.68L191.223 112.96V117.44H213.833V126.47ZM240.319 102.11C239.525 100.383 238.265 98.0267 236.539 95.04C234.812 92.0533 233.435 89.8367 232.409 88.39L239.969 83.7C240.949 85.0533 242.302 87.13 244.029 89.93C245.802 92.73 247.225 95.11 248.299 97.07L240.319 102.11ZM259.079 125.07V134.52H250.259V98.96H261.879C259.872 97.6067 257.772 96.23 255.579 94.83L258.309 92.03H250.889V84.61H288.689V92.24L277.839 98.96H289.879V127.94C289.879 130.46 289.319 132.233 288.199 133.26C287.125 134.287 285.189 134.94 282.389 135.22L278.609 135.64L276.089 128.43L278.959 128.08C279.892 127.94 280.475 127.707 280.709 127.38C280.942 127.053 281.059 126.423 281.059 125.49V125.07H274.059V133.96H265.589V125.07H259.079ZM276.089 92.03H263.349C264.935 93.01 267.012 94.3167 269.579 95.95L276.089 92.03ZM274.829 137.39C281.175 137.39 287.755 137.203 294.569 136.83L292.679 144.88C287.125 145.207 280.965 145.37 274.199 145.37C268.925 145.37 264.329 145.277 260.409 145.09C255.742 144.903 252.055 144.297 249.349 143.27C246.689 142.29 244.122 140.447 241.649 137.74C240.249 139.233 238.102 141.24 235.209 143.76L233.459 145.37L229.259 136.41C232.152 134.263 234.765 132.047 237.099 129.76V113.94H230.869V104.91H245.989V130.25C247.715 132.817 249.675 134.567 251.869 135.5C254.062 136.387 257.259 136.923 261.459 137.11C265.332 137.297 269.789 137.39 274.829 137.39ZM265.589 108.76V105.75H259.079V108.76H265.589ZM274.059 108.76H281.059V105.75H274.059V108.76ZM259.079 115.41V118.49H265.589V115.41H259.079ZM274.059 115.41V118.49H281.059V115.41H274.059ZM329.245 88.46C327.378 90.98 324.742 94.0367 321.335 97.63C317.975 101.223 314.848 104.303 311.955 106.87L307.335 98.4C309.575 96.4867 312.142 93.8967 315.035 90.63C317.975 87.3167 320.192 84.5633 321.685 82.37L329.245 88.46ZM351.785 122.69V135.15H369.005V144.32H325.325V135.15H342.125V122.69H328.965V113.31H342.125V102.46H327.775V93.22H342.405L340.095 84.12L350.035 83.49L352.485 93.22H366.695V102.46H351.785V113.31H364.805V122.69H351.785ZM328.475 105.82C326.982 108.433 325.255 111.023 323.295 113.59V145.79H314.195V124.23C312.655 125.863 310.975 127.497 309.155 129.13L305.305 119.47C307.825 117.137 310.742 114.057 314.055 110.23C317.415 106.403 319.842 103.16 321.335 100.5L328.475 105.82ZM404.871 84.47C404.311 86.7567 403.635 89.16 402.841 91.68H417.681V101.55C416.188 110.37 413.271 118.303 408.931 125.35C404.591 132.35 398.385 139.49 390.311 146.77L382.401 139.56C389.821 133.307 395.398 127.567 399.131 122.34C396.285 120.147 393.741 118.28 391.501 116.74C390.615 118.187 389.518 119.797 388.211 121.57L381.841 113.52C384.781 109.227 387.418 104.373 389.751 98.96C392.085 93.5467 393.881 88.1333 395.141 82.72L404.871 84.47ZM429.721 100.78C432.755 102.833 435.928 105.097 439.241 107.57C442.601 110.043 445.005 111.933 446.451 113.24L441.481 122.55C439.148 120.123 435.228 116.717 429.721 112.33V145.72H420.271V83.14L429.721 83.42V100.78ZM399.411 101.34C398.571 103.393 397.545 105.68 396.331 108.2C399.458 110.207 402.118 111.98 404.311 113.52C405.991 109.88 407.368 105.82 408.441 101.34H399.411ZM519.698 84.61V93.43H494.007L492.258 98.12H516.898V144.67H462.158V98.12H481.618L483.228 93.43H459.358V84.61H519.698ZM476.228 106.31H471.048V136.48H476.228V106.31ZM484.628 111.21H494.498V106.31H484.628V111.21ZM502.898 136.48H508.078V106.31H502.898V136.48ZM484.628 123.46H494.498V118.91H484.628V123.46ZM494.498 131.09H484.628V136.48H494.498V131.09ZM595.044 91.61C594.997 95.5767 594.81 102.95 594.484 113.73C594.204 124.463 593.947 132.233 593.714 137.04C593.62 139.093 593.224 140.68 592.524 141.8C591.824 142.967 590.844 143.807 589.584 144.32C588.324 144.833 586.644 145.183 584.544 145.37L576.844 146.07L573.904 136.13L580.414 135.57C581.534 135.43 582.35 135.267 582.864 135.08C583.377 134.847 583.727 134.427 583.914 133.82C584.147 133.213 584.287 132.233 584.334 130.88C584.707 123.133 584.987 113.263 585.174 101.27H574.324C572.737 104.63 571.22 107.477 569.774 109.81L563.824 105.89V144.53H537.154V91.82H544.154L546.674 83L556.614 83.84L554.164 91.82H563.824V100.85C565.55 97.6767 567.09 94.48 568.444 91.26C569.844 87.9933 570.894 85.0533 571.594 82.44L580.974 83.84C580.414 85.8467 579.55 88.4367 578.384 91.61H595.044ZM546.324 112.61H555.004V101.34H546.324V112.61ZM576.004 127.66C573.484 122.807 570.637 118.35 567.464 114.29L574.394 108.97C577.987 113.45 580.95 117.627 583.284 121.5L576.004 127.66ZM546.324 122.2V134.87H555.004V122.2H546.324ZM669.69 120.45C669.41 120.357 669.083 120.24 668.71 120.1C668.383 119.96 668.033 119.82 667.66 119.68V145.09H638.61V120.38L637.7 120.73L634.76 112.68C639.38 111 643.463 109.18 647.01 107.22C645.33 105.4 643.79 103.487 642.39 101.48C640.477 103.393 639.31 104.537 638.89 104.91L635.39 100.01V109.04H629.86V116.11H635.67V124.58H629.86V132.28C632.007 132 634.13 131.697 636.23 131.37V135.78L636.3 140.75L619.15 142.99L610.05 144.18L608.93 134.87L612.08 134.52V112.4L619.64 112.75V133.61L622.02 133.33V109.04H612.85V84.68H635.39V96.65C637.583 94.4567 639.613 92.0533 641.48 89.44C643.347 86.78 644.863 84.2367 646.03 81.81L654.43 83.77C653.683 85.3567 653.1 86.5467 652.68 87.34H669.2V95.81C667.007 100.243 664.277 104.047 661.01 107.22C664.323 108.9 668.383 110.463 673.19 111.91L669.69 120.45ZM627.48 93.36H620.83V100.5H627.48V93.36ZM647.99 95.53C649.717 98.2367 651.7 100.547 653.94 102.46C656.273 100.547 658.443 98.2367 660.45 95.53H647.99ZM667.59 119.68C662.177 117.627 657.603 115.387 653.87 112.96C649.717 115.62 645.26 117.86 640.5 119.68H667.59ZM647.01 136.69H659.19V127.8H647.01V136.69Z" fill="black"/>
</svg>
