<svg width="924" height="613" viewBox="0 0 924 613" fill="none" xmlns="http://www.w3.org/2000/svg">
<path d="M197.841 67.0828C196.951 67.1717 196.151 66.8604 195.439 66.1488C194.817 65.3483 194.461 64.5033 194.372 63.6139C194.283 62.6355 194.594 61.835 195.306 61.2124C196.106 60.5008 196.951 60.1006 197.841 60.0116C201.043 59.9227 203.4 62.1018 204.912 66.5491C205.624 68.8617 206.068 71.2632 206.246 73.7536C206.424 76.1552 206.513 79.1793 206.513 82.826C206.602 87.5401 206.424 93.0992 205.979 99.5033C205.979 101.104 205.268 102.172 203.845 102.705C203.222 102.972 202.555 103.061 201.843 102.972C201.132 102.794 200.554 102.483 200.109 102.038C198.953 100.882 198.241 99.3254 197.974 97.3686C197.885 96.4791 198.241 95.6342 199.042 94.8336C199.486 94.3 200.287 93.9442 201.443 93.7663C202.244 93.7663 203.089 94.1221 203.978 94.8336C204.423 95.2784 204.734 96.1234 204.912 97.3686C204.823 96.9239 204.868 96.8349 205.045 97.1018C205.045 97.2796 204.956 97.2352 204.779 96.9683C204.69 96.7015 204.734 96.657 204.912 96.8349L205.179 97.2352L205.045 97.1018L199.042 99.5033L199.175 96.5681C199.353 94.0776 199.442 92.1653 199.442 90.8311C199.62 85.2276 199.575 80.1577 199.308 75.6215L199.175 73.7536L199.042 72.8197C199.042 72.5529 199.042 72.4195 199.042 72.4195C199.042 72.7752 198.997 72.6863 198.908 72.1526V71.7524L198.775 70.8184L198.375 69.2174L197.841 67.483L197.974 67.8833L197.841 67.6164L197.441 66.9493L197.307 66.8159C197.04 66.4601 197.129 66.5046 197.574 66.9493L197.307 66.8159L197.707 66.9493L198.241 67.0828H197.841ZM180.497 79.8909C181.208 79.1793 182.009 78.8235 182.898 78.8235C183.876 78.8235 184.721 79.1793 185.433 79.8909C186.145 80.5135 186.5 81.3585 186.5 82.4258C186.5 83.4042 186.145 84.2047 185.433 84.8273L184.499 85.7612L184.366 85.8947L184.499 85.6278L184.232 86.0281L183.699 87.0954C183.521 87.2733 183.432 87.4512 183.432 87.6291C183.343 87.807 183.343 87.7625 183.432 87.4957C183.254 87.8515 183.165 88.2072 183.165 88.563C183.076 88.652 183.031 88.8299 183.031 89.0967C183.031 89.0967 183.031 89.0522 183.031 88.9633L182.898 91.3648C182.987 92.2542 182.676 93.0547 181.964 93.7663C181.253 94.3889 180.408 94.7447 179.429 94.8336C178.362 94.8336 177.561 94.4779 177.028 93.7663C176.494 93.3216 176.138 92.5211 175.96 91.3648C175.782 89.2301 176.094 87.1399 176.894 85.0942C177.695 83.0484 178.896 81.314 180.497 79.8909ZM223.724 77.7562C222.834 77.7562 222.034 77.4449 221.322 76.8222C220.7 76.1107 220.344 75.2657 220.255 74.2873C220.166 73.3979 220.477 72.5974 221.189 71.8858C221.989 71.0853 222.834 70.7295 223.724 70.8184C224.524 70.8184 225.147 70.8629 225.592 70.9519C227.193 70.9519 228.26 71.6634 228.794 73.0866C229.061 73.6202 229.15 74.2873 229.061 75.0878C228.972 75.8883 228.66 76.4665 228.127 76.8222L214.518 87.7625C213.629 88.3851 212.828 88.7409 212.117 88.8298C211.316 88.8298 210.471 88.4741 209.582 87.7625C208.87 87.0509 208.514 86.206 208.514 85.2276C208.514 84.1602 208.87 83.3597 209.582 82.826C215.63 78.023 220.122 74.3763 223.057 71.8858C223.679 73.22 224.524 75.2212 225.592 77.8896C224.791 77.8896 224.169 77.8451 223.724 77.7562ZM168.222 118.315C167.333 118.76 166.443 118.893 165.554 118.715C164.753 118.449 164.086 117.915 163.552 117.114C163.019 116.314 162.885 115.424 163.152 114.446C163.419 113.468 163.953 112.756 164.753 112.311C172.403 108.398 180.274 105.062 188.368 102.305C194.772 100.081 201.799 98.0357 209.448 96.1678L214.918 94.9671C215.986 94.7002 217.097 94.5223 218.254 94.4334C219.41 94.2555 220.477 94.2555 221.456 94.4334C223.502 94.8781 225.103 96.0344 226.259 97.9023C226.97 98.9696 227.504 100.749 227.86 103.239C228.127 105.552 228.171 109.109 227.993 113.912C227.904 116.581 227.504 120.583 226.792 125.92C226.259 129.656 225.458 133.391 224.391 137.127C224.035 138.639 223.635 139.84 223.19 140.729C222.834 141.53 222.212 142.241 221.322 142.864C220.077 143.754 218.654 143.931 217.053 143.398C215.541 142.864 214.607 141.841 214.251 140.329C214.073 139.351 214.207 138.506 214.651 137.794C215.096 136.994 215.808 136.416 216.786 136.06C217.676 135.793 218.565 135.926 219.455 136.46C220.344 136.905 220.878 137.572 221.056 138.461C221.144 138.817 221.1 138.862 220.922 138.595C220.744 138.328 220.566 137.928 220.388 137.394C219.855 137.216 219.455 137.038 219.188 136.86C219.01 136.682 219.054 136.638 219.321 136.727H218.12C218.209 136.727 218.076 136.816 217.72 136.994C217.364 137.172 217.142 137.349 217.053 137.527C216.786 137.883 216.786 137.839 217.053 137.394C216.964 137.572 216.875 137.705 216.786 137.794C216.786 137.794 216.831 137.75 216.92 137.661L217.053 137.527L217.186 136.994L217.587 135.526C217.942 134.281 218.387 132.413 218.921 129.923C219.277 127.966 219.632 126.053 219.988 124.186L220.255 122.718C220.255 122.629 220.255 122.585 220.255 122.585V121.917L220.655 119.116C220.922 115.647 221.056 112.178 221.056 108.709C221.056 106.485 221.011 104.84 220.922 103.773C220.922 103.506 220.878 103.328 220.789 103.239C220.789 102.972 220.789 102.972 220.789 103.239C220.878 103.417 220.922 103.461 220.922 103.372L220.655 102.572L220.522 101.771L220.655 102.038L220.388 101.638L220.122 101.104C220.122 101.193 220.166 101.327 220.255 101.505C220.433 101.682 220.433 101.682 220.255 101.505C220.255 101.238 220.166 101.104 219.988 101.104L220.255 101.371L219.988 101.238L220.388 101.371L219.988 101.238C219.721 101.149 219.677 101.104 219.855 101.104C220.122 101.104 220.255 101.149 220.255 101.238H219.588H218.921H219.054L217.854 101.505C216.786 101.682 216.03 101.86 215.585 102.038C212.917 102.572 209.626 103.328 205.712 104.306C199.397 105.996 192.904 108.086 186.233 110.577C183.832 111.466 182.32 112.045 181.697 112.311L179.162 113.379C179.162 113.379 179.207 113.334 179.296 113.245C178.94 113.423 178.718 113.512 178.629 113.512C178.362 113.69 177.962 113.868 177.428 114.046C175.382 114.935 172.314 116.358 168.222 118.315ZM181.564 132.057C180.674 132.413 179.785 132.324 178.896 131.79C178.095 131.257 177.561 130.545 177.295 129.656C176.939 128.766 177.028 127.921 177.561 127.121C178.095 126.231 178.807 125.653 179.696 125.386L187.434 122.718C196.151 119.872 205.312 117.07 214.918 114.313C215.897 114.046 216.786 114.179 217.587 114.713C218.387 115.158 218.965 115.825 219.321 116.714C219.588 117.604 219.455 118.493 218.921 119.383C218.476 120.272 217.765 120.806 216.786 120.984C214.207 121.695 211.627 122.451 209.048 123.252C199.442 126.187 190.28 129.122 181.564 132.057ZM187.167 146.6C186.278 147.044 185.389 147.178 184.499 147C183.61 146.733 182.898 146.155 182.364 145.266C181.92 144.554 181.786 143.665 181.964 142.597C182.231 141.53 182.809 140.818 183.699 140.463C186.278 139.217 188.635 138.194 190.77 137.394C194.683 135.793 198.686 134.459 202.777 133.391L208.915 131.924L211.85 131.39L213.584 131.123C213.94 131.123 214.162 131.079 214.251 130.99H214.651L214.118 131.257L213.584 131.524L212.65 133.125L212.517 133.792C212.695 134.058 212.873 134.637 213.05 135.526L214.785 136.86L217.453 136.46V136.593C216.475 137.038 215.541 137.127 214.651 136.86C213.762 136.682 213.095 136.149 212.65 135.259C212.383 134.903 212.205 134.503 212.117 134.058C212.028 133.525 212.072 133.036 212.25 132.591C212.606 131.524 213.139 130.812 213.851 130.456C214.829 130.011 215.763 129.878 216.653 130.056C217.097 130.145 217.72 130.501 218.521 131.123C219.054 131.835 219.366 132.635 219.455 133.525C219.632 134.325 219.499 135.081 219.054 135.793C218.61 136.593 218.031 137.127 217.32 137.394C216.608 137.661 215.541 137.883 214.118 138.061C209.582 138.773 204.912 139.929 200.109 141.53C197.441 142.33 195.172 143.131 193.305 143.931L191.57 144.598C191.57 144.598 191.615 144.598 191.704 144.598C191.526 144.598 191.392 144.643 191.303 144.732C191.125 144.732 190.859 144.821 190.503 144.999L187.167 146.6ZM266.284 122.051C264.594 121.695 263.349 121.072 262.548 120.183C261.748 119.294 261.392 118.493 261.481 117.782C261.392 117.693 261.348 117.559 261.348 117.381C261.348 116.848 261.526 116.403 261.881 116.047C262.059 115.78 262.326 115.558 262.682 115.38C263.038 115.202 263.571 115.113 264.283 115.113C264.994 115.202 265.484 115.336 265.75 115.513C265.928 115.78 266.195 115.914 266.551 115.914C266.818 115.914 267.174 115.914 267.618 115.914C268.597 115.825 269.886 115.424 271.487 114.713C273.088 113.912 275.668 112.089 279.226 109.243C282.872 106.397 285.897 103.684 288.298 101.104C290.789 98.5249 292.879 96.1234 294.569 93.8997C295.369 93.0103 295.769 92.2987 295.769 91.765C295.858 91.2314 295.503 90.9645 294.702 90.9645L294.035 90.8311C291.722 90.9201 290.433 90.9645 290.166 90.9645C289.81 90.9645 287.942 91.2758 284.562 91.8985C281.271 92.4321 279.404 92.6545 278.959 92.5655C278.425 92.5655 277.936 92.4321 277.491 92.1653C277.047 91.8985 276.691 91.4982 276.424 90.9645C276.335 90.6088 276.29 90.2085 276.29 89.7638V89.0967C276.468 88.3851 276.735 87.8959 277.091 87.6291C277.447 87.2733 280.693 86.7841 286.83 86.1615C292.968 85.4499 296.881 85.0052 298.571 84.8273C300.261 84.6494 301.818 84.605 303.241 84.6939C304.575 84.8718 305.376 85.0942 305.642 85.361C305.909 85.6278 306.176 86.0281 306.443 86.5617C306.621 87.0065 306.665 87.4957 306.576 88.0293V88.4296C306.487 89.0522 306.087 89.7638 305.376 90.5643L304.308 91.8985C304.219 91.8985 303.73 92.4321 302.841 93.4995L301.373 95.2339C301.284 95.2339 300.528 96.1678 299.105 98.0357C297.682 99.8146 294.925 102.661 290.833 106.574C286.83 110.488 283.628 113.423 281.227 115.38C278.825 117.248 274.734 119.294 268.953 121.517L266.284 122.051ZM263.749 143.531C262.415 143.353 261.57 143.131 261.214 142.864C260.947 142.597 260.503 141.485 259.88 139.529C259.969 138.728 260.102 138.15 260.28 137.794C260.547 137.438 261.392 137.127 262.815 136.86C263.527 136.949 263.972 136.994 264.149 136.994C264.416 136.905 265.617 135.704 267.752 133.391C267.841 133.125 267.885 132.813 267.885 132.457C267.974 131.746 267.796 130.723 267.351 129.389C266.551 127.61 266.151 126.409 266.151 125.787C266.062 125.609 266.017 125.475 266.017 125.386C266.017 125.031 266.151 124.719 266.418 124.452C266.507 124.186 266.729 123.919 267.085 123.652C267.529 123.296 268.152 123.163 268.953 123.252C269.753 123.341 270.331 123.563 270.687 123.919C271.132 124.275 271.843 125.742 272.822 128.322C273.8 130.723 274.289 132.324 274.289 133.125V133.258C274.111 134.058 273.578 135.17 272.688 136.593C271.888 137.928 270.598 139.351 268.819 140.863C268.73 140.863 268.374 141.13 267.752 141.663C267.129 142.197 266.329 142.642 265.35 142.997L263.749 143.531ZM296.57 141.263C295.414 141.174 294.702 141.085 294.435 140.996C294.257 140.818 293.946 140.329 293.501 139.529C293.146 138.728 292.745 138.194 292.301 137.928C291.945 137.572 289.321 136.638 284.429 135.126C279.537 133.525 276.913 132.591 276.557 132.324C276.202 132.057 275.89 131.701 275.623 131.257C275.534 130.901 275.49 130.501 275.49 130.056V129.522C275.668 128.811 275.979 128.277 276.424 127.921C276.958 127.477 277.536 127.254 278.158 127.254C278.959 127.343 281.227 127.921 284.963 128.989C288.876 130.145 291.278 130.945 292.167 131.39C293.146 131.835 294.08 132.324 294.969 132.858C295.947 133.302 296.792 133.792 297.504 134.325C298.215 134.77 299.194 136.104 300.439 138.328V138.862C300.439 139.484 300.306 139.929 300.039 140.196C299.861 140.551 299.55 140.818 299.105 140.996L298.304 141.396L296.57 141.263ZM287.097 110.444C286.03 110.177 285.363 109.91 285.096 109.643C284.918 109.287 282.25 108.709 277.091 107.909C271.932 107.019 269.13 106.485 268.686 106.308C268.33 106.041 268.019 105.596 267.752 104.973C267.663 104.618 267.618 104.217 267.618 103.773V103.239C267.707 102.616 268.019 102.127 268.552 101.771C269.086 101.416 271.487 101.416 275.757 101.771L277.358 101.905C280.738 102.261 283.139 102.616 284.562 102.972C286.074 103.506 287.142 103.995 287.764 104.44C288.476 104.884 289.188 105.863 289.899 107.375V107.775C289.81 108.398 289.632 108.887 289.365 109.243C289.099 109.687 288.698 109.999 288.165 110.177L287.097 110.444ZM316.983 141.53C316.36 141.441 315.916 141.352 315.649 141.263C315.471 141.174 315.16 140.64 314.715 139.662C314.27 138.684 313.914 138.105 313.647 137.928C313.47 137.661 312.046 136.86 309.378 135.526C306.71 134.192 304.219 133.036 301.907 132.057C299.683 130.99 298.438 130.189 298.171 129.656C297.993 129.211 297.904 128.722 297.904 128.188V127.654C298.082 127.032 298.393 126.543 298.838 126.187C299.283 125.831 299.861 125.609 300.573 125.52L300.706 125.653C301.418 125.653 303.863 126.587 308.044 128.455C312.313 130.323 315.204 131.924 316.716 133.258C318.317 134.503 319.429 136.193 320.052 138.328V138.728C320.052 139.44 319.918 139.973 319.651 140.329C319.295 140.774 318.895 141.085 318.451 141.263L317.783 141.663L316.983 141.53ZM293.768 104.44C292.523 104.262 291.767 104.128 291.5 104.039C291.322 103.951 290.655 103.684 289.499 103.239C288.432 102.705 287.631 102.35 287.097 102.172C286.653 101.905 284.029 101.327 279.226 100.437C274.423 99.4588 271.888 98.7472 271.621 98.3025C271.443 97.8578 271.399 97.3241 271.487 96.7015C271.487 96.1678 271.621 95.7231 271.888 95.3673C272.155 95.0115 272.555 94.7447 273.088 94.5668C273.444 94.3889 274.467 94.3889 276.157 94.5668C277.313 94.6558 278.825 94.8781 280.693 95.2339C285.141 95.8565 287.587 96.3012 288.031 96.5681C288.565 96.746 290.166 97.1907 292.834 97.9023C295.592 98.5249 297.193 99.1475 297.637 99.7701C298.082 100.304 298.304 100.926 298.304 101.638C298.215 102.438 298.038 103.017 297.771 103.372C297.504 103.639 297.059 103.906 296.437 104.173L295.503 104.573L293.768 104.44ZM263.482 106.308C261.17 105.952 259.791 105.596 259.346 105.24C258.991 104.796 258.724 104.306 258.546 103.773C258.368 103.506 258.324 103.15 258.413 102.705V102.172C258.501 101.638 258.813 101.193 259.346 100.837C259.88 100.393 260.547 100.215 261.348 100.304C262.148 100.393 263.038 100.17 264.016 99.6367C264.994 99.103 266.462 97.9467 268.419 96.1678C270.465 94.3889 271.843 93.1437 272.555 92.4321C273.355 91.6316 275.179 89.2746 278.025 85.361C280.871 81.4474 282.428 79.1348 282.695 78.4233V77.8896C282.695 77.267 282.561 76.2441 282.294 74.821C281.939 73.131 281.805 71.9303 281.894 71.2187C281.894 70.5071 281.983 70.0179 282.161 69.7511C282.428 69.4843 282.828 69.2174 283.362 68.9506C283.717 68.8617 284.118 68.8172 284.562 68.8172H285.096C285.808 68.9951 286.297 69.2619 286.564 69.6177C286.919 69.9735 287.409 71.3076 288.031 73.6202C288.387 75.4881 288.52 77.0446 288.432 78.2898V79.0904C288.165 80.5135 287.809 81.6253 287.364 82.4258C287.008 83.2263 285.229 85.7168 282.027 89.8972C278.914 94.0776 276.602 96.8349 275.09 98.1691C273.667 99.5033 271.843 101.015 269.62 102.705C267.396 104.306 265.839 105.285 264.95 105.64L263.482 106.308ZM341.932 144.865C341.22 144.776 340.642 144.643 340.198 144.465C339.842 144.287 339.442 143.842 338.997 143.131C338.641 142.33 338.152 141.708 337.529 141.263C336.996 140.729 335.839 139.795 334.06 138.461C332.281 137.038 330.992 136.104 330.191 135.659C329.391 135.126 326.945 134.014 322.853 132.324C318.762 130.545 316.716 129.478 316.716 129.122C316.627 128.944 316.583 128.766 316.583 128.588C316.583 128.322 316.627 128.055 316.716 127.788C316.805 127.343 316.983 126.987 317.25 126.72C317.517 126.454 317.961 126.231 318.584 126.053H319.118C320.096 126.142 322.008 126.632 324.855 127.521C328.501 128.766 330.769 129.611 331.659 130.056C332.548 130.501 334.105 131.568 336.328 133.258C338.552 134.859 340.02 135.926 340.731 136.46C341.443 136.994 342.332 137.883 343.4 139.128C344.556 140.374 345.09 141.441 345.001 142.33C345.001 143.22 344.823 143.842 344.467 144.198C344.111 144.465 343.755 144.643 343.4 144.732L342.866 144.999L341.932 144.865ZM297.504 120.85C295.191 120.494 293.813 120.139 293.368 119.783C293.012 119.427 292.79 118.938 292.701 118.315C292.523 118.048 292.434 117.693 292.434 117.248V116.714C292.612 116.18 292.923 115.736 293.368 115.38C293.902 115.024 294.524 114.891 295.236 114.98C295.858 114.98 296.659 114.846 297.637 114.579C298.616 114.224 300.884 112.267 304.442 108.709C308.088 105.151 310.134 103.017 310.579 102.305C311.024 101.593 311.958 99.0585 313.381 94.7002C314.893 90.3419 315.738 87.9849 315.916 87.6291C316.182 87.1844 316.627 86.7841 317.25 86.4283C317.606 86.3394 318.05 86.2949 318.584 86.2949L318.984 86.4283C319.696 86.5173 320.229 86.8286 320.585 87.3623C321.03 87.8959 321.297 88.4741 321.386 89.0967V89.2301C321.297 89.9417 320.985 91.3648 320.452 93.4995C319.918 95.812 319.34 97.6799 318.717 99.103C318.184 100.437 316.672 102.928 314.181 106.574C311.691 110.221 309.556 112.845 307.777 114.446C305.998 115.958 303.285 117.782 299.639 119.916L297.504 120.85ZM335.928 122.985C334.861 122.807 333.971 122.673 333.26 122.585C332.548 122.407 331.481 122.095 330.058 121.651C328.724 121.117 327.834 120.717 327.389 120.45C327.034 120.183 325.433 119.249 322.586 117.648C319.74 116.047 316.494 114.668 312.847 113.512C309.289 112.356 307.11 111.111 306.309 109.776C306.221 109.599 306.176 109.376 306.176 109.109C306.176 108.931 306.221 108.665 306.309 108.309C306.487 107.775 306.799 107.375 307.243 107.108C307.688 106.752 308.266 106.53 308.978 106.441C309.778 106.53 311.913 107.108 315.382 108.175C318.94 109.332 321.43 110.444 322.853 111.511C324.365 112.489 325.877 113.379 327.389 114.179C328.991 114.98 330.28 115.513 331.259 115.78C331.881 115.869 332.326 115.958 332.593 116.047H332.86C332.949 115.958 333.171 115.869 333.527 115.78L333.927 115.914C334.194 115.914 334.505 115.958 334.861 116.047C335.395 116.225 335.75 116.447 335.928 116.714C336.195 116.892 336.64 117.381 337.262 118.182C337.885 118.893 338.196 119.605 338.196 120.316C338.107 121.028 337.929 121.562 337.663 121.917C337.485 122.184 337.173 122.451 336.729 122.718L335.928 122.985ZM305.509 104.84C304.175 104.484 303.285 104.084 302.841 103.639C302.485 103.194 302.307 102.616 302.307 101.905V101.238C302.307 100.971 302.351 100.704 302.44 100.437C302.529 100.259 302.796 100.037 303.241 99.7701C303.686 99.4143 306.665 98.8807 312.18 98.1691C317.783 97.3686 321.119 96.8794 322.186 96.7015C323.254 96.5236 324.41 96.3012 325.655 96.0344C326.989 95.7676 327.879 95.5452 328.323 95.3673C328.768 95.1005 329.346 94.9671 330.058 94.9671H330.325C330.858 95.056 331.303 95.1894 331.659 95.3673C332.015 95.7231 332.281 96.0789 332.459 96.4347C332.637 96.7904 332.771 97.2352 332.86 97.7688V98.3025C332.86 98.6583 332.815 98.9251 332.726 99.103C332.459 99.4588 332.148 99.8146 331.792 100.17C331.436 100.437 330.236 100.837 328.19 101.371C327.923 101.282 327.301 101.416 326.322 101.771C325.344 102.038 324.766 102.172 324.588 102.172C324.41 102.083 323.476 102.261 321.786 102.705C320.185 103.061 317.072 103.461 312.447 103.906L305.509 104.84ZM337.796 98.4359C336.373 98.0801 335.484 97.7244 335.128 97.3686C334.861 96.9239 332.726 95.8565 328.724 94.1666C324.81 92.3877 322.675 91.2758 322.32 90.8311C321.964 90.2974 321.786 89.6748 321.786 88.9633C321.697 88.7854 321.653 88.6075 321.653 88.4296C321.653 88.0738 321.697 87.8515 321.786 87.7625C321.964 87.5846 322.275 87.3178 322.72 86.962C323.254 86.5173 323.832 86.2949 324.454 86.2949C325.166 86.3839 327.167 87.0509 330.458 88.2962C333.838 89.6304 335.884 90.5198 336.595 90.9645C337.307 91.3203 338.107 91.9874 338.997 92.9658C339.886 93.9442 340.331 94.7892 340.331 95.5007C340.242 96.2123 340.064 96.746 339.797 97.1018C339.531 97.4575 339.13 97.7688 338.597 98.0357L337.796 98.4359ZM381.427 132.191C380.715 132.191 380.093 132.013 379.559 131.657C379.114 131.301 378.67 130.1 378.225 128.055C378.225 127.966 378.225 127.877 378.225 127.788C378.225 126.987 378.447 126.276 378.892 125.653C379.248 125.031 379.692 124.497 380.226 124.052C380.849 123.607 386.23 118.271 396.37 108.042C406.598 97.8133 412.068 92.699 412.78 92.699C413.314 92.699 413.803 92.8769 414.248 93.2326C414.781 93.5884 415.27 94.5668 415.715 96.1678V96.5681C415.715 97.0128 415.626 97.3686 415.448 97.6354C415.182 97.9912 410.423 103.283 401.173 113.512C391.922 123.741 385.963 129.878 383.295 131.924L382.361 132.191H381.427ZM403.974 151.936C403.441 151.936 402.907 151.759 402.373 151.403C401.929 151.047 401.617 149.313 401.439 146.199C401.262 142.997 401.395 133.391 401.84 117.381C402.018 112.045 402.107 108.665 402.107 107.242V106.574C402.373 106.13 402.818 105.729 403.441 105.374C404.063 104.929 404.775 104.751 405.575 104.84C406.287 104.929 406.776 105.107 407.043 105.374C407.399 105.64 407.621 111.6 407.71 123.252C407.888 134.815 407.977 142.286 407.977 145.666L407.71 147.934C407.532 149.09 407.443 149.757 407.443 149.935C407.265 150.202 407.043 150.513 406.776 150.869C406.509 151.225 406.065 151.492 405.442 151.67L404.642 151.936H403.974ZM438.129 126.053C436.173 125.876 431.147 124.275 423.053 121.25C415.048 118.226 409.133 115.691 405.309 113.646C405.22 113.379 405.175 113.023 405.175 112.578V111.911C405.353 111.289 405.62 110.799 405.976 110.444C406.331 110.088 406.821 109.821 407.443 109.643C407.532 109.554 408.11 109.554 409.178 109.643C411.846 109.91 416.56 111.466 423.32 114.313C430.08 117.159 434.038 118.582 435.194 118.582H435.594C435.683 118.493 436.262 118.493 437.329 118.582H437.996C438.619 118.582 439.019 118.671 439.197 118.849C439.464 119.116 440.042 119.383 440.931 119.649C441.821 119.827 442.755 120.494 443.733 121.651C443.733 122.095 443.733 122.54 443.733 122.985V123.518C443.555 124.319 443.288 124.897 442.932 125.253C442.666 125.609 442.265 125.876 441.732 126.053L440.931 126.32L438.129 126.053ZM375.29 97.6354C374.044 97.4575 373.199 97.2352 372.755 96.9683C372.399 96.6126 372.132 96.1234 371.954 95.5007C371.776 94.9671 371.687 94.4334 371.687 93.8997C371.687 93.7218 371.732 93.4995 371.821 93.2326C371.999 92.61 372.354 92.0763 372.888 91.6316C373.511 91.1869 395.791 89.6748 439.73 87.0954C440.709 87.2733 441.42 87.4957 441.865 87.7625C442.31 88.0293 442.71 89.0077 443.066 90.6977C442.977 91.4982 442.755 92.1208 442.399 92.5655C442.043 92.9213 440.62 93.455 438.129 94.1666C437.507 94.1666 436.751 94.3 435.861 94.5668C435.061 94.7447 434.483 94.7892 434.127 94.7002C433.771 94.6113 433.415 94.6558 433.06 94.8336C432.704 95.0115 432.303 95.1005 431.859 95.1005C431.414 95.1005 430.969 94.9671 430.525 94.7002H430.391C428.968 94.7892 420.607 95.2339 405.309 96.0344L375.29 97.6354ZM473.838 138.461C473.394 138.461 472.904 138.372 472.371 138.194C471.837 137.928 471.215 136.949 470.503 135.259C470.414 135.17 470.37 135.081 470.37 134.992C470.37 134.459 470.503 133.97 470.77 133.525C471.037 132.991 471.348 132.591 471.704 132.324C472.148 132.057 476.596 131.479 485.046 130.59C493.495 129.7 499.143 129.166 501.99 128.989C504.836 128.722 509.683 128.588 516.532 128.588C523.381 128.588 527.472 128.633 528.807 128.722C530.23 128.722 531.608 128.811 532.942 128.989C534.277 129.166 535.166 129.389 535.611 129.656C536.145 129.834 536.812 130.768 537.612 132.457V132.858C537.612 133.48 537.479 134.014 537.212 134.459C536.945 134.992 536.545 135.437 536.011 135.793C535.566 136.06 534.721 136.193 533.476 136.193C532.231 136.193 531.43 136.104 531.075 135.926C530.808 135.748 526.449 135.526 518 135.259H513.464C509.461 135.259 506.971 135.304 505.992 135.393C504.658 135.571 501.901 135.748 497.72 135.926C493.629 136.104 491.272 136.193 490.649 136.193C489.937 136.193 487.091 136.549 482.11 137.261L474.506 138.461H473.838ZM485.979 133.792C485.09 133.792 484.423 133.703 483.978 133.525C483.622 133.258 483.089 132.28 482.377 130.59C482.288 130.501 482.244 130.412 482.244 130.323C482.244 129.789 482.377 129.344 482.644 128.989C482.822 128.633 483.044 128.277 483.311 127.921C483.578 127.477 483.756 125.653 483.845 122.451V120.316C483.845 118.449 483.8 117.248 483.711 116.714C483.533 116.092 482.911 114.802 481.843 112.845C480.776 110.799 480.242 109.376 480.242 108.576C480.242 107.775 480.376 107.153 480.643 106.708C480.999 106.263 481.443 105.907 481.977 105.64C482.422 105.463 482.866 105.374 483.311 105.374H483.978C484.69 105.463 485.223 105.685 485.579 106.041C485.935 106.308 486.824 108.131 488.248 111.511C489.76 114.802 490.56 118.315 490.649 122.051V123.785C490.649 126.543 490.56 128.322 490.382 129.122C490.115 130.1 489.76 130.99 489.315 131.79C488.87 132.502 488.425 132.991 487.981 133.258L487.18 133.792H485.979ZM497.587 135.793C496.697 135.704 495.986 135.526 495.452 135.259C495.007 134.992 494.518 133.97 493.985 132.191C493.985 131.301 493.985 130.501 493.985 129.789C494.073 129.078 494.207 128.366 494.385 127.654C494.563 126.943 494.696 126.454 494.785 126.187C494.963 125.92 495.185 124.675 495.452 122.451C495.808 120.139 496.03 118.048 496.119 116.18C496.297 114.313 496.43 110.844 496.519 105.774V105.24C496.519 100.526 496.03 97.1462 495.052 95.1005C493.985 92.9658 493.451 91.5872 493.451 90.9645C493.362 90.7866 493.317 90.6532 493.317 90.5643C493.317 90.1196 493.406 89.7638 493.584 89.4969C493.673 89.1412 493.851 88.8298 494.118 88.563C494.385 88.2962 494.829 88.0293 495.452 87.7625C495.808 87.5846 496.253 87.4957 496.786 87.4957H497.187C497.809 87.5846 498.298 87.807 498.654 88.1628C499.099 88.4296 499.944 89.9861 501.189 92.8324C502.523 95.5897 503.235 99.5477 503.324 104.707V112.578C503.235 112.578 503.146 113.379 503.057 114.98C503.057 116.492 502.968 118.048 502.79 119.649L502.39 122.184C502.301 122.184 502.212 122.985 502.123 124.586L501.856 126.987C501.767 126.987 501.634 127.432 501.456 128.322L501.189 129.789C501.1 129.789 501.011 130.189 500.922 130.99C500.922 131.701 500.655 132.591 500.122 133.658C499.588 134.637 499.054 135.215 498.521 135.393L497.587 135.793ZM502.39 119.516C500.967 119.427 500.033 119.249 499.588 118.982C499.232 118.715 498.921 118.226 498.654 117.515C498.387 117.07 498.254 116.625 498.254 116.18C498.254 115.914 498.298 115.691 498.387 115.513C498.476 114.802 498.743 114.224 499.188 113.779C499.721 113.334 501.99 112.534 505.992 111.377C509.995 110.221 512.307 109.554 512.93 109.376C513.552 109.109 514.709 108.62 516.399 107.909H516.666C517.199 107.909 517.688 107.998 518.133 108.175C518.667 108.442 519.112 108.754 519.467 109.109C519.823 109.376 520.134 109.821 520.401 110.444C520.49 110.799 520.535 111.244 520.535 111.778V112.578C520.357 113.379 520.001 114.046 519.467 114.579C518.934 115.024 517.599 115.424 515.465 115.78C515.109 115.78 514.664 115.869 514.131 116.047C513.597 116.225 513.241 116.314 513.063 116.314C512.796 116.314 510.973 116.848 507.593 117.915L502.39 119.516ZM627.204 151.403C626.671 151.403 625.514 151.136 623.735 150.602C621.956 150.158 618.977 149.535 614.796 148.734C610.705 148.023 608.037 147.489 606.791 147.133C605.546 146.867 602.789 146.333 598.519 145.532C594.25 144.732 591.27 144.198 589.58 143.931C587.89 143.665 585.845 143.353 583.443 142.997C581.042 142.553 577.662 142.33 573.303 142.33C568.945 142.241 566.455 142.019 565.832 141.663C565.209 141.219 564.765 140.685 564.498 140.062C564.32 139.706 564.231 139.262 564.231 138.728V138.194C564.32 137.483 564.498 136.949 564.765 136.593C565.12 136.149 565.699 135.704 566.499 135.259C567.3 134.726 567.967 134.325 568.5 134.058C569.123 133.792 569.879 133.302 570.769 132.591C571.747 131.879 572.592 131.301 573.303 130.856C574.015 130.412 575.527 129.255 577.84 127.388C577.929 127.388 577.973 127.343 577.973 127.254C577.973 127.076 577.84 126.943 577.573 126.854C577.217 126.676 576.683 126.32 575.972 125.787C575.349 125.253 574.682 123.607 573.971 120.85C573.882 120.672 573.837 120.494 573.837 120.316C573.837 118.893 574.015 117.87 574.371 117.248C574.727 116.625 574.949 116.047 575.038 115.513C575.216 114.98 575.483 114.491 575.838 114.046V113.912C575.838 113.646 575.394 113.512 574.504 113.512H573.437C571.569 113.69 570.101 113.779 569.034 113.779C567.878 113.779 567.077 113.646 566.633 113.379C566.188 113.112 565.654 112.133 565.032 110.444C565.032 109.732 565.12 109.198 565.298 108.843C565.565 108.398 567.566 107.909 571.302 107.375C575.038 106.752 577.884 106.441 579.841 106.441C581.709 106.441 582.821 106.574 583.176 106.841C583.532 107.108 584.11 108.353 584.911 110.577V110.977C584.911 112.045 584.733 112.89 584.377 113.512L583.71 114.579C583.621 114.579 583.31 115.024 582.776 115.914L581.976 117.381C581.887 117.381 581.709 117.737 581.442 118.449L580.908 119.516C580.819 119.516 580.775 119.738 580.775 120.183C580.775 120.628 581.042 120.984 581.575 121.25C582.198 121.517 583.087 122.273 584.244 123.518C585.489 124.764 586.156 125.92 586.245 126.987V127.654C586.245 128.455 586.156 128.989 585.978 129.255C585.8 129.7 585.444 130.189 584.911 130.723C584.377 131.168 584.066 131.39 583.977 131.39C583.888 131.39 583.666 131.568 583.31 131.924C582.954 132.28 582.732 132.457 582.643 132.457C582.554 132.457 581.887 132.947 580.641 133.925C580.286 134.192 580.108 134.459 580.108 134.726C580.108 135.348 581.175 135.793 583.31 136.06C586.245 136.593 588.38 136.949 589.714 137.127C591.137 137.216 593.939 137.661 598.119 138.461C602.3 139.262 604.79 139.795 605.591 140.062C606.391 140.24 609.059 140.774 613.596 141.663C618.221 142.464 620.934 142.997 621.734 143.264C622.535 143.442 623.113 143.531 623.469 143.531C623.824 143.531 624.358 143.576 625.07 143.665C625.87 143.754 626.804 144.065 627.871 144.598C629.028 145.043 629.784 145.532 630.139 146.066C630.495 146.511 630.718 147.089 630.807 147.801V148.334C630.807 148.779 630.762 149.09 630.673 149.268C630.495 149.624 630.228 149.98 629.873 150.335C629.517 150.691 629.117 150.958 628.672 151.136L627.871 151.403H627.204ZM580.508 101.371C579.885 101.371 579.352 101.282 578.907 101.104C578.462 100.837 577.929 100.215 577.306 99.2364C576.772 98.258 575.572 96.8794 573.704 95.1005C571.925 93.3216 570.591 91.4093 569.701 89.3635C569.701 88.4741 569.79 87.8959 569.968 87.6291C570.146 87.3623 571.08 86.8286 572.77 86.0281H573.17C573.615 86.0281 573.971 86.0725 574.237 86.1615C574.504 86.3394 575.838 87.6291 578.24 90.0306C580.73 92.4321 582.465 94.4779 583.443 96.1678C583.621 96.6126 583.71 97.1018 583.71 97.6354V98.3025C583.621 99.192 583.443 99.8146 583.176 100.17C582.91 100.437 582.554 100.704 582.109 100.971L581.442 101.371H580.508ZM623.869 128.188C622.624 128.099 621.645 127.877 620.934 127.521C620.222 127.165 618.621 125.964 616.131 123.919C613.64 121.873 611.505 120.405 609.727 119.516C607.948 118.538 605.101 117.337 601.188 115.914C597.274 114.491 595.184 113.557 594.917 113.112C594.65 112.667 594.517 112.133 594.517 111.511C594.428 111.422 594.383 111.333 594.383 111.244C594.383 110.71 594.517 110.221 594.784 109.776C594.962 109.332 595.273 108.931 595.718 108.576C596.251 108.22 596.874 107.998 597.585 107.909C598.297 107.909 600.343 108.487 603.723 109.643C607.103 110.799 609.771 111.867 611.728 112.845C613.774 113.823 615.552 114.802 617.064 115.78C618.577 116.759 619.911 117.737 621.067 118.715C622.223 119.694 623.335 120.628 624.402 121.517C625.559 122.318 626.27 122.94 626.537 123.385C626.626 123.741 626.671 124.141 626.671 124.586V125.119C626.582 125.831 626.359 126.409 626.003 126.854C625.737 127.21 625.336 127.521 624.803 127.788L623.869 128.188ZM597.452 130.323C596.829 130.323 596.251 130.234 595.718 130.056C595.273 129.789 594.606 128.722 593.716 126.854C593.627 126.676 593.583 126.498 593.583 126.32C593.583 125.876 593.672 125.52 593.85 125.253C593.939 124.986 594.206 124.63 594.65 124.186C595.184 123.741 595.807 123.385 596.518 123.118C597.319 122.851 598.297 122.14 599.453 120.984C600.61 119.827 601.766 118.582 602.922 117.248C604.078 115.914 605.057 114.668 605.857 113.512C606.747 112.356 608.081 110.666 609.86 108.442C611.639 106.219 612.884 104.039 613.596 101.905C614.396 99.6812 615.152 98.1246 615.864 97.2352C616.664 96.3457 617.42 95.8565 618.132 95.7676H618.399C618.932 95.7676 619.422 95.901 619.866 96.1678C620.4 96.4347 620.8 96.7904 621.067 97.2352C621.334 97.5909 621.512 98.1246 621.601 98.8362V98.9696C621.601 99.7701 621.111 101.505 620.133 104.173C619.066 107.019 617.776 109.421 616.264 111.377L613.996 114.446C613.907 114.446 613.284 115.202 612.128 116.714C611.061 118.226 610.171 119.338 609.46 120.05L608.392 121.25C608.303 121.25 608.037 121.562 607.592 122.184C607.147 122.807 606.436 123.607 605.457 124.586L603.99 126.187C603.901 126.187 603.634 126.498 603.189 127.121C602.744 127.654 601.544 128.544 599.587 129.789L598.253 130.323H597.452ZM589.447 104.707C588.113 104.44 587.179 104.039 586.645 103.506C586.2 102.972 585.934 102.35 585.845 101.638V100.837C585.845 100.482 585.889 100.215 585.978 100.037C586.067 99.6812 586.334 99.2809 586.779 98.8362C587.312 98.3915 589.981 97.6799 594.784 96.7015C599.587 95.7231 602.477 95.1005 603.456 94.8336C604.434 94.5668 608.659 93.8553 616.131 92.699C623.602 91.5427 627.56 90.8311 628.005 90.5643C628.538 90.2974 629.383 90.1196 630.54 90.0306H631.607C632.141 90.0306 632.541 90.0751 632.808 90.164C633.075 90.253 633.386 90.4309 633.742 90.6977C634.097 90.9645 634.542 91.8985 635.076 93.4995C635.076 94.211 634.942 94.7892 634.676 95.2339C634.409 95.6786 632.808 96.2568 629.873 96.9683C627.026 97.6799 625.381 98.0357 624.936 98.0357C624.491 98.0357 621.823 98.4804 616.931 99.3699C612.039 100.17 609.46 100.571 609.193 100.571C608.926 100.571 607.859 100.793 605.991 101.238C604.123 101.682 603.056 101.905 602.789 101.905C602.522 101.905 600.254 102.35 595.984 103.239L589.447 104.707ZM608.526 95.5007C608.081 95.5007 607.592 95.4118 607.058 95.2339C606.613 94.9671 605.946 94.1221 605.057 92.699C604.256 91.2758 603.011 89.408 601.321 87.0954C599.631 84.6939 598.653 83.1374 598.386 82.4258C598.119 81.9811 597.986 81.4919 597.986 80.9582V80.5579C598.075 79.9353 598.253 79.4461 598.519 79.0904C598.875 78.6456 599.364 78.2898 599.987 78.023C600.343 77.8451 600.788 77.7562 601.321 77.7562H601.721C602.344 77.8451 602.833 78.0675 603.189 78.4233C603.634 78.6901 605.012 80.6024 607.325 84.1602C609.638 87.6291 610.927 89.5414 611.194 89.8972C611.461 90.253 611.639 90.6532 611.728 91.098C611.817 91.4537 611.861 91.8095 611.861 92.1653V92.699C611.772 93.2326 611.55 93.7218 611.194 94.1666C610.927 94.5223 610.527 94.8336 609.993 95.1005L609.193 95.5007H608.526ZM668.412 137.261C667.7 137.261 667.3 137.216 667.211 137.127C666.855 136.949 666.321 136.06 665.61 134.459C665.521 134.37 665.476 134.192 665.476 133.925C665.476 133.391 665.565 133.036 665.743 132.858C666.099 131.701 666.9 130.367 668.145 128.855C669.479 127.254 670.724 125.831 671.88 124.586C673.037 123.607 673.793 122.807 674.149 122.184L679.885 115.113L688.424 105.107C688.958 104.929 689.358 104.84 689.625 104.84H690.292C691.715 105.285 692.471 106.174 692.56 107.508V108.175C692.56 108.531 692.516 108.754 692.427 108.843L688.558 113.779L684.822 118.582C684.733 118.582 684.155 119.249 683.088 120.583L681.487 122.718L679.218 125.386L677.084 128.055C676.995 128.055 676.372 128.766 675.216 130.189L673.481 132.324C673.481 132.324 672.992 132.991 672.014 134.325C671.124 135.659 670.457 136.46 670.013 136.727L669.212 137.261H668.412ZM684.822 139.795C683.844 139.618 683.176 139.44 682.821 139.262C682.465 138.995 682.198 138.595 682.02 138.061C681.842 137.527 681.753 137.127 681.753 136.86V136.193C681.842 135.393 682.154 134.281 682.687 132.858C683.31 130.901 683.666 129.433 683.755 128.455C683.755 127.477 683.977 125.475 684.422 122.451C684.866 119.338 685.222 117.337 685.489 116.447C686.023 114.135 686.29 107.998 686.29 98.0357C686.29 91.9874 686.378 88.6964 686.556 88.1628C686.645 87.8959 687.001 87.5401 687.624 87.0954C688.157 86.9175 688.602 86.8286 688.958 86.8286H689.492C690.292 87.0065 690.87 87.2733 691.226 87.6291C691.671 88.2517 692.027 91.765 692.293 98.1691V102.972C692.293 105.729 692.249 107.33 692.16 107.775L692.027 109.109C691.938 109.109 691.893 109.954 691.893 111.644L691.626 115.513L691.359 116.981C691.27 116.981 691.004 118.671 690.559 122.051L689.892 127.121C689.803 127.121 689.758 127.61 689.758 128.588C689.581 129.834 689.403 130.812 689.225 131.524L688.824 132.858C688.736 132.858 688.558 133.436 688.291 134.592C688.113 135.659 687.846 136.682 687.49 137.661C687.135 138.55 686.512 139.173 685.622 139.529L684.822 139.795ZM664.676 114.579C663.431 114.579 662.541 114.001 662.008 112.845C661.83 112.311 661.741 111.956 661.741 111.778C661.741 111.422 661.785 111.2 661.874 111.111C662.052 110.399 662.274 109.91 662.541 109.643C662.986 109.198 663.52 108.887 664.142 108.709C664.854 108.531 665.654 108.398 666.544 108.309C670.19 108.131 674.593 107.197 679.752 105.507C680.908 105.24 682.42 104.929 684.288 104.573C686.245 104.217 687.713 103.995 688.691 103.906C689.758 103.817 691.315 103.595 693.361 103.239C695.406 102.883 697.141 102.483 698.564 102.038C699.364 101.771 700.076 101.638 700.699 101.638H701.232C701.855 101.727 702.389 102.038 702.833 102.572C703.278 103.017 703.5 103.639 703.5 104.44C703.5 105.24 703.323 105.863 702.967 106.308C702.611 106.663 701.766 107.108 700.432 107.642C700.076 107.642 699.542 107.775 698.831 108.042C698.208 108.309 697.497 108.442 696.696 108.442C695.718 108.442 694.473 108.62 692.96 108.976C691.893 109.154 690.781 109.376 689.625 109.643L688.024 109.91C687.579 110.088 685.934 110.399 683.088 110.844L681.753 111.111L676.95 111.911C676.417 111.911 674.415 112.356 670.947 113.245L665.476 114.579H664.676ZM705.101 126.187C704.568 126.187 704.079 126.053 703.634 125.787C703.189 125.609 702.478 124.986 701.499 123.919C700.521 122.94 699.364 122.095 698.03 121.384C696.785 120.583 695.184 119.738 693.227 118.849C690.737 117.693 688.913 116.714 687.757 115.914C686.601 115.113 686.023 114.046 686.023 112.712C686.023 112.089 686.156 111.6 686.423 111.244C686.512 110.888 687.357 110.488 688.958 110.043C691.804 110.043 694.561 110.799 697.23 112.311C699.898 113.735 702.166 115.513 704.034 117.648C705.991 119.694 707.281 121.517 707.903 123.118C707.903 123.919 707.814 124.497 707.636 124.853C707.459 125.208 707.103 125.52 706.569 125.787L705.902 126.187H705.101ZM730.451 151.936C729.472 151.848 728.805 151.759 728.45 151.67C728.183 151.581 727.827 151.269 727.382 150.736C727.026 150.202 726.582 149.224 726.048 147.801C726.048 147.178 726.137 146.689 726.315 146.333C726.404 146.066 726.938 142.909 727.916 136.86C727.916 129.033 727.827 123.874 727.649 121.384C727.56 118.804 727.293 116.447 726.849 114.313C726.671 113.334 726.448 112.089 726.181 110.577C726.004 109.065 725.781 107.108 725.514 104.707V104.039C725.514 103.417 725.559 103.017 725.648 102.839C726.181 101.86 726.982 101.327 728.049 101.238H728.45C728.894 101.238 729.206 101.282 729.383 101.371C730.095 101.727 730.54 102.216 730.718 102.839C730.985 103.461 731.474 105.285 732.185 108.309C732.897 111.422 733.342 114.579 733.519 117.782C733.697 120.984 733.831 125.876 733.92 132.457V136.327V141.53C733.92 144.465 733.875 146.066 733.786 146.333L733.653 147.267C733.564 147.267 733.43 147.623 733.253 148.334C733.075 149.135 732.852 149.802 732.586 150.335C732.319 150.958 731.874 151.403 731.251 151.67L730.451 151.936ZM704.301 135.926C703.145 135.926 702.3 135.437 701.766 134.459C701.588 133.925 701.499 133.525 701.499 133.258V132.724C701.588 131.924 701.899 131.346 702.433 130.99C703.056 130.545 704.079 130.145 705.502 129.789C706.925 129.344 708.526 128.855 710.305 128.322L713.507 127.521L719.511 125.787L724.981 124.853C726.226 124.675 728.138 124.452 730.718 124.186L739.39 123.518C742.948 123.252 745.616 123.029 747.395 122.851C750.508 122.496 753.087 122.273 755.133 122.184C757.179 122.006 758.691 121.873 759.669 121.784H760.203C760.826 121.784 761.226 121.829 761.404 121.917C762.471 122.718 763.049 123.43 763.138 124.052C763.227 124.23 763.272 124.541 763.272 124.986V125.52C763.183 126.142 763.005 126.632 762.738 126.987C762.293 127.432 759.892 127.921 755.533 128.455C751.976 128.455 750.063 128.499 749.796 128.588C749.441 128.677 745.972 128.855 739.39 129.122C738.145 129.211 736.855 129.344 735.521 129.522C734.275 129.611 733.03 129.745 731.785 129.923C730.896 129.923 729.606 130.1 727.916 130.456C726.137 130.812 724.847 130.99 724.047 130.99C723.602 130.99 722.357 131.212 720.311 131.657L716.976 132.324C716.62 132.324 714.574 132.902 710.838 134.058L705.101 135.926H704.301ZM713.907 121.117C712.573 120.939 711.817 120.761 711.639 120.583C711.372 120.494 711.061 120.183 710.705 119.649C710.527 119.116 710.438 118.715 710.438 118.449V117.782C710.616 116.981 710.883 116.403 711.239 116.047C711.594 115.691 714.174 115.158 718.977 114.446L728.316 113.112C731.34 112.667 735.521 112.045 740.857 111.244C746.283 110.444 749.619 109.999 750.864 109.91H752.065C752.865 109.91 753.31 109.954 753.399 110.043C753.754 110.132 754.11 110.444 754.466 110.977C754.822 111.422 755.044 111.956 755.133 112.578V113.245C755.133 113.779 755.089 114.09 755 114.179C754.822 114.624 754.466 115.024 753.932 115.38C753.488 115.736 753.132 115.914 752.865 115.914L751.798 115.78H751.264C750.73 115.78 750.33 115.825 750.063 115.914C749.619 116.003 748.862 116.047 747.795 116.047L744.593 116.314L724.981 119.383C723.024 119.649 721.067 119.916 719.11 120.183L713.907 121.117ZM726.048 102.172C725.336 102.172 724.803 102.038 724.447 101.771C724.18 101.505 723.824 101.06 723.38 100.437C723.024 99.8146 722.535 99.1475 721.912 98.4359C719.866 96.0344 718.132 94.3 716.709 93.2326C715.375 92.0763 714.085 91.1424 712.84 90.4309C711.683 89.7193 710.972 89.1412 710.705 88.6964C710.527 88.3407 710.438 87.8515 710.438 87.2288C710.349 87.1399 710.305 86.962 710.305 86.6952C710.305 86.2504 710.349 85.9836 710.438 85.8947L711.239 84.9607C711.594 84.605 712.262 84.4271 713.24 84.4271C714.574 84.4271 715.997 85.0052 717.509 86.1615C719.11 87.2288 720.667 88.563 722.179 90.164C723.691 91.6761 724.981 93.0103 726.048 94.1666C728.005 96.3012 728.983 97.9912 728.983 99.2364C728.983 100.393 728.583 101.193 727.782 101.638L726.982 102.172H726.048ZM708.437 108.442C708.17 108.442 707.77 108.353 707.236 108.175C706.791 107.998 706.213 107.242 705.502 105.907V105.24C705.502 104.796 705.546 104.529 705.635 104.44C706.169 102.394 707.725 101.06 710.305 100.437C712.973 99.8146 716.842 99.3699 721.912 99.103C726.004 98.9251 729.028 98.7028 730.985 98.4359C737.655 97.5465 742.725 96.9683 746.194 96.7015C749.663 96.3457 753.221 96.0789 756.868 95.901H758.469C759.447 95.901 759.981 95.9455 760.07 96.0344C760.336 96.1234 760.648 96.4347 761.004 96.9683C761.359 97.4131 761.537 97.9912 761.537 98.7028C761.537 100.926 759.803 102.038 756.334 102.038L753.532 101.905H752.998C751.575 101.905 749.752 102.083 747.528 102.438C745.038 102.794 743.392 102.972 742.592 102.972C741.613 102.972 738.901 103.283 734.453 103.906L726.715 104.973C726.181 104.973 723.157 105.552 717.643 106.708L708.971 108.442H708.437ZM731.785 100.837C730.362 100.66 729.428 100.393 728.983 100.037C728.539 99.5922 728.272 99.0141 728.183 98.3025V97.7688C728.183 97.2352 728.227 96.8794 728.316 96.7015C728.761 95.6342 731.029 93.455 735.12 90.164C738.234 87.6736 741.48 85.1386 744.86 82.5592C748.329 79.9798 750.375 78.6901 750.997 78.6901C752.153 78.6901 753.043 79.2238 753.666 80.2911C753.754 80.5579 753.799 80.9582 753.799 81.4919V81.8921L753.399 83.2263L743.392 90.9645C743.214 90.9645 742.014 91.9429 739.79 93.8997L736.054 96.9683C735.965 96.9683 735.788 97.1462 735.521 97.502L732.586 100.304L731.785 100.837Z" fill="black"/>
<path d="M68.2435 577.536C66.3757 577.447 65.2638 577.269 64.9081 577.003C64.5523 576.736 64.0631 575.757 63.4405 574.067C62.9068 572.377 62.551 571.443 62.3731 571.266C62.2842 570.999 62.2397 568.82 62.2397 564.728C62.1508 563.75 62.1063 562.86 62.1063 562.06C62.1063 559.747 62.1952 558.369 62.3731 557.924C62.4621 557.479 62.5065 556.056 62.5065 553.654C62.5955 551.253 62.9068 545.471 63.4405 536.31C63.9741 527.06 64.3299 522.212 64.5078 521.768C64.7746 521.234 65.6641 520.7 67.1762 520.167C67.7988 520.167 68.288 520.3 68.6438 520.567C68.9995 520.745 69.3108 521.056 69.5777 521.501C69.7556 521.768 69.8445 522.746 69.8445 524.436C69.8445 525.859 69.8 527.727 69.7111 530.039L69.3108 537.778C69.2219 537.778 69.133 539.512 69.044 542.981C68.9551 546.45 68.8661 548.451 68.7772 548.985L68.6438 549.785C68.5548 549.785 68.4659 551.031 68.3769 553.521C68.3769 556.011 68.3324 557.479 68.2435 557.924L68.1101 558.591C68.0211 558.591 67.9767 560.37 67.9767 563.928C67.8877 564.817 67.8432 565.618 67.8432 566.329C67.8432 568.375 67.9322 569.531 68.1101 569.798C68.199 570.154 68.3324 570.332 68.5103 570.332C68.5993 570.332 69.044 570.065 69.8445 569.531C70.734 568.909 71.8013 568.064 73.0465 566.996C74.3807 565.84 75.4925 564.995 76.382 564.461C77.2714 563.928 78.6056 562.994 80.3845 561.659C82.1634 560.325 83.4976 559.391 84.3871 558.858C85.3654 558.324 86.2104 558.057 86.922 558.057C87.5446 558.057 88.0338 558.191 88.3896 558.457C88.7454 558.635 89.0567 558.947 89.3235 559.391C89.5014 559.836 89.5903 560.281 89.5903 560.726V561.126C89.5014 561.837 89.1901 562.416 88.6564 562.86C88.2117 563.305 87.9449 563.527 87.8559 563.527C87.767 563.527 87.3222 563.794 86.5217 564.328C85.8102 564.862 85.4099 565.128 85.321 565.128C85.232 565.128 84.7428 565.484 83.8534 566.196C82.9639 566.907 81.4963 567.93 79.4506 569.264C79.3616 569.264 79.0503 569.487 78.5167 569.931C78.0719 570.287 77.8051 570.465 77.7162 570.465C77.6272 570.465 77.2714 570.776 76.6488 571.399C76.0262 572.022 74.692 573.044 72.6463 574.468C72.5573 574.468 72.2016 574.779 71.5789 575.402C70.9563 576.024 70.2448 576.513 69.4443 576.869L68.2435 577.536ZM21.8141 577.536C20.6578 577.536 19.9018 577.447 19.546 577.269C19.1902 577.18 18.6566 576.38 17.945 574.868C17.8561 574.868 17.8116 574.823 17.8116 574.734C17.8116 574.29 17.945 573.845 18.2118 573.4C18.3897 572.867 18.6566 572.377 19.0123 571.933C19.3681 571.399 19.7239 571.043 20.0797 570.865C20.2576 570.776 20.3465 570.598 20.3465 570.332V569.931C20.1686 569.487 20.0352 568.864 19.9463 568.064C19.9463 567.263 19.0123 562.46 17.1445 553.654C16.6108 550.008 16.344 547.74 16.344 546.85C16.344 546.672 16.3885 546.539 16.4774 546.45C16.5663 546.094 16.7887 545.738 17.1445 545.383C17.5892 545.027 18.0784 544.804 18.6121 544.715H19.1458C19.5015 544.715 19.8573 544.76 20.2131 544.849C20.6578 545.027 21.0136 545.338 21.2804 545.783C21.6362 546.227 22.2588 549.118 23.1483 554.455C24.0377 559.703 24.6159 562.816 24.8827 563.794C25.2385 564.684 25.6388 566.418 26.0835 568.997C26.1724 569.531 26.3503 569.798 26.6172 569.798C26.795 569.798 26.9729 569.754 27.1508 569.665C27.6845 569.398 28.3516 568.953 29.1521 568.33C29.9526 567.708 31.2423 566.952 33.0212 566.062C34.8001 565.084 36.0898 564.417 36.8903 564.061C37.6908 563.616 39.3808 562.727 41.9602 561.393C44.5396 560.058 46.1851 559.213 46.8967 558.858C47.6972 558.413 49.0758 557.346 51.0326 555.656C51.3884 555.478 51.7442 555.389 52.0999 555.389H52.767C53.3897 555.567 53.8789 555.878 54.2346 556.323C54.6794 556.768 54.9017 557.435 54.9017 558.324C54.9017 559.302 54.8128 559.925 54.6349 560.192C54.457 560.459 53.7454 561.081 52.5002 562.06C51.255 562.949 50.2321 563.616 49.4316 564.061C48.6311 564.417 48.1864 564.595 48.0974 564.595C47.9195 564.595 47.208 564.95 45.9627 565.662C44.7175 566.285 42.5828 567.396 39.5587 568.997C39.4697 568.997 38.9805 569.353 38.0911 570.065C37.2906 570.776 35.823 571.532 33.6883 572.333C33.5104 572.333 33.1102 572.555 32.4875 573C31.9539 573.445 29.6858 574.645 25.6832 576.602L23.4151 577.536H21.8141ZM31.4202 560.992C30.9755 560.992 30.5752 560.948 30.2194 560.859C29.8637 560.681 29.33 557.079 28.6184 550.052C28.5295 549.607 28.485 549.163 28.485 548.718C28.485 543.292 28.7518 538.845 29.2855 535.376C29.8192 531.729 30.175 529.684 30.3529 529.239C30.6197 528.705 31.5091 528.172 33.0212 527.638C33.6438 527.638 34.133 527.771 34.4888 528.038C34.8446 528.216 35.1559 528.527 35.4227 528.972C35.5117 529.239 35.5561 529.639 35.5561 530.173C35.5561 531.24 35.4227 532.886 35.1559 535.109L34.4888 540.446C34.3999 540.446 34.3109 543.604 34.222 549.919C34.133 556.145 33.5994 559.703 32.621 560.592L31.9539 560.992H31.4202ZM31.9539 555.122C31.5091 555.122 31.1089 555.078 30.7531 554.989C30.3973 554.811 29.8637 553.966 29.1521 552.454C29.0631 552.454 29.0187 552.409 29.0187 552.32C29.0187 551.876 29.1521 551.431 29.4189 550.986C29.5968 550.541 31.776 548.94 35.9564 546.183C40.1368 543.426 42.9831 541.558 44.4951 540.579C46.0072 539.601 46.9411 538.978 47.2969 538.712C47.7416 538.445 48.4087 538.311 49.2982 538.311C50.0987 538.311 50.6768 538.445 51.0326 538.712C51.3884 538.89 51.6997 539.201 51.9665 539.646C52.1444 540.09 52.2334 540.579 52.2334 541.113V541.647C52.1444 542.536 51.8331 543.203 51.2994 543.648C50.8547 544.093 50.5879 544.315 50.4989 544.315C50.321 544.315 50.1432 544.404 49.9653 544.582C49.8763 544.76 48.4087 545.516 45.5625 546.85C45.4735 546.85 43.5167 548.095 39.6921 550.586C35.9564 553.076 33.8217 554.455 33.288 554.722L32.4875 555.122H31.9539ZM21.2804 536.444C19.5905 536.266 18.5231 535.999 18.0784 535.643C17.6337 535.198 16.9666 533.864 16.0771 531.64C15.2766 529.417 14.743 528.127 14.4761 527.771C14.2982 527.416 11.7188 520.433 6.73791 506.825C6.73791 506.202 6.82685 505.713 7.00474 505.357C7.27158 505.001 7.7163 504.69 8.33892 504.423C8.6947 504.245 9.05048 504.156 9.40626 504.156H10.0733C10.696 504.334 11.1407 504.601 11.4075 504.957C11.7633 505.224 13.2754 508.737 15.9437 515.497C18.6121 522.168 20.1242 526.215 20.4799 527.638C20.9247 529.061 21.5028 530.039 22.2144 530.573C23.0149 531.107 23.4151 531.907 23.4151 532.975C23.4151 534.131 23.2817 534.887 23.0149 535.243C22.748 535.599 22.3923 535.865 21.9475 536.043L21.2804 536.444ZM21.8141 535.91C21.3694 535.91 20.9247 535.821 20.4799 535.643C20.1242 535.465 19.635 534.665 19.0123 533.242C18.9234 533.153 18.8789 533.064 18.8789 532.975C18.8789 532.619 18.9679 532.308 19.1458 532.041C19.2347 531.685 19.4126 531.374 19.6794 531.107C20.0352 530.751 23.8599 529.194 31.1534 526.437C38.4469 523.68 42.4939 522.257 43.2944 522.168H43.828C44.3617 522.168 44.8064 522.212 45.1622 522.301C45.518 522.479 45.8738 522.79 46.2296 523.235C46.6743 523.68 46.8967 524.258 46.8967 524.97C46.8967 525.77 46.7632 526.348 46.4964 526.704C46.2296 527.06 45.4735 527.46 44.2283 527.905C43.8725 527.905 43.6057 527.994 43.4278 528.172C43.2499 528.261 43.1165 528.305 43.0275 528.305C42.8497 528.305 39.3808 529.55 32.621 532.041L22.3478 535.91H21.8141ZM39.4253 529.506C38.6248 529.506 38.0466 529.461 37.6908 529.372C37.335 529.194 36.8014 528.35 36.0898 526.837C36.0009 526.749 35.9564 526.66 35.9564 526.571C35.9564 526.215 36.0453 525.904 36.2232 525.637C36.3122 525.281 36.4901 524.97 36.7569 524.703C37.1127 524.347 37.5574 524.036 38.0911 523.769C38.6248 523.413 39.3808 522.479 40.3592 520.967C41.3376 519.455 42.6273 516.653 44.2283 512.562C44.9399 511.228 45.2956 510.294 45.2956 509.76C45.2956 509.315 45.1178 509.093 44.762 509.093H44.6286C43.5612 509.36 41.3376 509.804 37.9577 510.427C34.5777 510.961 32.7544 511.228 32.4875 511.228C32.2207 511.228 28.9742 512.028 22.748 513.629C16.5219 515.23 13.0085 516.031 12.208 516.031C11.4075 516.031 10.8294 515.897 10.4736 515.63C10.1178 515.364 9.85099 514.963 9.6731 514.43C9.49521 514.163 9.40626 513.851 9.40626 513.496C9.40626 513.229 9.45073 512.962 9.53968 512.695C9.62862 512.073 9.85099 511.583 10.2068 511.228C10.6515 510.872 15.0543 509.76 23.4151 507.892C31.776 505.935 37.3795 504.69 40.2258 504.156C43.072 503.623 45.518 502.956 47.5637 502.155C49.6095 501.355 51.166 500.954 52.2334 500.954C53.2118 500.954 53.8789 501.088 54.2346 501.355C54.5904 501.533 54.9017 501.844 55.1686 502.289C55.3464 502.733 55.4354 503.178 55.4354 503.623V504.023C55.3465 504.735 54.9462 505.446 54.2346 506.158L53.1673 507.358C53.0783 507.358 52.9005 507.67 52.6336 508.292C52.4557 508.915 51.6997 510.605 50.3655 513.362L48.2308 517.632C48.1419 517.632 48.0085 518.032 47.8306 518.832C47.6527 519.544 46.8967 521.145 45.5625 523.635L44.4951 525.37C44.4062 525.37 44.2283 525.681 43.9615 526.304C43.7836 526.926 43.0275 527.771 41.6934 528.839L40.4926 529.506H39.4253ZM102.932 562.593C101.42 562.593 100.531 562.549 100.264 562.46C99.9969 562.282 99.3298 562.104 98.2625 561.926C97.1952 561.659 95.1939 561.126 92.2587 560.325C89.3235 559.436 87.2333 558.902 85.9881 558.724C84.8318 558.546 83.5865 558.457 82.2524 558.457C81.0071 558.369 79.584 558.235 77.983 558.057C76.382 557.79 75.4036 557.524 75.0478 557.257C74.692 556.99 74.1584 556.011 73.4468 554.322C73.3578 554.233 73.3134 554.099 73.3134 553.921C73.3134 553.477 73.4023 553.121 73.5802 552.854C73.6692 552.498 73.9805 552.053 74.5141 551.52C75.1367 550.986 75.8928 550.586 76.7822 550.319C77.6717 550.052 78.4277 549.83 79.0503 549.652C79.7619 549.385 82.9195 548.496 88.523 546.984C94.1265 545.471 97.2841 544.715 97.9957 544.715C98.7072 544.715 99.2409 544.849 99.5967 545.116C99.9525 545.294 100.264 545.605 100.531 546.05C100.708 546.494 100.797 546.939 100.797 547.384V547.784C100.708 548.496 100.442 549.074 99.9969 549.518C99.6412 549.874 97.2841 550.541 92.9258 551.52C88.9233 552.409 86.922 552.898 86.922 552.987H87.0554C87.5001 553.076 88.9677 553.477 91.4582 554.188C94.0376 554.811 96.4836 555.478 98.7962 556.189H99.063C99.4188 556.189 99.6856 556.011 99.8635 555.656C100.041 555.3 100.308 554.989 100.664 554.722C101.109 554.455 101.687 554.322 102.398 554.322C103.021 554.322 103.599 554.455 104.133 554.722C104.667 554.989 105.689 556.456 107.201 559.125C107.201 560.281 107.068 561.037 106.801 561.393C106.534 561.748 106.179 562.015 105.734 562.193L105.067 562.593H102.932ZM66.6425 545.516C65.4862 545.427 64.7302 545.249 64.3744 544.982C64.0186 544.715 63.7518 544.315 63.5739 543.782C63.396 543.515 63.307 543.203 63.307 542.848C63.307 542.581 63.3515 542.314 63.4405 542.047C63.5294 541.424 63.7518 540.935 64.1075 540.579C64.5523 540.224 68.5103 539.023 75.9817 536.977C83.4531 534.843 87.4557 533.642 87.9893 533.375C88.6119 533.108 89.279 532.708 89.9906 532.174C90.3464 531.996 90.7022 531.907 91.0579 531.907H91.725C92.3476 532.085 92.8368 532.397 93.1926 532.841C93.6373 533.286 93.8597 533.953 93.8597 534.843C93.8597 535.821 93.7263 536.488 93.4595 536.844C93.2816 537.111 92.7034 537.511 91.725 538.045C91.5471 538.045 91.2358 538.178 90.7911 538.445C90.3464 538.712 85.8991 540.09 77.4493 542.581L66.6425 545.516ZM75.3146 528.438C73.8915 528.261 72.9576 527.949 72.5129 527.505C72.1571 527.06 71.9347 526.526 71.8458 525.904V525.37C71.8458 525.014 71.8903 524.747 71.9792 524.569C72.0681 524.214 72.2905 523.858 72.6463 523.502C73.091 523.146 76.4709 522.435 82.786 521.367C89.1011 520.211 92.7034 519.633 93.5929 519.633C94.3934 519.633 94.9715 519.766 95.3273 520.033C95.6831 520.211 95.9944 520.522 96.2612 520.967C96.4391 521.412 96.5281 521.857 96.5281 522.301V522.702C96.4391 523.413 96.1278 523.991 95.5941 524.436C95.1494 524.881 94.8381 525.103 94.6602 525.103C94.4823 525.103 94.1265 525.236 93.5929 525.503C93.0592 525.681 92.5255 525.77 91.9919 525.77C91.3692 525.77 88.4341 526.215 83.1863 527.104L75.3146 528.438ZM95.4607 538.578C93.7708 538.4 92.7034 538.133 92.2587 537.778C91.814 537.333 91.4137 536.888 91.0579 536.444C90.7911 535.91 90.5243 535.376 90.2574 534.843C90.0795 534.487 89.9906 534.086 89.9906 533.642C89.9906 533.464 90.0351 533.242 90.124 532.975C90.213 532.352 90.4353 531.863 90.7911 531.507C91.2358 531.151 91.8584 530.306 92.659 528.972C93.5484 527.549 93.9931 526.304 93.9931 525.236C94.0821 524.08 94.3044 522.346 94.6602 520.033C95.016 517.721 95.2384 516.386 95.3273 516.031C95.5052 515.586 95.7276 513.896 95.9944 510.961C96.0833 510.694 96.1278 510.516 96.1278 510.427V510.294C96.0389 510.383 95.4607 510.605 94.3934 510.961C93.326 511.228 92.3476 511.361 91.4582 511.361C90.5687 511.361 89.9906 511.405 89.7238 511.494C89.5459 511.583 82.5637 512.606 68.7772 514.563C68.3324 514.563 67.8877 514.474 67.443 514.296C67.0872 514.118 66.598 513.318 65.9754 511.895C65.8865 511.806 65.842 511.717 65.842 511.628C65.842 511.272 65.9309 510.961 66.1088 510.694C66.1978 510.338 66.4201 509.982 66.7759 509.627C67.2206 509.271 70.9119 508.559 77.8496 507.492C84.7873 506.425 89.1011 505.802 90.7911 505.624C92.4811 505.446 94.5268 505.09 96.9283 504.557H98.1291C99.1075 504.557 99.7746 504.601 100.13 504.69C100.486 504.868 100.842 505.179 101.198 505.624C101.642 506.069 101.909 507.181 101.998 508.959V510.56C101.998 511.45 101.954 511.984 101.865 512.161L101.731 512.562C101.642 512.562 101.553 513.229 101.465 514.563L101.198 516.698C101.109 516.698 101.02 517.231 100.931 518.299C100.931 519.277 100.797 520.344 100.531 521.501L100.13 523.369C100.041 523.369 99.9525 523.947 99.8635 525.103C99.8635 526.259 99.7301 527.416 99.4633 528.572L99.063 530.306C98.9741 530.306 98.8851 530.796 98.7962 531.774C98.7962 532.663 98.7517 533.242 98.6628 533.508L98.5293 533.909C98.4404 533.909 98.307 534.353 98.1291 535.243C98.0401 536.132 97.373 537.111 96.1278 538.178L95.4607 538.578ZM231.752 578.07C228.995 577.981 227.127 577.759 226.149 577.403C225.259 577.136 223.969 576.335 222.28 575.001C220.59 573.667 218.811 572.111 216.943 570.332C215.164 568.553 213.385 566.596 211.606 564.461C209.916 562.327 208.715 560.681 208.004 559.525C207.381 558.28 206.269 556.634 204.668 554.588C203.067 552.454 201.155 549.474 198.931 545.649C196.708 541.736 195.018 538.4 193.862 535.643C192.705 532.797 191.994 530.529 191.727 528.839C191.549 527.149 191.104 525.103 190.393 522.702C189.681 520.3 189.236 517.81 189.058 515.23C188.97 512.562 188.925 509.493 188.925 506.024C188.836 505.668 188.792 505.268 188.792 504.824C188.792 502.155 188.97 500.643 189.325 500.287C189.592 499.843 189.948 499.487 190.393 499.22C190.837 498.953 191.416 498.82 192.127 498.82C192.75 498.82 193.283 498.953 193.728 499.22C194.262 499.487 194.751 502.289 195.196 507.625C195.64 512.873 195.952 516.342 196.13 518.032C196.308 519.633 196.752 521.857 197.464 524.703C198.175 527.549 198.665 529.283 198.931 529.906C199.287 530.529 200.666 533.33 203.067 538.311C205.558 543.203 207.248 546.361 208.137 547.784C209.027 549.207 210.272 551.075 211.873 553.388C213.474 555.611 214.719 557.212 215.609 558.191C216.587 559.169 218.144 560.903 220.278 563.394C222.413 565.884 224.236 567.663 225.748 568.731C226.371 569.264 226.86 569.531 227.216 569.531C227.75 569.531 228.061 568.997 228.15 567.93C228.15 566.329 228.194 565.395 228.283 565.128C228.372 564.862 228.773 564.417 229.484 563.794C230.196 563.172 230.907 562.86 231.619 562.86C232.241 562.86 232.775 562.994 233.22 563.261C233.753 563.527 234.332 565.573 234.954 569.398V570.598C234.954 572.822 234.821 574.29 234.554 575.001C234.287 575.802 234.02 576.38 233.753 576.736C233.487 577.091 233.086 577.403 232.553 577.67L231.752 578.07ZM144.23 558.858C142.985 558.769 142.14 558.591 141.695 558.324C141.25 558.057 140.895 557.612 140.628 556.99C140.361 556.545 140.228 556.056 140.228 555.522V554.989C140.317 554.366 140.494 553.877 140.761 553.521C141.117 553.076 146.498 550.097 156.905 544.582C167.311 538.978 173.093 535.821 174.249 535.109C175.494 534.398 176.473 534.042 177.184 534.042C177.807 534.042 178.341 534.175 178.785 534.442C179.319 534.709 179.897 535.599 180.52 537.111V537.377C180.52 537.911 180.431 538.356 180.253 538.712C179.986 539.245 179.497 539.779 178.785 540.313C178.163 540.757 173.715 543.07 165.444 547.25C165.355 547.25 161.797 549.163 154.77 552.987L144.23 558.858ZM163.042 571.132C161.619 571.132 160.685 571.043 160.24 570.865C159.884 570.687 159.173 570.198 158.106 569.398C157.127 568.508 155.971 567.396 154.637 566.062C153.303 564.728 152.502 563.794 152.235 563.261C152.057 562.905 151.968 562.504 151.968 562.06C151.968 561.793 152.013 561.526 152.102 561.259C152.191 560.548 152.369 560.014 152.635 559.658C152.991 559.302 153.48 558.991 154.103 558.724C154.37 558.635 154.681 558.591 155.037 558.591C155.393 558.591 155.749 558.635 156.104 558.724C156.816 558.902 157.705 559.525 158.773 560.592C159.84 561.659 160.774 562.46 161.574 562.994C162.019 563.349 162.375 563.527 162.642 563.527C162.82 563.527 162.953 563.438 163.042 563.261C163.309 562.905 163.442 562.327 163.442 561.526C163.531 560.637 163.931 559.258 164.643 557.39C165.355 555.433 165.933 552.765 166.377 549.385C166.911 545.916 167.222 541.958 167.311 537.511V536.977C167.311 532.797 166.867 528.794 165.977 524.97C165.177 521.59 164.776 519.411 164.776 518.432C164.776 518.254 164.821 518.121 164.91 518.032C164.999 517.32 165.177 516.787 165.444 516.431C165.799 516.075 166.289 515.764 166.911 515.497C167.178 515.408 167.489 515.364 167.845 515.364C168.201 515.364 168.557 515.408 168.912 515.497C169.624 515.675 170.158 515.986 170.513 516.431C170.958 516.876 172.159 523.591 174.116 536.577V537.778C174.116 541.869 173.893 545.471 173.449 548.585C173.004 552.053 172.693 554.277 172.515 555.255L172.114 556.856C172.025 556.856 171.759 557.524 171.314 558.858L170.647 560.859C170.558 560.859 170.469 561.482 170.38 562.727C170.291 563.972 170.113 564.817 169.846 565.262L169.446 566.062C169.357 566.062 169.09 566.507 168.646 567.396C168.201 568.286 167.267 569.398 165.844 570.732L165.043 571.132H163.042ZM137.826 539.112C136.581 539.023 135.736 538.845 135.291 538.578C134.846 538.311 134.491 537.867 134.224 537.244C133.957 536.799 133.824 536.31 133.824 535.776C133.824 535.599 133.868 535.376 133.957 535.109C134.046 534.398 134.357 533.82 134.891 533.375C135.425 532.841 140.984 531.596 151.568 529.639C162.242 527.682 169.846 526.348 174.383 525.637C178.919 524.925 183.588 523.991 188.391 522.835C193.283 521.59 195.996 520.7 196.53 520.167C197.064 519.633 197.775 519.233 198.665 518.966C199.643 518.699 201.111 518.566 203.067 518.566C205.024 518.566 206.225 518.699 206.67 518.966C207.114 519.233 207.604 520.211 208.137 521.901C208.137 522.701 208.004 523.324 207.737 523.769C207.47 524.125 206.047 524.792 203.468 525.77C200.977 526.66 199.599 527.104 199.332 527.104C199.065 527.104 197.597 527.46 194.929 528.172C192.261 528.794 190.837 529.106 190.66 529.106C190.393 529.106 189.236 529.417 187.191 530.039C185.234 530.573 179.63 531.596 170.38 533.108C170.113 533.108 169.046 533.464 167.178 534.175C165.31 534.798 159.973 535.776 151.168 537.111L137.826 539.112ZM188.391 569.531C187.502 569.531 186.79 569.398 186.257 569.131C185.723 568.864 185.145 567.886 184.522 566.196C184.522 565.484 184.611 564.95 184.789 564.595C185.056 564.239 185.59 563.483 186.39 562.327C187.191 561.081 187.813 560.325 188.258 560.058C188.703 559.792 189.236 559.658 189.859 559.658C190.393 559.658 190.971 559.391 191.593 558.858C192.216 558.324 193.639 557.079 195.863 555.122C198.086 553.076 199.687 551.653 200.666 550.853C201.733 549.963 205.247 547.517 211.206 543.515C217.254 539.423 221.123 536.977 222.813 536.177C224.236 535.465 225.259 535.109 225.882 535.109H226.149C226.771 535.198 227.26 535.421 227.616 535.776C228.061 536.043 228.417 536.444 228.684 536.977C228.861 537.333 228.95 537.778 228.95 538.311V538.845C228.861 539.557 228.684 540.09 228.417 540.446C228.15 540.802 222.28 544.048 210.806 550.186C210.717 550.186 210.272 550.719 209.471 551.787C208.671 552.765 207.025 554.322 204.535 556.456C204.446 556.456 203.957 557.034 203.067 558.191C202.178 559.258 200.399 560.77 197.731 562.727C197.642 562.727 196.841 563.349 195.329 564.595C193.906 565.751 193.15 566.329 193.061 566.329C192.972 566.329 192.616 566.729 191.994 567.53C191.46 568.33 190.926 568.864 190.393 569.131L189.592 569.531H188.391ZM149.7 517.765C148.989 517.765 148.499 517.721 148.233 517.632C147.966 517.543 147.343 516.92 146.365 515.764C146.187 515.319 146.098 514.874 146.098 514.43V513.896C146.187 513.273 146.365 512.784 146.632 512.428C146.987 511.984 148.099 511.405 149.967 510.694C151.924 509.982 153.303 509.493 154.103 509.226C154.992 508.959 164.109 506.914 181.454 503.089C182.165 503.089 182.743 503.223 183.188 503.489C183.633 503.756 184.167 504.646 184.789 506.158V506.558C184.789 507.003 184.745 507.358 184.656 507.625C184.478 507.981 184.122 508.381 183.588 508.826C183.144 509.271 175.939 511.094 161.975 514.296C161.708 514.296 160.107 514.696 157.172 515.497C154.325 516.209 152.858 516.564 152.769 516.564C152.591 516.564 152.458 516.653 152.369 516.831C152.28 516.92 151.968 517.098 151.435 517.365L150.634 517.765H149.7ZM226.015 518.299C225.304 518.299 224.726 518.21 224.281 518.032C223.836 517.765 220.278 516.386 213.607 513.896C206.936 511.317 203.423 509.804 203.067 509.36C202.801 508.826 202.667 508.159 202.667 507.358C202.667 506.647 202.801 506.069 203.067 505.624C203.423 505.179 204.402 504.69 206.003 504.156C206.714 504.156 210.183 505.357 216.409 507.759C222.635 510.071 226.238 511.494 227.216 512.028C228.283 512.473 228.95 512.918 229.217 513.362C229.395 513.807 229.484 514.252 229.484 514.696V515.23C229.395 516.031 229.217 516.609 228.95 516.965C228.684 517.32 228.283 517.632 227.75 517.898L226.949 518.299H226.015ZM341.208 567.663C339.785 567.574 338.228 567.308 336.538 566.863C334.937 566.418 333.247 565.795 331.468 564.995C329.778 564.194 324.62 561.081 315.992 555.656C307.364 550.141 302.606 546.583 301.716 544.982L301.583 544.315C301.494 543.959 301.494 543.693 301.583 543.515C301.672 543.159 301.805 542.848 301.983 542.581C302.25 542.225 302.695 541.914 303.317 541.647C303.673 541.469 304.029 541.424 304.385 541.513L305.185 541.647C305.808 541.825 310.122 544.493 318.127 549.652C326.221 554.722 331.024 557.657 332.536 558.457C334.048 559.169 335.382 559.703 336.538 560.058C337.695 560.414 339.029 560.726 340.541 560.992C342.053 561.17 343.031 561.437 343.476 561.793C343.921 562.149 344.321 562.549 344.677 562.994C345.033 563.438 345.21 563.883 345.21 564.328V564.862C345.299 565.662 345.21 566.285 344.944 566.729C344.766 567.085 344.41 567.352 343.876 567.53L343.209 567.797L341.208 567.663ZM270.897 566.196C269.563 566.018 268.629 565.795 268.095 565.529C267.65 565.262 267.25 564.773 266.894 564.061C266.449 563.616 266.227 563.083 266.227 562.46V561.793C266.138 560.992 266.227 560.414 266.494 560.058C266.761 559.614 271.119 555.033 279.569 546.316C288.108 537.6 292.555 533.108 292.911 532.841C293.355 532.574 293.934 532.485 294.645 532.574C295.268 532.663 295.757 532.797 296.113 532.975C296.557 533.153 297.313 534.086 298.381 535.776L298.514 536.043C298.781 536.488 298.737 536.933 298.381 537.377C298.025 537.822 293.578 542.625 285.039 551.787C276.589 560.859 272.098 565.529 271.564 565.795L270.897 566.196ZM284.505 537.111C283.794 537.111 283.127 536.933 282.504 536.577C281.97 536.221 281.125 534.531 279.969 531.507C279.88 531.507 279.836 531.418 279.836 531.24C279.836 529.194 279.747 525.681 279.569 520.7C279.391 515.452 279.48 512.651 279.836 512.295C280.28 511.939 281.259 511.539 282.771 511.094C283.394 511.094 283.972 511.272 284.505 511.628C285.039 511.895 285.751 512.829 286.64 514.43V514.563C286.729 515.364 286.729 517.854 286.64 522.034L286.507 528.705C286.418 528.705 286.462 529.239 286.64 530.306C286.551 530.573 286.507 530.796 286.507 530.973C286.507 531.774 286.685 532.308 287.04 532.574C287.129 532.841 287.218 533.153 287.307 533.508L287.441 534.175C287.441 534.976 287.352 535.554 287.174 535.91C286.996 536.177 286.64 536.444 286.106 536.71L285.439 537.111H284.505ZM270.63 541.113C266.183 540.313 263.737 539.779 263.292 539.512C262.936 539.156 262.58 538.667 262.225 538.045C261.869 537.689 261.691 537.244 261.691 536.71V536.31C261.691 535.687 261.78 535.198 261.958 534.843C262.225 534.398 262.669 534.042 263.292 533.775C263.559 533.686 264.048 533.642 264.76 533.642C265.115 533.642 265.605 533.686 266.227 533.775C266.583 533.953 267.028 534.042 267.561 534.042C269.162 534.042 271.519 533.953 274.632 533.775C278.813 533.508 282.415 533.464 285.439 533.642C288.463 533.731 294.645 533.775 303.984 533.775C313.413 533.686 318.438 533.597 319.061 533.508C319.772 533.419 321.195 533.33 323.33 533.242C325.465 533.153 326.799 532.975 327.332 532.708C327.599 532.708 327.911 532.708 328.266 532.708C328.622 532.708 328.978 532.752 329.334 532.841C330.134 533.019 330.757 533.33 331.202 533.775C331.646 534.22 332.047 534.665 332.402 535.109C332.58 535.554 332.714 536.043 332.803 536.577L332.936 537.111C332.936 537.911 332.758 538.578 332.402 539.112C332.047 539.557 330.09 539.957 326.532 540.313C323.864 540.135 321.996 540.135 320.928 540.313C319.95 540.402 317.548 540.357 313.724 540.179C309.81 540.001 305.007 540.046 299.315 540.313C293.711 540.491 289.709 540.535 287.307 540.446C284.817 540.357 282.86 540.357 281.437 540.446C280.014 540.446 279.08 540.446 278.635 540.446C278.19 540.357 276.723 540.446 274.232 540.713L270.63 541.113ZM298.914 571.933C298.203 571.933 297.536 571.799 296.913 571.532C296.38 571.177 295.579 569.442 294.512 566.329H294.378C294.022 564.017 293.622 552.365 293.178 531.374C292.733 510.027 292.599 499.131 292.777 498.686C293.044 498.242 293.934 497.797 295.446 497.352C296.157 497.352 296.735 497.486 297.18 497.752C297.625 498.019 298.336 498.998 299.315 500.688V500.821C299.315 501.799 299.626 512.473 300.249 532.841C300.871 553.032 301.138 563.483 301.049 564.194C301.138 564.283 301.36 565.173 301.716 566.863L301.983 568.33C302.161 569.131 302.161 569.62 301.983 569.798C301.983 570.065 301.85 570.376 301.583 570.732C301.316 570.999 300.96 571.266 300.515 571.532L299.848 571.933H298.914ZM305.452 537.644C304.918 537.644 304.34 537.511 303.718 537.244C303.184 536.888 302.517 535.954 301.716 534.442L301.583 533.775C301.494 533.508 301.494 533.242 301.583 532.975C301.672 532.708 301.672 532.263 301.583 531.64C301.583 531.018 302.383 527.593 303.984 521.367C305.674 515.141 306.697 511.939 307.053 511.761C307.498 511.494 308.076 511.361 308.787 511.361C309.41 511.361 309.988 511.539 310.522 511.895C311.056 512.161 311.723 513.184 312.523 514.963C312.701 515.764 312.123 518.877 310.789 524.303L308.787 532.441C308.698 532.441 308.654 532.797 308.654 533.508C308.743 534.22 308.521 535.02 307.987 535.91C307.542 536.71 307.142 537.155 306.786 537.244L306.119 537.644H305.452ZM268.228 512.695C267.695 512.606 267.206 512.517 266.761 512.428C266.405 512.339 265.738 511.672 264.76 510.427C264.493 510.16 264.359 509.804 264.359 509.36C264.359 509.182 264.359 508.915 264.359 508.559C264.359 507.848 264.448 507.314 264.626 506.958C264.893 506.602 266.894 506.336 270.63 506.158C274.366 505.98 276.634 505.846 277.434 505.757C278.235 505.668 281.214 505.58 286.373 505.491C291.621 505.402 295.668 505.402 298.514 505.491C301.36 505.58 305.096 505.58 309.721 505.491C314.346 505.402 316.97 505.313 317.593 505.224C318.216 505.046 319.772 504.957 322.263 504.957C324.842 504.868 326.754 504.824 328 504.824H329.067C329.69 504.824 330.134 504.912 330.401 505.09C330.668 505.268 331.024 505.535 331.468 505.891C332.002 506.158 332.447 506.513 332.803 506.958C332.98 507.403 333.114 507.848 333.203 508.292L333.336 508.826C333.336 509.627 333.203 510.205 332.936 510.56C332.758 510.916 331.735 511.317 329.867 511.761C328.978 511.761 328.266 511.806 327.733 511.895C327.288 511.984 326.043 511.984 323.997 511.895C321.862 511.806 320.306 511.85 319.327 512.028C318.438 512.117 317.104 512.117 315.325 512.028C313.546 511.939 311.189 511.984 308.254 512.161C305.407 512.339 302.784 512.384 300.382 512.295C297.892 512.206 295.045 512.25 291.843 512.428C288.73 512.606 286.151 512.651 284.105 512.562C282.059 512.473 280.414 512.473 279.169 512.562C278.012 512.651 276.233 512.651 273.832 512.562C271.341 512.384 269.874 512.384 269.429 512.562L268.895 512.829L268.228 512.695ZM442.55 570.198C441.305 570.198 439.882 569.842 438.281 569.131C436.68 568.33 434.812 567.174 432.677 565.662C430.632 564.15 429.164 563.127 428.274 562.593C427.385 561.971 426.807 561.348 426.54 560.726C426.273 560.281 426.14 559.792 426.14 559.258V558.724C426.318 558.102 426.54 557.657 426.807 557.39C427.074 557.034 428.008 556.59 429.609 556.056C430.231 556.056 431.032 556.323 432.01 556.856C433.078 557.39 434.545 558.413 436.413 559.925C438.37 561.348 439.704 562.149 440.416 562.327V562.46C441.572 562.46 442.15 556.1 442.15 543.381V541.914C442.061 529.817 441.794 521.501 441.349 516.965C440.549 512.873 440.149 510.294 440.149 509.226C440.149 509.137 440.238 509.048 440.416 508.959C440.504 508.248 440.682 507.714 440.949 507.358C441.305 507.003 441.794 506.691 442.417 506.425C442.684 506.336 442.995 506.336 443.351 506.425C443.706 506.513 444.062 506.558 444.418 506.558C445.13 506.558 445.663 506.825 446.019 507.358C446.464 507.892 447.398 520.344 448.821 544.715L448.554 554.322C448.287 562.593 448.065 566.863 447.887 567.13C447.709 567.485 447.309 567.975 446.686 568.597C446.152 569.131 445.619 569.531 445.085 569.798L444.285 570.198H442.55ZM379.31 566.329C378.776 566.329 378.243 566.196 377.709 565.929C377.175 565.573 376.642 564.639 376.108 563.127V562.46C376.108 562.104 376.153 561.837 376.242 561.659C376.419 561.304 376.775 560.903 377.309 560.459C377.843 560.014 384.958 558.546 398.656 556.056C412.353 553.477 419.424 552.187 419.869 552.187C420.136 552.098 420.447 552.053 420.803 552.053H421.47C422.004 552.142 422.449 552.365 422.804 552.72C423.249 553.076 423.605 553.477 423.872 553.921C423.961 554.366 424.005 554.811 424.005 555.255V555.789C423.916 556.59 423.649 557.257 423.205 557.79C422.76 558.235 421.737 558.724 420.136 559.258C419.691 559.258 419.38 559.302 419.202 559.391C419.113 559.391 412.576 560.548 399.59 562.86L379.977 566.329H379.31ZM375.708 551.787C374.196 551.52 373.217 551.208 372.773 550.853C372.417 550.497 372.195 550.052 372.106 549.518C371.928 549.252 371.839 548.896 371.839 548.451C371.839 548.273 371.883 548.006 371.972 547.651C372.061 546.939 372.372 546.361 372.906 545.916C373.529 545.471 380.244 544.182 393.052 542.047C405.86 539.823 412.487 538.667 412.931 538.578C413.198 538.489 413.51 538.445 413.865 538.445H414.532C415.066 538.534 415.511 538.756 415.867 539.112C416.222 539.468 416.534 539.868 416.801 540.313C416.978 540.757 417.067 541.202 417.067 541.647V542.18C416.89 542.981 416.578 543.648 416.133 544.182C415.689 544.626 414.666 545.116 413.065 545.649C412.442 545.649 406.083 546.672 393.986 548.718L375.708 551.787ZM396.654 561.126C395.765 561.126 395.053 560.992 394.52 560.726C393.986 560.37 393.452 559.436 392.919 557.924V557.257C392.919 556.901 392.963 556.634 393.052 556.456C393.141 556.1 393.364 555.745 393.719 555.389C394.075 555.033 394.431 551.164 394.787 543.782C395.231 536.399 395.587 532.53 395.854 532.174C396.121 531.818 397.099 531.418 398.789 530.973C399.412 530.973 399.945 531.151 400.39 531.507C400.835 531.774 401.235 536.399 401.591 545.383L401.458 548.585C401.191 554.633 400.924 557.924 400.657 558.457C400.39 559.08 400.123 559.569 399.857 559.925C399.59 560.192 399.189 560.459 398.656 560.726L397.855 561.126H396.654ZM381.979 535.51C379.31 535.421 377.709 535.243 377.175 534.976C376.731 534.62 376.197 533.553 375.574 531.774C375.486 531.596 375.441 531.463 375.441 531.374C375.441 530.84 375.574 530.44 375.841 530.173C375.93 529.817 376.242 529.372 376.775 528.839C377.309 528.305 378.643 526.926 380.778 524.703C383.001 522.479 386.203 519.677 390.384 516.297C394.564 512.918 396.966 511.139 397.588 510.961C397.944 510.783 398.344 510.694 398.789 510.694H399.456C400.168 510.872 400.746 511.272 401.191 511.895C401.635 512.428 401.902 513.051 401.991 513.763V514.296C401.991 514.83 401.947 515.23 401.858 515.497C401.502 516.031 399.545 517.765 395.987 520.7C392.43 523.546 390.606 524.97 390.517 524.97C390.428 524.97 389.806 525.503 388.649 526.571C388.027 527.104 387.715 527.505 387.715 527.771C387.715 528.038 388.027 528.172 388.649 528.172C388.916 528.172 389.228 528.172 389.583 528.172C391.451 527.905 394.253 527.505 397.989 526.971C401.724 526.348 404.348 525.681 405.86 524.97C406.127 524.881 406.438 524.836 406.794 524.836H407.461C407.995 524.925 408.44 525.147 408.795 525.503C409.24 525.859 409.596 526.259 409.863 526.704C409.952 527.149 409.996 527.593 409.996 528.038V528.572C409.907 529.372 409.685 529.995 409.329 530.44C408.973 530.884 408.173 531.374 406.928 531.907C405.771 532.441 403.37 533.019 399.723 533.642C396.076 534.175 394.12 534.442 393.853 534.442C393.586 534.353 392.207 534.531 389.717 534.976L385.848 535.643L381.979 535.51ZM415.466 533.909C414.755 533.82 414.088 533.686 413.465 533.508C412.842 533.242 409.329 530.484 402.925 525.236C402.747 524.792 402.658 524.303 402.658 523.769C402.658 523.591 402.703 523.369 402.792 523.102C402.881 522.39 403.059 521.857 403.325 521.501C403.681 521.145 404.17 520.878 404.793 520.7C405.149 520.611 405.505 520.567 405.86 520.567H406.661C407.283 520.745 408.84 521.768 411.33 523.635C413.821 525.503 415.6 526.793 416.667 527.505C417.823 528.127 418.535 528.661 418.802 529.106C418.98 529.55 419.069 529.995 419.069 530.44V530.973C418.891 531.774 418.668 532.352 418.402 532.708C418.135 533.064 417.734 533.375 417.201 533.642L416.4 534.042L415.466 533.909ZM376.108 516.031C374.685 515.853 373.796 515.675 373.44 515.497C373.084 515.23 372.595 514.207 371.972 512.428C371.972 511.717 372.106 511.183 372.372 510.827C372.728 510.383 378.198 509.716 388.783 508.826C399.367 507.937 405.994 507.27 408.662 506.825C411.419 506.38 413.198 505.98 413.999 505.624C414.532 505.268 415.155 505.179 415.867 505.357L416.534 505.491C417.512 505.58 418.179 505.802 418.535 506.158C418.98 506.425 419.335 506.78 419.602 507.225C419.869 507.67 419.958 508.114 419.869 508.559L419.736 509.093C419.647 509.893 419.469 510.472 419.202 510.827C418.935 511.183 418.09 511.628 416.667 512.161C416.311 512.161 415.644 512.295 414.666 512.562C413.776 512.829 405.86 513.674 390.918 515.097L376.108 516.031ZM429.609 544.715C429.075 544.715 428.541 544.538 428.008 544.182C427.563 543.826 427.207 543.07 426.94 541.914C426.762 540.668 426.629 539.912 426.54 539.646C426.451 539.379 426.229 536.444 425.873 530.84C425.606 525.236 425.473 521.901 425.473 520.834C425.562 520.3 425.606 519.855 425.606 519.499C425.606 519.144 425.695 518.877 425.873 518.699C425.962 518.343 426.184 518.032 426.54 517.765C426.896 517.409 427.385 517.142 428.008 516.965C428.274 516.965 428.586 516.965 428.942 516.965C429.386 516.965 429.742 517.053 430.009 517.231C430.632 517.587 431.121 517.987 431.477 518.432C431.921 518.877 432.277 522.301 432.544 528.705C432.811 535.109 433.211 538.667 433.745 539.379C433.745 539.646 433.745 540.224 433.745 541.113V541.513C433.567 542.314 433.211 542.981 432.677 543.515C432.144 543.959 431.61 544.271 431.076 544.449L430.276 544.715H429.609ZM538.973 561.126C537.994 561.037 537.372 560.948 537.105 560.859C536.838 560.681 536.527 560.325 536.171 559.792L535.771 559.658C533.458 559.48 529.144 559.436 522.829 559.525L483.204 560.058L482.537 559.925C482.092 559.836 481.692 559.703 481.336 559.525C480.98 559.258 480.491 558.324 479.869 556.723C479.78 556.634 479.735 556.545 479.735 556.456C479.735 556.1 479.824 555.789 480.002 555.522C480.091 555.166 480.313 554.855 480.669 554.588C481.114 554.322 499.837 553.921 536.838 553.388L538.039 553.654C539.106 553.743 539.773 553.877 540.04 554.055C540.307 554.233 540.707 554.455 541.241 554.722C541.863 554.9 542.664 555.478 543.642 556.456C543.82 556.99 543.909 557.524 543.909 558.057V558.591C543.82 559.48 543.509 560.103 542.975 560.459C542.53 560.815 542.219 560.992 542.041 560.992C541.863 560.992 541.508 561.081 540.974 561.259C540.529 561.348 539.862 561.304 538.973 561.126ZM511.889 558.057C511.533 557.968 511.177 557.835 510.822 557.657C510.466 557.479 509.932 556.189 509.22 553.788C509.132 553.521 509.087 553.254 509.087 552.987C509.087 552.276 509.176 551.742 509.354 551.386C509.532 551.031 509.621 549.163 509.621 545.783V543.648C509.621 540.624 509.532 537.066 509.354 532.975C509.265 530.84 509.22 529.106 509.22 527.771C509.22 526.081 509.309 525.103 509.487 524.836C509.665 524.391 509.932 524.08 510.288 523.902C510.733 523.635 511.311 523.591 512.022 523.769C512.645 523.858 513.09 524.036 513.356 524.303C513.712 524.48 514.068 526.037 514.424 528.972C514.78 531.907 515.002 536.444 515.091 542.581C515.18 545.783 515.224 548.184 515.224 549.785C515.224 551.386 515.18 552.276 515.091 552.454L514.957 553.121C514.869 553.121 514.78 553.743 514.691 554.989C514.602 556.145 514.068 557.079 513.09 557.79L512.423 558.057H511.889ZM495.345 529.506C494.189 529.239 493.433 528.972 493.077 528.705C492.81 528.438 492.543 527.994 492.276 527.371C492.099 527.015 492.01 526.615 492.01 526.17C492.01 525.992 492.054 525.77 492.143 525.503C492.232 524.881 492.454 524.436 492.81 524.169C493.255 523.813 498.725 523.191 509.22 522.301C519.716 521.323 525.453 520.878 526.431 520.967L527.098 521.1C527.721 521.189 528.21 521.278 528.566 521.367C528.922 521.634 529.278 522.034 529.633 522.568C530.078 523.102 530.3 523.724 530.3 524.436C530.3 525.236 530.167 525.815 529.9 526.17C529.633 526.437 528.788 526.704 527.365 526.971C526.921 527.682 525.942 528.083 524.43 528.172L495.345 529.506ZM623.726 504.957C623.015 504.423 622.659 503.623 622.659 502.555C622.748 501.488 623.104 500.643 623.726 500.02C624.438 499.309 625.283 498.953 626.261 498.953C627.151 498.953 627.951 499.309 628.663 500.02C628.663 500.02 628.618 499.976 628.529 499.887L628.796 500.02L629.463 500.421L630.13 500.821L630.531 500.954L630.13 500.821C630.219 500.821 630.664 500.954 631.465 501.221C632.176 501.399 632.665 501.488 632.932 501.488C633.199 501.488 633.421 501.533 633.599 501.621H635.2L638.135 501.488C638.313 501.399 638.625 501.355 639.069 501.355C638.536 501.444 638.358 501.444 638.536 501.355H638.936L640.27 501.088C641.515 500.91 642.449 500.732 643.072 500.554C646.096 500.02 648.364 499.576 649.876 499.22C652.989 498.686 657.57 497.797 663.618 496.552L691.102 491.348L690.302 497.619L689.635 497.219C689.813 497.308 689.946 497.397 690.035 497.486C689.946 497.397 689.813 497.352 689.635 497.352C689.635 497.352 689.679 497.352 689.768 497.352C688.79 497.619 687.9 497.53 687.1 497.085C686.299 496.641 685.721 495.929 685.365 494.951C685.098 494.061 685.232 493.172 685.766 492.282C686.299 491.393 687.011 490.859 687.9 490.681C690.124 490.059 692.125 490.37 693.904 491.615C695.149 492.771 695.683 493.928 695.505 495.084C695.416 495.796 695.105 496.463 694.571 497.085C694.126 497.619 693.593 497.93 692.97 498.019L677.093 501.088L648.809 506.558C643.116 507.803 638.803 508.47 635.867 508.559C633.644 508.737 631.598 508.559 629.73 508.026C627.773 507.581 625.772 506.558 623.726 504.957ZM630.664 509.627C630.842 508.648 631.198 507.848 631.731 507.225C632.354 506.602 633.155 506.247 634.133 506.158C635.289 506.158 636.134 506.513 636.668 507.225C637.379 507.937 637.735 508.737 637.735 509.627C637.024 516.475 636.045 522.657 634.8 528.172C632.132 539.557 627.818 549.074 621.858 556.723C618.923 560.548 615.499 563.883 611.585 566.729C607.761 569.487 603.625 571.532 599.177 572.867C598.199 573.133 597.31 573.044 596.509 572.6C595.709 572.066 595.13 571.355 594.775 570.465C594.508 569.576 594.597 568.686 595.041 567.797C595.575 566.907 596.331 566.329 597.31 566.062L599.044 565.529L599.978 565.128L600.512 564.995C600.512 564.995 600.556 564.95 600.645 564.862C600.823 564.862 600.912 564.817 600.912 564.728L601.846 564.328L603.447 563.527L606.649 561.659C607.094 561.215 607.583 560.859 608.116 560.592L608.784 560.058L608.65 560.192L609.05 559.925C611.185 557.968 612.742 556.456 613.72 555.389L615.988 552.987L616.522 552.32L616.789 551.92L616.655 552.187L617.456 550.986C618.79 549.118 619.991 547.25 621.058 545.383C621.681 544.493 622.259 543.381 622.792 542.047L623.593 540.313L623.86 539.512C623.682 539.957 623.682 540.001 623.86 539.646L623.993 539.245C625.95 534.531 627.418 529.595 628.396 524.436C629.107 521.056 629.597 518.521 629.864 516.831L630.13 514.696C630.13 514.874 630.13 514.963 630.13 514.963V514.43L630.264 513.496L630.664 509.627ZM743.501 570.598C741.811 570.421 740.744 570.154 740.299 569.798C739.943 569.442 739.587 568.82 739.232 567.93C739.054 567.396 738.965 566.818 738.965 566.196V565.662C739.054 565.039 739.321 564.461 739.765 563.928C740.21 563.394 740.833 562.86 741.633 562.327C742.523 561.704 743.279 560.948 743.901 560.058C744.613 559.169 746.836 555.923 750.572 550.319C754.308 544.626 756.576 541.247 757.376 540.179C758.177 539.112 759.2 537.6 760.445 535.643C761.779 533.686 762.624 532.308 762.98 531.507C763.336 530.707 763.958 529.55 764.848 528.038C764.937 527.771 764.981 527.549 764.981 527.371C764.981 526.926 764.626 526.704 763.914 526.704C763.291 526.704 762.446 526.837 761.379 527.104C758.355 527.816 756.62 528.172 756.176 528.172C755.82 528.172 753.641 528.572 749.638 529.372C745.725 530.084 743.145 530.44 741.9 530.44C740.744 530.44 739.988 530.262 739.632 529.906C739.276 529.55 739.054 529.061 738.965 528.438C738.787 528.083 738.698 527.682 738.698 527.238C738.698 526.971 738.742 526.749 738.831 526.571C738.831 525.948 739.009 525.37 739.365 524.836C739.81 524.303 742.789 523.546 748.304 522.568C753.819 521.59 757.554 520.834 759.511 520.3C761.468 519.766 764.492 519.055 768.584 518.165C769.384 517.898 770.185 517.765 770.985 517.765H771.786C772.675 517.943 773.387 518.343 773.92 518.966C774.454 519.499 774.765 520.033 774.854 520.567C774.943 520.923 774.988 521.367 774.988 521.901V522.568C774.899 523.369 774.676 524.214 774.321 525.103L773.653 526.437C773.565 526.437 773.164 527.015 772.453 528.172L771.252 530.173C771.163 530.173 770.941 530.484 770.585 531.107L769.918 532.174C769.829 532.174 769.518 532.752 768.984 533.909C768.539 535.065 768.005 536.132 767.383 537.111L766.182 538.712C766.093 538.712 765.737 539.245 765.115 540.313C764.581 541.38 764.047 542.358 763.514 543.248L762.446 544.715C762.357 544.715 761.601 545.872 760.178 548.184C758.844 550.497 756.665 553.743 753.641 557.924L749.238 564.194C749.06 564.194 748.749 564.639 748.304 565.529C747.948 566.418 746.792 567.797 744.835 569.665L743.501 570.598ZM759.511 554.055C759.066 554.055 758.533 553.921 757.91 553.654C757.288 553.388 756.576 553.032 755.775 552.587C754.975 552.142 754.219 551.742 753.507 551.386C752.885 551.031 749.772 550.319 744.168 549.252C738.565 548.095 735.496 547.384 734.962 547.117C734.429 546.761 733.984 546.272 733.628 545.649C733.361 545.205 733.228 544.671 733.228 544.048V543.515C733.317 542.714 733.628 542.047 734.162 541.513C734.784 540.891 735.496 540.535 736.296 540.446H736.43C737.319 540.446 739.543 540.713 743.101 541.247C747.014 541.958 749.638 542.492 750.972 542.848C752.307 543.114 753.908 543.648 755.775 544.449C757.732 545.249 758.8 545.783 758.978 546.05C759.155 546.228 759.6 546.583 760.312 547.117C761.112 547.562 761.69 548.095 762.046 548.718C762.491 549.252 762.713 549.919 762.713 550.719C762.713 551.431 762.58 552.009 762.313 552.454C762.046 552.898 761.69 553.254 761.246 553.521L760.312 554.055H759.511ZM728.558 547.917C727.402 547.829 726.601 547.651 726.157 547.384C725.801 547.028 725.356 545.961 724.823 544.182C724.823 543.47 725 542.848 725.356 542.314C725.712 541.691 726.335 541.113 727.224 540.579C728.202 540.046 729.314 539.112 730.56 537.778C731.805 536.355 734.117 532.975 737.497 527.638C740.966 522.301 743.101 518.699 743.901 516.831C744.791 514.874 745.769 511.895 746.836 507.892C747.904 503.89 748.66 501.71 749.105 501.355C749.549 500.91 750.083 500.643 750.706 500.554H750.972C751.417 500.554 751.817 500.643 752.173 500.821C752.707 501.088 753.152 501.533 753.507 502.155C753.863 502.689 754.086 503.223 754.174 503.756V503.89C754.174 504.69 753.863 506.336 753.241 508.826C752.529 511.583 751.862 513.94 751.239 515.897C750.706 517.854 748.526 522.39 744.702 529.506L742.3 533.375C742.211 533.375 741.589 534.264 740.432 536.043C739.276 537.822 737.497 539.957 735.096 542.447C732.783 544.938 731.093 546.45 730.026 546.984L728.558 547.917ZM784.193 572.199C782.504 571.933 781.436 571.621 780.991 571.266C780.636 570.821 780.324 569.22 780.058 566.463C779.88 566.196 779.791 565.929 779.791 565.662C779.791 565.217 779.88 564.95 780.058 564.862C780.146 564.684 780.324 564.461 780.591 564.194C780.858 563.839 781.703 555.433 783.126 538.978V537.244C783.126 532.085 782.948 527.46 782.592 523.369C782.059 518.832 781.57 515.63 781.125 513.763C780.68 511.895 779.257 508.114 776.855 502.422C776.767 502.066 776.722 501.755 776.722 501.488C776.722 501.043 776.767 500.688 776.855 500.421C777.033 499.887 777.345 499.442 777.789 499.087C778.234 498.642 778.857 498.419 779.657 498.419C780.458 498.419 781.036 498.597 781.392 498.953C781.836 499.22 782.859 501.221 784.46 504.957C786.15 508.604 787.218 511.539 787.662 513.763C788.107 515.986 788.73 523.769 789.53 537.111V539.512C789.53 544.404 789.352 548.14 788.997 550.719L788.596 555.389C788.507 555.389 788.285 556.856 787.929 559.792C787.662 562.638 787.218 565.262 786.595 567.663C785.972 569.976 785.439 571.31 784.994 571.666L784.193 572.199ZM814.346 549.919C801.805 543.604 794.022 538.978 790.998 536.043C788.063 533.108 786.284 530.751 785.661 528.972C785.572 528.972 785.528 528.928 785.528 528.839C785.528 528.216 785.706 527.682 786.061 527.238C786.328 526.704 786.684 526.259 787.129 525.904C787.573 525.548 793.666 529.728 805.407 538.445C808.342 540.135 810.921 541.38 813.145 542.18C815.369 542.981 816.614 543.648 816.881 544.182C817.059 544.626 817.148 545.16 817.148 545.783V546.45C817.059 547.428 816.836 548.14 816.481 548.585C816.125 548.94 815.725 549.207 815.28 549.385L814.346 549.919ZM905.202 576.736C904.402 576.647 903.824 576.513 903.468 576.335C903.112 576.158 902.578 575.268 901.867 573.667C901.778 573.667 901.734 573.623 901.734 573.534C901.734 573.089 901.867 572.689 902.134 572.333C902.312 571.888 902.534 571.621 902.801 571.532C903.157 571.355 903.646 569.842 904.268 566.996C904.891 564.061 905.425 561.17 905.869 558.324C906.314 555.389 906.981 551.92 907.871 547.917C908.849 543.915 909.472 541.647 909.739 541.113C910.094 540.491 910.406 539.379 910.672 537.778V537.644C910.672 537.2 909.739 536.888 907.871 536.71L906.67 536.577C905.247 536.399 904.268 536.399 903.735 536.577C903.023 536.666 902.089 536.621 900.933 536.444C899.777 536.355 898.176 536.399 896.13 536.577C894.084 536.666 892.261 536.621 890.66 536.444C889.059 536.266 881.054 537.289 866.645 539.512C852.324 541.647 844.986 542.625 844.631 542.447C844.275 542.18 843.964 541.736 843.697 541.113C843.519 540.757 843.43 540.357 843.43 539.912C843.43 539.735 843.474 539.512 843.563 539.245C843.652 538.623 843.83 538.178 844.097 537.911C844.453 537.644 851.079 536.488 863.976 534.442C876.873 532.308 883.944 531.151 885.19 530.973C886.435 530.707 888.881 530.573 892.528 530.573C896.174 530.573 898.665 530.618 899.999 530.707C901.422 530.796 904.491 530.929 909.205 531.107L911.606 531.374C913.741 531.64 914.986 531.818 915.342 531.907C915.698 532.085 916.054 532.441 916.409 532.975C916.854 533.419 917.121 534.353 917.21 535.776V536.444C917.21 537.6 917.077 538.445 916.81 538.978L916.409 539.779C916.321 539.779 916.232 540.179 916.143 540.98C916.054 541.78 915.876 542.447 915.609 542.981L915.075 543.915C914.986 543.915 914.719 545.249 914.275 547.917C913.83 550.586 913.43 552.454 913.074 553.521L912.54 555.389C912.451 555.3 912.318 556.1 912.14 557.79C911.962 559.391 911.473 562.06 910.672 565.795L909.472 571.266C909.383 571.266 909.294 571.71 909.205 572.6C909.205 573.4 908.938 574.201 908.404 575.001C907.871 575.891 907.382 576.38 906.937 576.469L906.27 576.869L905.202 576.736ZM851.835 568.997C851.213 568.997 850.723 568.909 850.368 568.731C850.012 568.553 849.612 567.619 849.167 565.929C848.811 564.239 848.544 563.261 848.366 562.994C848.277 562.727 847.566 556.634 846.232 544.715C845.075 536.444 844.497 531.774 844.497 530.707C844.497 530.529 844.542 530.44 844.631 530.44C844.72 530.173 844.942 529.906 845.298 529.639C845.743 529.283 846.276 529.061 846.899 528.972L847.432 529.106C847.788 529.106 848.1 529.15 848.366 529.239C848.811 529.506 849.167 529.906 849.434 530.44C849.79 530.884 850.59 536.221 851.835 546.45C853.169 556.679 853.881 561.882 853.97 562.06C854.059 562.238 854.192 562.771 854.37 563.661C854.637 564.461 854.77 565.306 854.77 566.196C854.77 567.174 854.637 567.841 854.37 568.197C854.103 568.464 853.748 568.686 853.303 568.864L852.636 569.131L851.835 568.997ZM857.972 571.799C857.528 571.799 857.083 571.71 856.638 571.532C856.283 571.266 855.793 570.376 855.171 568.864C855.082 568.775 855.037 568.686 855.037 568.597C855.037 568.241 855.126 567.93 855.304 567.663C855.393 567.308 855.615 566.996 855.971 566.729C856.416 566.374 870.247 565.751 897.464 564.862L901.2 565.262C904.491 565.618 906.314 565.884 906.67 566.062C907.026 566.24 907.426 566.596 907.871 567.13C908.315 567.574 908.538 568.152 908.538 568.864C908.538 569.665 908.36 570.243 908.004 570.598C907.737 570.865 904.491 570.91 898.265 570.732C892.839 570.109 884.878 570.154 874.383 570.865L858.64 571.933L857.972 571.799ZM866.645 567.93C866.2 567.93 865.8 567.841 865.444 567.663C865.088 567.485 864.688 566.196 864.243 563.794C863.887 561.304 863.532 556.056 863.176 548.051C862.998 543.159 862.909 539.646 862.909 537.511C862.909 536.266 862.953 535.554 863.042 535.376C863.22 534.931 863.487 534.62 863.843 534.442C864.288 534.175 864.866 534.086 865.577 534.175C866.2 534.175 866.645 534.309 866.911 534.576C867.267 534.754 867.756 538.667 868.379 546.316C869.002 553.966 869.313 559.213 869.313 562.06C869.313 564.995 869.18 566.64 868.913 566.996C868.646 567.352 868.29 567.574 867.845 567.663L867.178 568.064L866.645 567.93ZM870.514 559.925C869.091 559.569 868.157 559.169 867.712 558.724C867.356 558.191 867.134 557.612 867.045 556.99V556.456C867.045 556.1 867.089 555.834 867.178 555.656C867.267 555.3 867.49 554.989 867.845 554.722C868.29 554.366 874.472 553.877 886.39 553.254C887.102 553.343 887.636 553.521 887.991 553.788C888.347 554.055 888.659 554.41 888.925 554.855C889.103 555.3 889.192 555.745 889.192 556.189V556.59C889.103 557.301 888.792 557.835 888.258 558.191C887.814 558.457 884.745 558.813 879.052 559.258L870.514 559.925ZM869.446 549.518C868.29 549.252 867.534 548.94 867.178 548.585C866.911 548.229 866.689 547.784 866.511 547.25C866.422 546.895 866.378 546.539 866.378 546.183C866.378 545.916 866.467 545.694 866.645 545.516C866.734 544.893 866.956 544.449 867.312 544.182C867.667 543.915 874.383 543.292 887.458 542.314C888.08 542.403 888.525 542.625 888.792 542.981C889.148 543.248 889.459 543.648 889.726 544.182C889.993 544.626 890.037 545.071 889.859 545.516L889.726 545.916C889.548 546.628 889.237 547.161 888.792 547.517C888.347 547.784 885.012 548.184 878.786 548.718L869.446 549.518ZM888.659 572.333C888.214 572.333 887.769 572.244 887.324 572.066C886.969 571.799 886.479 570.91 885.857 569.398C885.768 569.309 885.723 569.22 885.723 569.131C885.723 568.775 885.812 568.508 885.99 568.33C886.079 568.064 886.124 567.308 886.124 566.062C886.213 564.728 886.791 558.813 887.858 548.318C888.925 537.733 889.548 532.219 889.726 531.774C889.993 531.329 890.882 530.929 892.394 530.573C893.017 530.662 893.506 530.84 893.862 531.107C894.218 531.285 894.529 531.64 894.796 532.174C894.885 532.441 894.929 533.019 894.929 533.909C894.929 535.332 894.84 537.466 894.662 540.313C894.307 545.294 893.817 550.586 893.195 556.189L892.261 564.728C892.172 564.728 892.083 565.529 891.994 567.13C891.994 568.642 891.727 569.842 891.194 570.732C890.749 571.532 890.304 571.977 889.859 572.066L889.192 572.466L888.659 572.333ZM865.044 536.444C863.887 536.266 863.131 536.043 862.776 535.776C862.509 535.51 862.242 535.109 861.975 534.576C861.797 534.22 861.708 533.82 861.708 533.375C861.708 533.197 861.753 532.975 861.842 532.708C861.931 532.085 862.153 531.596 862.509 531.24C862.953 530.884 865.444 527.949 869.98 522.435C874.516 516.831 877.14 514.074 877.852 514.163C878.474 514.252 878.964 514.43 879.319 514.696C879.675 514.963 879.986 515.319 880.253 515.764C880.431 516.208 880.52 516.653 880.52 517.098V517.498C880.431 518.21 878.385 521.145 874.383 526.304C870.38 531.463 867.49 534.754 865.711 536.177L865.044 536.444ZM848.366 517.765C847.922 517.676 847.477 517.543 847.032 517.365C846.676 517.098 846.187 516.253 845.565 514.83C845.476 514.741 845.431 514.652 845.431 514.563C845.431 514.207 845.52 513.896 845.698 513.629C845.787 513.273 846.009 512.962 846.365 512.695C846.81 512.339 854.326 511.761 868.913 510.961C883.5 510.16 892.083 509.715 894.662 509.627C897.331 509.538 899.465 509.404 901.066 509.226C902.756 508.959 903.646 508.782 903.735 508.693C903.824 508.604 904.313 508.559 905.202 508.559L906.803 508.693C907.159 508.871 907.515 509.226 907.871 509.76C908.315 510.205 908.538 510.783 908.538 511.494C908.538 512.295 908.404 512.873 908.138 513.229C907.871 513.496 906.448 513.94 903.868 514.563C902.89 514.385 902.089 514.43 901.467 514.696C900.933 514.874 898.309 515.097 893.595 515.364C893.239 515.364 892.528 515.452 891.46 515.63C890.393 515.808 883.055 516.208 869.446 516.831L849.033 517.765H848.366Z" fill="black"/>
</svg>
