<svg width="1409" height="721" viewBox="0 0 1409 721" fill="none" xmlns="http://www.w3.org/2000/svg">
<path d="M16.7582 12.0817C513.429 16.5923 1016.58 27.3114 1390.45 7.82452M20.876 12.7659C418.297 18.949 819.027 19.9373 1393.8 15.224M1402.56 6C1397.21 229.174 1398.09 444.949 1392.04 708.135M1389.96 9.16757C1408.23 283.048 1402.66 547.806 1390.35 710.898M1399.43 710.213C1095.06 707.35 780.523 706.488 12.1829 704.258M1389.99 709.555C1042.76 707.046 686.271 709.808 19.5386 707.046M17.814 714.851C24.0787 497.632 20.4889 278.563 24.5715 19.988M21.2983 706.97C5.6014 434.331 0.427744 162.681 15.2096 14.4637" stroke="#1E1E1E" stroke-width="12" stroke-linecap="round"/>
</svg>
