<svg width="714" height="52" viewBox="0 0 714 52" fill="none" xmlns="http://www.w3.org/2000/svg">
<path d="M51.74 44.4C50.3867 44.3533 49.5 44.2133 49.08 43.98C48.66 43.7933 48.31 43.4667 48.03 43C47.75 42.4867 47.3067 42.1133 46.7 41.88C46.0933 41.6467 45.0667 41.0867 43.62 40.2C42.1733 39.2667 41.2633 38.7067 40.89 38.52C40.5167 38.3333 39.63 37.89 38.23 37.19C36.8767 36.49 35.8733 35.9767 35.22 35.65C34.6133 35.3233 32.0467 34.7167 27.52 33.83C22.9933 32.9433 20.6133 32.3833 20.38 32.15C20.1933 31.9167 20.0767 31.6367 20.03 31.31V31.1C20.03 30.8667 20.0767 30.6333 20.17 30.4C20.31 30.1667 20.5433 29.98 20.87 29.84C20.9167 29.7933 21.01 29.77 21.15 29.77C21.9433 29.77 23.88 30.0267 26.96 30.54C30.6933 31.1933 32.9567 31.6367 33.75 31.87C34.5433 32.0567 35.5467 32.43 36.76 32.99C38.02 33.55 38.93 33.9933 39.49 34.32C40.05 34.6467 40.8433 35.1133 41.87 35.72C42.9433 36.28 44.0167 36.91 45.09 37.61C46.21 38.2633 47.3067 38.87 48.38 39.43C49.5 39.9433 50.2 40.2933 50.48 40.48C50.8067 40.62 51.1333 40.8067 51.46 41.04C51.7867 41.2267 52.09 41.4833 52.37 41.81C52.6967 42.1367 52.86 42.4867 52.86 42.86C52.86 43.28 52.79 43.5833 52.65 43.77C52.51 43.9567 52.3233 44.0967 52.09 44.19L51.74 44.4ZM6.66 39.08C6.05333 39.08 5.35333 38.9633 4.56 38.73C3.76667 38.4967 2.92667 37.68 2.04 36.28C1.2 34.8333 0.71 33.76 0.57 33.06C0.523333 32.8733 0.5 32.57 0.5 32.15C0.5 30.9833 0.64 28.9767 0.92 26.13C1.29333 22.21 1.52667 20.1333 1.62 19.9C1.76 19.62 2.20333 19.34 2.95 19.06C3.27667 19.06 3.48667 19.0133 3.58 18.92C3.72 18.78 4.02333 18.5933 4.49 18.36C5.00333 18.08 5.65667 17.9167 6.45 17.87H6.59C7.38333 17.87 8.36333 18.01 9.53 18.29C10.7433 18.6167 11.56 18.8967 11.98 19.13C12.4 19.3167 13.17 19.8067 14.29 20.6C15.41 21.3933 16.11 22 16.39 22.42C16.7167 22.84 17.1367 24.1 17.65 26.2V26.55C17.65 27.4367 17.5567 28.1367 17.37 28.65C17.1833 29.2567 17.02 29.7 16.88 29.98L16.6 30.47C16.5533 30.47 16.4133 30.68 16.18 31.1C15.9933 31.52 15.2 32.5 13.8 34.04C12.4 35.58 11.3033 36.6533 10.51 37.26C9.71667 37.8667 9.01667 38.31 8.41 38.59L7.5 39.08H6.66ZM6.94 36.07C7.12667 35.9767 7.52333 35.72 8.13 35.3C8.78333 34.8333 9.83333 33.7833 11.28 32.15C12.7733 30.47 13.6133 29.4667 13.8 29.14C14.0333 28.8133 14.3133 27.9267 14.64 26.48V25.99C14.64 25.5233 14.6167 25.22 14.57 25.08C14.4767 24.94 14.3133 24.7067 14.08 24.38C13.8467 24.0067 12.7267 23.3533 10.72 22.42C8.71333 21.44 7.47667 20.9267 7.01 20.88H6.66C6.38 20.88 6.21667 20.9033 6.17 20.95C6.07667 21.0433 6.00667 21.09 5.96 21.09C5.91333 21.09 5.79667 21.1833 5.61 21.37C5.47 21.5567 5.12 21.7667 4.56 22C4.42 22 4.21 23.5633 3.93 26.69C3.65 29.4433 3.51 31.1933 3.51 31.94V32.22C3.55667 32.7333 3.72 33.3867 4 34.18C4.32667 34.9267 4.7 35.4167 5.12 35.65C5.54 35.8833 5.96 36 6.38 36L6.94 36.07ZM25.56 42.16C24.86 42.16 24.2533 42.09 23.74 41.95C23.2267 41.81 22.3633 41.0167 21.15 39.57C20.9633 39.2433 20.87 38.94 20.87 38.66C20.87 38.5667 20.8933 38.4733 20.94 38.38C20.9867 38.0533 21.1033 37.7967 21.29 37.61C21.5233 37.4233 21.8033 37.3067 22.13 37.26H22.34C22.5733 37.26 22.7833 37.2833 22.97 37.33C23.2033 37.47 23.39 37.6567 23.53 37.89C23.67 38.1233 24.3 38.52 25.42 39.08C25.56 39.1267 25.7 39.15 25.84 39.15C26.26 39.15 26.5867 39.1033 26.82 39.01C27.1467 38.9633 27.66 38.7767 28.36 38.45C29.1067 38.1233 29.9233 37.5867 30.81 36.84C31.7433 36.0467 32.8167 34.3433 34.03 31.73C35.2433 29.1167 36.2 27.6 36.9 27.18H37.18C37.3667 27.18 37.5533 27.2033 37.74 27.25C37.9733 27.3433 38.16 27.5067 38.3 27.74C38.4867 27.9733 38.58 28.2767 38.58 28.65C38.58 29.0233 37.95 30.54 36.69 33.2C35.4767 35.86 34.2633 37.7267 33.05 38.8C31.8833 39.8733 30.81 40.6433 29.83 41.11C28.85 41.53 28.08 41.81 27.52 41.95L26.61 42.16H25.56ZM29.9 24.52C29.1067 24.4733 28.6167 24.38 28.43 24.24C28.2433 24.1 28.0333 23.7733 27.8 23.26C27.6133 22.7467 27.4733 22.4433 27.38 22.35C27.3333 22.21 27.1233 21.5333 26.75 20.32C26.4233 19.06 26.1433 17.9633 25.91 17.03C25.7233 16.05 25.63 14.9767 25.63 13.81C25.5833 13.6233 25.56 13.46 25.56 13.32C25.56 12.48 25.63 11.9433 25.77 11.71C25.8633 11.4767 26.4467 11.0333 27.52 10.38C28.64 9.68 29.34 9.30666 29.62 9.26H29.9C30.0867 9.26 30.2733 9.28333 30.46 9.33C30.6933 9.42333 30.88 9.58666 31.02 9.82C31.2067 10.0533 31.3 10.3567 31.3 10.73C31.3 11.1033 31.23 11.3833 31.09 11.57C30.95 11.7567 30.53 12.06 29.83 12.48L28.71 13.18C28.6633 13.18 28.64 13.46 28.64 14.02C28.5933 14.1133 28.57 14.2067 28.57 14.3C28.57 14.8133 28.64 15.3733 28.78 15.98C28.92 16.68 29.06 17.24 29.2 17.66C29.3867 18.0333 29.5267 18.4067 29.62 18.78C29.7133 19.2 29.7833 19.41 29.83 19.41V19.34H30.46C30.7867 19.34 31.0433 19.41 31.23 19.55C31.4167 19.6433 31.58 19.8067 31.72 20.04C31.8133 20.2733 31.86 20.5067 31.86 20.74V20.95L31.79 21.51C31.7433 21.51 31.6967 21.6733 31.65 22C31.6033 22.3267 31.4167 22.77 31.09 23.33C30.7633 23.89 30.4833 24.2167 30.25 24.31L29.9 24.52ZM24.58 16.96C23.88 16.8667 23.46 16.7733 23.32 16.68C23.18 16.54 23.0633 16.33 22.97 16.05C22.8767 15.91 22.83 15.7467 22.83 15.56C22.83 15.42 22.8533 15.28 22.9 15.14C22.9467 14.8133 23.0633 14.5567 23.25 14.37C23.4833 14.1833 26.6333 13.2733 32.7 11.64C38.8133 9.96 42.0567 9.00333 42.43 8.77C42.85 8.53667 43.5267 8.42 44.46 8.42C45.3467 8.42 45.8833 8.49 46.07 8.63C46.2567 8.72333 46.42 8.88666 46.56 9.12C46.6533 9.35333 46.7 9.58666 46.7 9.82V10.03C46.6533 10.4033 46.5133 10.7067 46.28 10.94C46.0933 11.1733 45.6967 11.4067 45.09 11.64C44.9033 11.64 41.45 12.5267 34.73 14.3L24.58 16.96ZM38.3 23.4C38.0667 23.4 37.8567 23.3767 37.67 23.33C37.4833 23.2367 37.2033 22.56 36.83 21.3C36.7833 21.16 36.76 20.9967 36.76 20.81C36.76 20.39 36.8067 20.0867 36.9 19.9C36.9467 19.7133 36.97 19.3633 36.97 18.85C37.0167 18.29 37.2267 16.96 37.6 14.86V14.79C37.6 14.1367 37.2033 12.6433 36.41 10.31C35.57 7.93 35.15 6.55333 35.15 6.18C35.15 5.85333 35.1967 5.59666 35.29 5.41C35.43 5.22333 35.64 5.06 35.92 4.92C36.1067 4.82667 36.3167 4.78 36.55 4.78H36.9C37.2267 4.87333 37.46 5.01333 37.6 5.2C37.7867 5.34 38.79 8.44333 40.61 14.51V14.93C40.61 15.63 40.5633 16.2133 40.47 16.68L40.26 17.59C40.2133 17.59 40.1433 18.0333 40.05 18.92L39.91 20.32C39.8633 20.32 39.8167 20.6933 39.77 21.44C39.7233 22.14 39.4433 22.7233 38.93 23.19L38.58 23.4H38.3ZM72.7159 42.93C72.4359 43.1633 72.1093 43.2567 71.7359 43.21C71.3159 43.21 70.9426 43.07 70.6159 42.79C70.3359 42.4633 70.1959 42.09 70.1959 41.67C70.1959 41.1567 70.3826 40.7367 70.7559 40.41C71.0359 40.2233 71.2693 39.8967 71.4559 39.43C71.6893 38.9167 71.8059 38.4733 71.8059 38.1C71.8059 37.5867 71.7126 37.3067 71.5259 37.26C71.3393 37.1667 70.8259 37.2367 69.9859 37.47C69.4726 37.61 69.0059 37.5167 68.5859 37.19C68.2126 36.8633 68.0259 36.4433 68.0259 35.93C68.0259 35.5567 68.1193 35.23 68.3059 34.95C68.5393 34.67 68.8193 34.4833 69.1459 34.39C71.0593 33.8767 72.5059 34.04 73.4859 34.88C74.4659 35.6733 74.9559 36.7467 74.9559 38.1C74.9559 38.8 74.7459 39.6633 74.3259 40.69C73.9059 41.67 73.3693 42.4167 72.7159 42.93ZM149.689 45.66C148.242 45.6133 147.262 45.4967 146.749 45.31C146.282 45.17 145.605 44.75 144.719 44.05C143.832 43.35 142.899 42.5333 141.919 41.6C140.985 40.6667 140.052 39.64 139.119 38.52C138.232 37.4 137.602 36.5367 137.229 35.93C136.902 35.2767 136.319 34.4133 135.479 33.34C134.639 32.22 133.635 30.6567 132.469 28.65C131.302 26.5967 130.415 24.8467 129.809 23.4C129.202 21.9067 128.829 20.7167 128.689 19.83C128.595 18.9433 128.362 17.87 127.989 16.61C127.615 15.35 127.382 14.0433 127.289 12.69C127.242 11.29 127.219 9.68 127.219 7.86C127.172 7.67333 127.149 7.46333 127.149 7.23C127.149 5.83 127.242 5.03667 127.429 4.85C127.569 4.61667 127.755 4.43 127.989 4.29C128.222 4.15 128.525 4.08 128.899 4.08C129.225 4.08 129.505 4.15 129.739 4.29C130.019 4.43 130.275 5.9 130.509 8.7C130.742 11.4533 130.905 13.2733 130.999 14.16C131.092 15 131.325 16.1667 131.699 17.66C132.072 19.1533 132.329 20.0633 132.469 20.39C132.655 20.7167 133.379 22.1867 134.639 24.8C135.945 27.3667 136.832 29.0233 137.299 29.77C137.765 30.5167 138.419 31.4967 139.259 32.71C140.099 33.8767 140.752 34.7167 141.219 35.23C141.732 35.7433 142.549 36.6533 143.669 37.96C144.789 39.2667 145.745 40.2 146.539 40.76C146.865 41.04 147.122 41.18 147.309 41.18C147.589 41.18 147.752 40.9 147.799 40.34C147.799 39.5 147.822 39.01 147.869 38.87C147.915 38.73 148.125 38.4967 148.499 38.17C148.872 37.8433 149.245 37.68 149.619 37.68C149.945 37.68 150.225 37.75 150.459 37.89C150.739 38.03 151.042 39.1033 151.369 41.11V41.74C151.369 42.9067 151.299 43.6767 151.159 44.05C151.019 44.47 150.879 44.7733 150.739 44.96C150.599 45.1467 150.389 45.31 150.109 45.45L149.689 45.66ZM103.769 35.58C103.115 35.5333 102.672 35.44 102.439 35.3C102.205 35.16 102.019 34.9267 101.879 34.6C101.739 34.3667 101.669 34.11 101.669 33.83V33.55C101.715 33.2233 101.809 32.9667 101.949 32.78C102.135 32.5467 104.959 30.9833 110.419 28.09C115.879 25.15 118.912 23.4933 119.519 23.12C120.172 22.7467 120.685 22.56 121.059 22.56C121.385 22.56 121.665 22.63 121.899 22.77C122.179 22.91 122.482 23.3767 122.809 24.17V24.31C122.809 24.59 122.762 24.8233 122.669 25.01C122.529 25.29 122.272 25.57 121.899 25.85C121.572 26.0833 119.239 27.2967 114.899 29.49C114.852 29.49 112.985 30.4933 109.299 32.5L103.769 35.58ZM113.639 42.02C112.892 42.02 112.402 41.9733 112.169 41.88C111.982 41.7867 111.609 41.53 111.049 41.11C110.535 40.6433 109.929 40.06 109.229 39.36C108.529 38.66 108.109 38.17 107.969 37.89C107.875 37.7033 107.829 37.4933 107.829 37.26C107.829 37.12 107.852 36.98 107.899 36.84C107.945 36.4667 108.039 36.1867 108.179 36C108.365 35.8133 108.622 35.65 108.949 35.51C109.089 35.4633 109.252 35.44 109.439 35.44C109.625 35.44 109.812 35.4633 109.999 35.51C110.372 35.6033 110.839 35.93 111.399 36.49C111.959 37.05 112.449 37.47 112.869 37.75C113.102 37.9367 113.289 38.03 113.429 38.03C113.522 38.03 113.592 37.9833 113.639 37.89C113.779 37.7033 113.849 37.4 113.849 36.98C113.895 36.5133 114.105 35.79 114.479 34.81C114.852 33.7833 115.155 32.3833 115.389 30.61C115.669 28.79 115.832 26.7133 115.879 24.38V24.1C115.879 21.9067 115.645 19.8067 115.179 17.8C114.759 16.0267 114.549 14.8833 114.549 14.37C114.549 14.2767 114.572 14.2067 114.619 14.16C114.665 13.7867 114.759 13.5067 114.899 13.32C115.085 13.1333 115.342 12.97 115.669 12.83C115.809 12.7833 115.972 12.76 116.159 12.76C116.345 12.76 116.532 12.7833 116.719 12.83C117.092 12.9233 117.372 13.0867 117.559 13.32C117.792 13.5533 118.422 17.0767 119.449 23.89V24.52C119.449 26.6667 119.332 28.5567 119.099 30.19C118.865 32.01 118.702 33.1767 118.609 33.69L118.399 34.53C118.352 34.53 118.212 34.88 117.979 35.58L117.629 36.63C117.582 36.63 117.535 36.9567 117.489 37.61C117.442 38.2633 117.349 38.7067 117.209 38.94L116.999 39.36C116.952 39.36 116.812 39.5933 116.579 40.06C116.345 40.5267 115.855 41.11 115.109 41.81L114.689 42.02H113.639ZM100.409 25.22C99.7553 25.1733 99.3119 25.08 99.0786 24.94C98.8453 24.8 98.6586 24.5667 98.5186 24.24C98.3786 24.0067 98.3086 23.75 98.3086 23.47C98.3086 23.3767 98.3319 23.26 98.3786 23.12C98.4253 22.7467 98.5886 22.4433 98.8686 22.21C99.1486 21.93 102.065 21.2767 107.619 20.25C113.219 19.2233 117.209 18.5233 119.589 18.15C121.969 17.7767 124.419 17.2867 126.939 16.68C129.505 16.0267 130.929 15.56 131.209 15.28C131.489 15 131.862 14.79 132.329 14.65C132.842 14.51 133.612 14.44 134.639 14.44C135.665 14.44 136.295 14.51 136.529 14.65C136.762 14.79 137.019 15.3033 137.299 16.19C137.299 16.61 137.229 16.9367 137.089 17.17C136.949 17.3567 136.202 17.7067 134.849 18.22C133.542 18.6867 132.819 18.92 132.679 18.92C132.539 18.92 131.769 19.1067 130.369 19.48C128.969 19.8067 128.222 19.97 128.129 19.97C127.989 19.97 127.382 20.1333 126.309 20.46C125.282 20.74 122.342 21.2767 117.489 22.07C117.349 22.07 116.789 22.2567 115.809 22.63C114.829 22.9567 112.029 23.47 107.409 24.17L100.409 25.22ZM126.939 41.18C126.472 41.18 126.099 41.11 125.819 40.97C125.539 40.83 125.235 40.3167 124.909 39.43C124.909 39.0567 124.955 38.7767 125.049 38.59C125.189 38.4033 125.469 38.0067 125.889 37.4C126.309 36.7467 126.635 36.35 126.869 36.21C127.102 36.07 127.382 36 127.709 36C127.989 36 128.292 35.86 128.619 35.58C128.945 35.3 129.692 34.6467 130.859 33.62C132.025 32.5467 132.865 31.8 133.379 31.38C133.939 30.9133 135.782 29.63 138.909 27.53C142.082 25.3833 144.112 24.1 144.999 23.68C145.745 23.3067 146.282 23.12 146.609 23.12H146.749C147.075 23.1667 147.332 23.2833 147.519 23.47C147.752 23.61 147.939 23.82 148.079 24.1C148.172 24.2867 148.219 24.52 148.219 24.8V25.08C148.172 25.4533 148.079 25.7333 147.939 25.92C147.799 26.1067 144.719 27.81 138.699 31.03C138.652 31.03 138.419 31.31 137.999 31.87C137.579 32.3833 136.715 33.2 135.409 34.32C135.362 34.32 135.105 34.6233 134.639 35.23C134.172 35.79 133.239 36.5833 131.839 37.61C131.792 37.61 131.372 37.9367 130.579 38.59C129.832 39.1967 129.435 39.5 129.389 39.5C129.342 39.5 129.155 39.71 128.829 40.13C128.549 40.55 128.269 40.83 127.989 40.97L127.569 41.18H126.939ZM106.639 14.02C106.265 14.02 106.009 13.9967 105.869 13.95C105.729 13.9033 105.402 13.5767 104.889 12.97C104.795 12.7367 104.749 12.5033 104.749 12.27V11.99C104.795 11.6633 104.889 11.4067 105.029 11.22C105.215 10.9867 105.799 10.6833 106.779 10.31C107.805 9.93667 108.529 9.68 108.949 9.54C109.415 9.4 114.199 8.32666 123.299 6.32C123.672 6.32 123.975 6.39 124.209 6.53C124.442 6.67 124.722 7.13667 125.049 7.93V8.14C125.049 8.37333 125.025 8.56 124.979 8.7C124.885 8.88666 124.699 9.09666 124.419 9.33C124.185 9.56333 120.405 10.52 113.079 12.2C112.939 12.2 112.099 12.41 110.559 12.83C109.065 13.2033 108.295 13.39 108.249 13.39C108.155 13.39 108.085 13.4367 108.039 13.53C107.992 13.5767 107.829 13.67 107.549 13.81L107.129 14.02H106.639ZM146.679 14.3C146.305 14.3 146.002 14.2533 145.769 14.16C145.535 14.02 143.669 13.2967 140.169 11.99C136.669 10.6367 134.825 9.84333 134.639 9.61C134.499 9.33 134.429 8.98 134.429 8.56C134.429 8.18667 134.499 7.88333 134.639 7.65C134.825 7.41666 135.339 7.16 136.179 6.88C136.552 6.88 138.372 7.51 141.639 8.77C144.905 9.98333 146.795 10.73 147.309 11.01C147.869 11.2433 148.219 11.4767 148.359 11.71C148.452 11.9433 148.499 12.1767 148.499 12.41V12.69C148.452 13.11 148.359 13.4133 148.219 13.6C148.079 13.7867 147.869 13.95 147.589 14.09L147.169 14.3H146.679ZM198.436 45.31C198.156 45.31 197.55 45.17 196.616 44.89C195.683 44.6567 194.12 44.33 191.926 43.91C189.78 43.5367 188.38 43.2567 187.726 43.07C187.073 42.93 185.626 42.65 183.386 42.23C181.146 41.81 179.583 41.53 178.696 41.39C177.81 41.25 176.736 41.0867 175.476 40.9C174.216 40.6667 172.443 40.55 170.156 40.55C167.87 40.5033 166.563 40.3867 166.236 40.2C165.91 39.9667 165.676 39.6867 165.536 39.36C165.443 39.1733 165.396 38.94 165.396 38.66V38.38C165.443 38.0067 165.536 37.7267 165.676 37.54C165.863 37.3067 166.166 37.0733 166.586 36.84C167.006 36.56 167.356 36.35 167.636 36.21C167.963 36.07 168.36 35.8133 168.826 35.44C169.34 35.0667 169.783 34.7633 170.156 34.53C170.53 34.2967 171.323 33.69 172.536 32.71C172.583 32.71 172.606 32.6867 172.606 32.64C172.606 32.5467 172.536 32.4767 172.396 32.43C172.21 32.3367 171.93 32.15 171.556 31.87C171.23 31.59 170.88 30.7267 170.506 29.28C170.46 29.1867 170.436 29.0933 170.436 29C170.436 28.2533 170.53 27.7167 170.716 27.39C170.903 27.0633 171.02 26.76 171.066 26.48C171.16 26.2 171.3 25.9433 171.486 25.71V25.64C171.486 25.5 171.253 25.43 170.786 25.43H170.226C169.246 25.5233 168.476 25.57 167.916 25.57C167.31 25.57 166.89 25.5 166.656 25.36C166.423 25.22 166.143 24.7067 165.816 23.82C165.816 23.4467 165.863 23.1667 165.956 22.98C166.096 22.7467 167.146 22.49 169.106 22.21C171.066 21.8833 172.56 21.72 173.586 21.72C174.566 21.72 175.15 21.79 175.336 21.93C175.523 22.07 175.826 22.7233 176.246 23.89V24.1C176.246 24.66 176.153 25.1033 175.966 25.43L175.616 25.99C175.57 25.99 175.406 26.2233 175.126 26.69L174.706 27.46C174.66 27.46 174.566 27.6467 174.426 28.02L174.146 28.58C174.1 28.58 174.076 28.6967 174.076 28.93C174.076 29.1633 174.216 29.35 174.496 29.49C174.823 29.63 175.29 30.0267 175.896 30.68C176.55 31.3333 176.9 31.94 176.946 32.5V32.85C176.946 33.27 176.9 33.55 176.806 33.69C176.713 33.9233 176.526 34.18 176.246 34.46C175.966 34.6933 175.803 34.81 175.756 34.81C175.71 34.81 175.593 34.9033 175.406 35.09C175.22 35.2767 175.103 35.37 175.056 35.37C175.01 35.37 174.66 35.6267 174.006 36.14C173.82 36.28 173.726 36.42 173.726 36.56C173.726 36.8867 174.286 37.12 175.406 37.26C176.946 37.54 178.066 37.7267 178.766 37.82C179.513 37.8667 180.983 38.1 183.176 38.52C185.37 38.94 186.676 39.22 187.096 39.36C187.516 39.4533 188.916 39.7333 191.296 40.2C193.723 40.62 195.146 40.9 195.566 41.04C195.986 41.1333 196.29 41.18 196.476 41.18C196.663 41.18 196.943 41.2033 197.316 41.25C197.736 41.2967 198.226 41.46 198.786 41.74C199.393 41.9733 199.79 42.23 199.976 42.51C200.163 42.7433 200.28 43.0467 200.326 43.42V43.7C200.326 43.9333 200.303 44.0967 200.256 44.19C200.163 44.3767 200.023 44.5633 199.836 44.75C199.65 44.9367 199.44 45.0767 199.206 45.17L198.786 45.31H198.436ZM173.936 19.06C173.61 19.06 173.33 19.0133 173.096 18.92C172.863 18.78 172.583 18.4533 172.256 17.94C171.976 17.4267 171.346 16.7033 170.366 15.77C169.433 14.8367 168.733 13.8333 168.266 12.76C168.266 12.2933 168.313 11.99 168.406 11.85C168.5 11.71 168.99 11.43 169.876 11.01H170.086C170.32 11.01 170.506 11.0333 170.646 11.08C170.786 11.1733 171.486 11.85 172.746 13.11C174.053 14.37 174.963 15.4433 175.476 16.33C175.57 16.5633 175.616 16.82 175.616 17.1V17.45C175.57 17.9167 175.476 18.2433 175.336 18.43C175.196 18.57 175.01 18.71 174.776 18.85L174.426 19.06H173.936ZM196.686 33.13C196.033 33.0833 195.52 32.9667 195.146 32.78C194.773 32.5933 193.933 31.9633 192.626 30.89C191.32 29.8167 190.2 29.0467 189.266 28.58C188.333 28.0667 186.84 27.4367 184.786 26.69C182.733 25.9433 181.636 25.4533 181.496 25.22C181.356 24.9867 181.286 24.7067 181.286 24.38C181.24 24.3333 181.216 24.2867 181.216 24.24C181.216 23.96 181.286 23.7033 181.426 23.47C181.52 23.2367 181.683 23.0267 181.916 22.84C182.196 22.6533 182.523 22.5367 182.896 22.49C183.27 22.49 184.343 22.7933 186.116 23.4C187.89 24.0067 189.29 24.5667 190.316 25.08C191.39 25.5933 192.323 26.1067 193.116 26.62C193.91 27.1333 194.61 27.6467 195.216 28.16C195.823 28.6733 196.406 29.1633 196.966 29.63C197.573 30.05 197.946 30.3767 198.086 30.61C198.133 30.7967 198.156 31.0067 198.156 31.24V31.52C198.11 31.8933 197.993 32.1967 197.806 32.43C197.666 32.6167 197.456 32.78 197.176 32.92L196.686 33.13ZM182.826 34.25C182.5 34.25 182.196 34.2033 181.916 34.11C181.683 33.97 181.333 33.41 180.866 32.43C180.82 32.3367 180.796 32.2433 180.796 32.15C180.796 31.9167 180.843 31.73 180.936 31.59C180.983 31.45 181.123 31.2633 181.356 31.03C181.636 30.7967 181.963 30.61 182.336 30.47C182.756 30.33 183.27 29.9567 183.876 29.35C184.483 28.7433 185.09 28.09 185.696 27.39C186.303 26.69 186.816 26.0367 187.236 25.43C187.703 24.8233 188.403 23.9367 189.336 22.77C190.27 21.6033 190.923 20.46 191.296 19.34C191.716 18.1733 192.113 17.3567 192.486 16.89C192.906 16.4233 193.303 16.1667 193.676 16.12H193.816C194.096 16.12 194.353 16.19 194.586 16.33C194.866 16.47 195.076 16.6567 195.216 16.89C195.356 17.0767 195.45 17.3567 195.496 17.73V17.8C195.496 18.22 195.24 19.13 194.726 20.53C194.166 22.0233 193.49 23.2833 192.696 24.31L191.506 25.92C191.46 25.92 191.133 26.3167 190.526 27.11C189.966 27.9033 189.5 28.4867 189.126 28.86L188.566 29.49C188.52 29.49 188.38 29.6533 188.146 29.98C187.913 30.3067 187.54 30.7267 187.026 31.24L186.256 32.08C186.21 32.08 186.07 32.2433 185.836 32.57C185.603 32.85 184.973 33.3167 183.946 33.97L183.246 34.25H182.826ZM178.626 20.81C177.926 20.67 177.436 20.46 177.156 20.18C176.923 19.9 176.783 19.5733 176.736 19.2V18.78C176.736 18.5933 176.76 18.4533 176.806 18.36C176.853 18.1733 176.993 17.9633 177.226 17.73C177.506 17.4967 178.906 17.1233 181.426 16.61C183.946 16.0967 185.463 15.77 185.976 15.63C186.49 15.49 188.706 15.1167 192.626 14.51C196.546 13.9033 198.623 13.53 198.856 13.39C199.136 13.25 199.58 13.1567 200.186 13.11H200.746C201.026 13.11 201.236 13.1333 201.376 13.18C201.516 13.2267 201.68 13.32 201.866 13.46C202.053 13.6 202.286 14.09 202.566 14.93C202.566 15.3033 202.496 15.6067 202.356 15.84C202.216 16.0733 201.376 16.3767 199.836 16.75C198.343 17.1233 197.48 17.31 197.246 17.31C197.013 17.31 195.613 17.5433 193.046 18.01C190.48 18.43 189.126 18.64 188.986 18.64C188.846 18.64 188.286 18.7567 187.306 18.99C186.326 19.2233 185.766 19.34 185.626 19.34C185.486 19.34 184.296 19.5733 182.056 20.04L178.626 20.81ZM188.636 15.98C188.403 15.98 188.146 15.9333 187.866 15.84C187.633 15.7 187.283 15.2567 186.816 14.51C186.396 13.7633 185.743 12.7833 184.856 11.57C183.97 10.31 183.456 9.49333 183.316 9.12C183.176 8.88666 183.106 8.63 183.106 8.35V8.14C183.153 7.81333 183.246 7.55667 183.386 7.37C183.573 7.13667 183.83 6.95 184.156 6.81C184.343 6.71666 184.576 6.67 184.856 6.67H185.066C185.393 6.71667 185.65 6.83333 185.836 7.02C186.07 7.16 186.793 8.16333 188.006 10.03C189.22 11.85 189.896 12.8533 190.036 13.04C190.176 13.2267 190.27 13.4367 190.316 13.67C190.363 13.8567 190.386 14.0433 190.386 14.23V14.51C190.34 14.79 190.223 15.0467 190.036 15.28C189.896 15.4667 189.686 15.63 189.406 15.77L188.986 15.98H188.636ZM242.667 19.13C242.107 19.0367 241.733 18.8967 241.547 18.71C241.36 18.5233 241.173 18.1967 240.987 17.73C240.847 17.4033 240.777 17.0767 240.777 16.75V16.47C240.87 16.0967 240.94 15.8867 240.987 15.84C241.08 15.7933 241.22 15.14 241.407 13.88C241.64 12.62 241.827 11.4767 241.967 10.45C242.153 9.42333 242.363 8.39667 242.597 7.37C242.83 6.34333 243.017 5.69 243.157 5.41C243.297 5.13 243.39 4.75666 243.437 4.29V4.22C243.483 3.89333 243.413 3.70666 243.227 3.66H243.157C242.877 3.75333 242.573 3.8 242.247 3.8C241.873 3.75333 241.267 3.8 240.427 3.94C239.587 4.08 239.003 4.15 238.677 4.15C238.35 4.15 237.767 4.22 236.927 4.36C236.133 4.45333 235.667 4.5 235.527 4.5C235.387 4.5 234.407 4.68666 232.587 5.06C230.813 5.38666 229.763 5.52667 229.437 5.48C229.11 5.48 228.853 5.41 228.667 5.27C228.48 5.13 228.34 4.94333 228.247 4.71C228.153 4.52333 228.107 4.31333 228.107 4.08V3.73C228.2 3.35667 228.34 3.1 228.527 2.96C228.713 2.77333 230.23 2.44666 233.077 1.98C235.923 1.46667 237.65 1.21 238.257 1.21C238.863 1.16333 239.727 1.09333 240.847 0.999998C242.013 0.859997 242.76 0.743331 243.087 0.649999C243.46 0.556664 243.927 0.46333 244.487 0.369998L245.677 0.439997C245.863 0.533332 246.05 0.719999 246.237 0.999998C246.47 1.23333 246.563 1.98 246.517 3.24V3.87C246.47 4.80333 246.377 5.45666 246.237 5.83L246.027 6.53C245.98 6.53 245.863 6.95 245.677 7.79L245.397 9.12C245.35 9.12 245.257 9.54 245.117 10.38C244.977 11.22 244.837 11.92 244.697 12.48L244.487 13.39C244.44 13.39 244.347 14.2067 244.207 15.84C244.067 17.4267 243.693 18.4767 243.087 18.99L242.667 19.13ZM221.457 43.28C221.223 43.28 221.013 43.2333 220.827 43.14C220.64 43.0467 220.383 42.5567 220.057 41.67C220.057 41.25 220.15 40.9467 220.337 40.76C220.523 40.5733 220.873 40.34 221.387 40.06C221.9 39.78 222.46 39.3833 223.067 38.87C223.72 38.31 224.397 37.6567 225.097 36.91C225.797 36.1167 226.217 35.5567 226.357 35.23C226.497 34.9033 226.847 33.9 227.407 32.22C227.967 30.54 228.317 29.6067 228.457 29.42C228.597 29.1867 229.063 28.9533 229.857 28.72C230.183 28.72 230.44 28.79 230.627 28.93C230.813 29.07 230.953 29.28 231.047 29.56C231.093 29.7 231.117 29.8867 231.117 30.12C231.07 30.6333 230.953 31.4033 230.767 32.43C230.393 33.97 230.113 34.9267 229.927 35.3L229.577 35.86C229.53 35.86 229.367 36.0933 229.087 36.56C228.853 37.0267 228.597 37.4233 228.317 37.75L227.897 38.31C227.85 38.31 227.547 38.6133 226.987 39.22C226.427 39.8267 224.887 41.1333 222.367 43.14L221.807 43.28H221.457ZM251.557 43.98C249.83 43.9333 248.733 43.84 248.267 43.7C247.847 43.6067 247.1 43.3733 246.027 43C245 42.6733 244.043 42.3467 243.157 42.02C242.27 41.6933 241.383 41.3667 240.497 41.04C239.61 40.7133 238.933 40.5267 238.467 40.48C238.047 40.4333 237.44 40.2467 236.647 39.92C235.9 39.5933 235.27 39.3833 234.757 39.29C234.243 39.15 232.913 38.6833 230.767 37.89C228.667 37.05 227.547 36.5133 227.407 36.28C227.313 36.0933 227.29 35.8833 227.337 35.65V35.37C227.383 34.9967 227.523 34.7167 227.757 34.53C227.99 34.3433 228.27 34.2267 228.597 34.18H228.667C229.087 34.2267 230.067 34.5067 231.607 35.02C233.287 35.6267 234.687 36.0933 235.807 36.42C236.927 36.7467 237.953 37.05 238.887 37.33C239.82 37.61 240.357 37.7967 240.497 37.89C240.637 37.9833 241.29 38.24 242.457 38.66C243.623 39.0333 244.44 39.29 244.907 39.43C245.373 39.57 246.073 39.8033 247.007 40.13C247.94 40.4567 248.617 40.6667 249.037 40.76C249.457 40.8067 250.32 40.8533 251.627 40.9C252.887 40.9933 253.75 41.0167 254.217 40.97L254.567 41.04C254.8 41.04 254.963 41.0633 255.057 41.11C255.197 41.1567 255.36 41.2967 255.547 41.53C255.78 41.7633 255.897 42.0433 255.897 42.37V43.14C255.757 43.3267 255.617 43.4667 255.477 43.56C255.337 43.7 255.08 43.84 254.707 43.98L254.147 44.12L251.557 43.98ZM237.137 37.61C236.95 37.5633 236.74 37.4933 236.507 37.4C236.273 37.26 236.04 36.7467 235.807 35.86C235.807 35.3933 235.83 34.9033 235.877 34.39C235.923 33.8767 236.11 32.64 236.437 30.68V30.19C236.483 28.8833 236.437 27.7167 236.297 26.69C236.203 25.8033 236.18 25.15 236.227 24.73V24.45C236.32 24.1233 236.483 23.8667 236.717 23.68C236.95 23.4467 237.23 23.33 237.557 23.33H237.837C238.023 23.33 238.187 23.3533 238.327 23.4C238.56 23.4933 238.747 23.68 238.887 23.96C239.027 24.1933 239.213 26.34 239.447 30.4L239.377 31.87C239.33 32.71 239.283 33.2 239.237 33.34L239.097 33.69C239.05 33.69 239.003 33.9933 238.957 34.6C238.91 35.2067 238.77 35.79 238.537 36.35C238.35 36.91 238.117 37.26 237.837 37.4L237.347 37.61H237.137ZM217.677 28.16C217.35 28.1133 217.117 28.0667 216.977 28.02C216.883 27.9733 216.65 27.5533 216.277 26.76V26.41C216.277 26.27 216.323 26.13 216.417 25.99C216.463 25.85 216.58 25.6867 216.767 25.5C217 25.3133 218.517 24.9867 221.317 24.52C224.117 24.0533 226.147 23.7267 227.407 23.54C228.667 23.3067 229.973 23.0967 231.327 22.91C232.727 22.7233 235.06 22.4433 238.327 22.07C241.593 21.65 243.81 21.37 244.977 21.23C246.143 21.0433 246.983 20.95 247.497 20.95H247.917C248.15 20.9967 248.313 21.0433 248.407 21.09C248.5 21.1367 248.617 21.2533 248.757 21.44C248.943 21.6267 249.06 21.8133 249.107 22C249.153 22.14 249.177 22.3033 249.177 22.49V22.77C249.083 23.05 248.967 23.26 248.827 23.4C248.733 23.54 248.243 23.75 247.357 24.03C247.123 24.03 246.493 24.1 245.467 24.24C244.44 24.3333 240.987 24.73 235.107 25.43C234.967 25.43 234.453 25.5233 233.567 25.71C232.68 25.85 232.167 25.92 232.027 25.92C231.887 25.8733 231.14 25.9667 229.787 26.2C228.48 26.3867 227.757 26.48 227.617 26.48C227.477 26.48 226.987 26.5733 226.147 26.76C225.353 26.9467 223.837 27.2267 221.597 27.6L218.097 28.16H217.677ZM238.467 33.2C237.86 33.1533 237.463 33.06 237.277 32.92C237.09 32.78 236.927 32.57 236.787 32.29C236.74 32.0567 236.717 31.8467 236.717 31.66V31.38C236.763 31.1 236.88 30.8667 237.067 30.68C237.3 30.4933 238.537 30.1433 240.777 29.63C243.063 29.07 244.673 28.6967 245.607 28.51C246.54 28.3233 247.193 28.2067 247.567 28.16H247.917C248.103 28.2067 248.243 28.2533 248.337 28.3C248.383 28.3467 248.5 28.4633 248.687 28.65C248.873 28.8367 248.99 29.0233 249.037 29.21C249.083 29.35 249.083 29.5133 249.037 29.7V29.98C248.99 30.26 248.85 30.5167 248.617 30.75C248.43 30.9367 247.94 31.1233 247.147 31.31C246.867 31.31 246.307 31.4033 245.467 31.59C244.673 31.73 244.207 31.8 244.067 31.8C243.927 31.7533 242.947 31.9633 241.127 32.43L238.467 33.2ZM231.397 19.41C230.743 19.27 230.3 19.1067 230.067 18.92C229.88 18.6867 229.763 18.15 229.717 17.31C229.67 16.4233 229.6 15.56 229.507 14.72C229.46 13.8333 228.853 12.1067 227.687 9.54C226.52 6.97333 225.867 5.52666 225.727 5.2C225.68 4.96667 225.657 4.73333 225.657 4.5V4.29C225.703 3.96333 225.843 3.70667 226.077 3.52C226.31 3.33333 226.613 3.21667 226.987 3.17L227.337 3.24C227.523 3.24 227.687 3.26333 227.827 3.31C228.013 3.40333 228.643 4.17333 229.717 5.62C230.837 7.06666 231.583 9.02667 231.957 11.5C232.377 13.9267 232.61 15.4433 232.657 16.05C232.703 16.6567 232.703 17.2167 232.657 17.73C232.657 18.2433 232.587 18.5933 232.447 18.78C232.307 18.9667 232.097 19.1067 231.817 19.2L231.397 19.41ZM230.067 20.04C229.507 19.9467 229.157 19.8533 229.017 19.76C228.877 19.62 228.737 19.4333 228.597 19.2C228.503 19.0133 228.457 18.8033 228.457 18.57L228.527 18.29C228.573 17.9167 228.713 17.6367 228.947 17.45C229.18 17.2167 230.51 16.8433 232.937 16.33C235.41 15.8167 236.857 15.5367 237.277 15.49C237.743 15.4433 238.397 15.2567 239.237 14.93C239.61 14.8367 239.983 14.8133 240.357 14.86H240.637C241.01 14.9067 241.29 15.07 241.477 15.35C241.71 15.5833 241.803 15.91 241.757 16.33C241.757 16.75 241.64 17.0767 241.407 17.31C241.173 17.5433 240.66 17.73 239.867 17.87C239.727 17.87 239.563 17.94 239.377 18.08C239.19 18.1733 238.677 18.29 237.837 18.43C237.697 18.43 237.533 18.4767 237.347 18.57C237.16 18.6167 235.9 18.8733 233.567 19.34L230.067 20.04ZM231.607 12.34C231.187 12.2933 230.883 12.2 230.697 12.06C230.51 11.92 230.37 11.71 230.277 11.43C230.183 11.2433 230.137 11.0333 230.137 10.8V10.52C230.23 10.1933 230.37 9.93667 230.557 9.75C230.79 9.51667 232.027 9.19 234.267 8.77C236.553 8.30333 237.813 8.07 238.047 8.07C238.327 8.02333 238.98 7.86 240.007 7.58C240.8 7.39333 241.383 7.3 241.757 7.3L241.967 7.37C242.293 7.46333 242.55 7.62666 242.737 7.86C242.923 8.09333 243.04 8.37333 243.087 8.7V8.91C243.087 9.19 243.017 9.4 242.877 9.54C242.737 9.77333 242.503 9.98333 242.177 10.17C241.85 10.31 241.617 10.38 241.477 10.38C241.337 10.38 240.917 10.4733 240.217 10.66C239.517 10.8467 239.12 10.94 239.027 10.94C238.887 10.8933 238.677 10.94 238.397 11.08C238.163 11.1733 236.997 11.3833 234.897 11.71L231.607 12.34ZM272.82 35.23C272.213 35.1367 271.793 35.02 271.56 34.88C271.326 34.6933 271.116 34.1333 270.93 33.2C270.93 33.1067 270.93 33.0133 270.93 32.92C270.93 32.64 271 32.43 271.14 32.29C271.186 32.15 271.35 31.9867 271.63 31.8C271.91 31.5667 272.446 31.2867 273.24 30.96C274.08 30.6333 274.943 30.12 275.83 29.42C276.763 28.72 278.14 27.6 279.96 26.06C281.826 24.52 283.343 23.2133 284.51 22.14C285.676 21.02 286.913 19.69 288.22 18.15C289.526 16.61 290.483 15.42 291.09 14.58C291.743 13.6933 292.42 12.6667 293.12 11.5C293.82 10.3333 294.31 9.19 294.59 8.07C294.87 6.95 295.196 6.18 295.57 5.76C295.99 5.29333 296.386 5.06 296.76 5.06H297.04C297.273 5.10666 297.483 5.15333 297.67 5.2C297.95 5.38667 298.16 5.62 298.3 5.9C298.486 6.13333 298.58 6.46 298.58 6.88V7.02C298.533 7.48667 298.323 8.30333 297.95 9.47L297.39 11.36C297.343 11.36 296.946 12.0133 296.2 13.32L295.01 15.35C294.963 15.35 294.45 16.0267 293.47 17.38C292.536 18.7333 291.113 20.4133 289.2 22.42C287.286 24.4267 285.816 25.85 284.79 26.69L283.25 28.09C283.203 28.09 282.76 28.4633 281.92 29.21C281.08 29.9567 280.66 30.3067 280.66 30.26C280.613 30.26 279.96 30.75 278.7 31.73C277.486 32.6633 275.806 33.7367 273.66 34.95L272.82 35.23ZM285.63 43.7C284.79 43.5133 284.276 43.3267 284.09 43.14C283.903 42.9533 283.693 42.4167 283.46 41.53L283.53 41.18C283.53 41.04 283.553 40.9 283.6 40.76C283.646 40.62 283.81 39.5 284.09 37.4L284.23 36C284.37 34.74 284.44 33.9467 284.44 33.62C284.393 33.2 284.393 32.6167 284.44 31.87C284.486 31.0767 284.3 29.8167 283.88 28.09C283.506 26.3633 283.343 25.3133 283.39 24.94C283.343 24.8933 283.32 24.8467 283.32 24.8C283.366 24.52 283.436 24.2867 283.53 24.1C283.623 23.96 283.786 23.82 284.02 23.68C284.253 23.4933 284.51 23.3767 284.79 23.33C284.93 23.2833 285.07 23.2833 285.21 23.33C285.35 23.33 285.513 23.3767 285.7 23.47C285.98 23.5167 286.213 23.6567 286.4 23.89C286.586 24.1233 286.913 25.2667 287.38 27.32C287.846 29.3267 288.056 30.7267 288.01 31.52C287.963 32.2667 287.8 34.5067 287.52 38.24C287.193 41.2267 286.936 42.8133 286.75 43C286.563 43.2333 286.33 43.42 286.05 43.56L285.63 43.7ZM315.31 41.11C314.843 41.0633 314.586 41.0167 314.54 40.97C314.493 40.9233 313.98 40.8533 313 40.76L311.32 40.55C309.173 40.3633 307.166 40.2 305.3 40.06C303.433 39.92 302.336 39.8267 302.01 39.78C301.683 39.7333 300.913 39.7333 299.7 39.78C298.533 39.8267 297.856 39.85 297.67 39.85C297.483 39.8033 296.363 39.8967 294.31 40.13L291.16 40.41C290.413 40.27 289.923 40.1067 289.69 39.92C289.503 39.7333 289.363 39.4767 289.27 39.15C289.176 38.9633 289.153 38.7533 289.2 38.52C289.2 38.38 289.246 38.24 289.34 38.1C289.386 37.7267 289.55 37.4467 289.83 37.26C290.11 37.0267 291.58 36.8167 294.24 36.63C296.946 36.3967 298.906 36.28 300.12 36.28C301.333 36.2333 305.393 36.5133 312.3 37.12C315.38 37.4467 317.013 37.68 317.2 37.82C317.433 37.96 317.69 38.4733 317.97 39.36L317.9 39.64C317.9 39.8733 317.876 40.0367 317.83 40.13C317.69 40.3167 317.526 40.5033 317.34 40.69C317.153 40.83 316.476 40.97 315.31 41.11ZM300.75 39.71C300.05 39.6167 299.606 39.5 299.42 39.36C299.233 39.1733 299 38.6133 298.72 37.68C298.673 37.54 298.65 37.4233 298.65 37.33C298.696 37.1433 298.743 37.0267 298.79 36.98C298.836 36.9333 298.906 36.77 299 36.49C299.093 36.21 299.326 35.3467 299.7 33.9C300.12 32.4067 300.376 31.38 300.47 30.82C300.563 30.26 300.703 29.49 300.89 28.51L300.96 27.95C301.053 27.0633 301.1 26.0833 301.1 25.01C301.1 24.4033 301.123 23.9133 301.17 23.54C301.216 23.0733 301.31 22.7467 301.45 22.56C301.543 22.3267 301.73 22.14 302.01 22C302.29 21.8133 302.616 21.72 302.99 21.72H303.13C303.41 21.7667 303.666 21.8833 303.9 22.07C304.133 22.21 304.32 22.42 304.46 22.7C304.6 22.98 304.623 24.8 304.53 28.16L304.32 30.05C304.273 30.05 304.18 30.4233 304.04 31.17C303.946 31.87 303.876 32.36 303.83 32.64L303.62 33.06C303.573 33.06 303.503 33.34 303.41 33.9L303.2 34.67C303.153 34.67 303.06 34.9733 302.92 35.58L302.78 36.49C302.733 36.49 302.663 36.7467 302.57 37.26C302.523 37.7267 302.336 38.1933 302.01 38.66C301.73 39.1267 301.45 39.43 301.17 39.57L300.75 39.71ZM290.32 30.96C289.806 30.8667 289.456 30.75 289.27 30.61C289.083 30.47 288.873 29.9567 288.64 29.07C288.593 28.9767 288.57 28.9067 288.57 28.86C288.616 28.6267 288.686 28.4633 288.78 28.37C288.826 28.1833 288.966 27.9967 289.2 27.81C289.433 27.6233 291.09 27.3667 294.17 27.04C297.296 26.7133 299.07 26.5267 299.49 26.48C299.956 26.3867 301.123 26.3633 302.99 26.41C304.856 26.41 306.046 26.3867 306.56 26.34C307.073 26.2933 307.936 26.2467 309.15 26.2C310.41 26.1067 311.343 26.0833 311.95 26.13C312.51 26.1767 312.906 26.27 313.14 26.41C313.373 26.55 313.56 26.7833 313.7 27.11C313.793 27.39 313.84 27.6933 313.84 28.02L313.77 28.23C313.676 28.6967 313.466 29.0467 313.14 29.28C312.86 29.4667 312.136 29.6533 310.97 29.84C310.55 29.7933 309.873 29.7933 308.94 29.84C308.053 29.8867 305.486 29.91 301.24 29.91C300.96 29.91 300.633 29.9333 300.26 29.98C299.933 30.0267 298.953 30.05 297.32 30.05C297.04 30.05 295.803 30.19 293.61 30.47L290.32 30.96ZM280.45 16.96C280.076 16.8667 279.773 16.75 279.54 16.61C279.353 16.47 279.12 15.98 278.84 15.14C278.793 15.0467 278.77 14.9767 278.77 14.93C278.816 14.6967 278.886 14.51 278.98 14.37C279.073 14.1833 279.26 13.9967 279.54 13.81C279.82 13.5767 282.97 13.2967 288.99 12.97C295.01 12.6433 298.58 12.5033 299.7 12.55C300.866 12.5967 302.126 12.62 303.48 12.62C304.88 12.62 305.79 12.5967 306.21 12.55C306.676 12.5033 307.61 12.4567 309.01 12.41C310.456 12.3167 311.46 12.2933 312.02 12.34C312.533 12.3867 312.883 12.48 313.07 12.62C313.256 12.76 313.49 13.2967 313.77 14.23V14.51C313.723 14.7433 313.676 14.93 313.63 15.07C313.49 15.21 313.303 15.3733 313.07 15.56C312.836 15.7467 311.903 15.9333 310.27 16.12C309.756 16.0267 309.406 16.0033 309.22 16.05C309.08 16.0967 308.916 16.0967 308.73 16.05C308.496 16.05 307.843 16.0733 306.77 16.12C305.696 16.1667 305.02 16.1667 304.74 16.12C304.413 16.12 303.713 16.1433 302.64 16.19C301.566 16.19 300.843 16.1667 300.47 16.12C300.096 16.0733 299.256 16.0733 297.95 16.12C296.69 16.12 295.966 16.12 295.78 16.12C295.546 16.0733 294.263 16.0967 291.93 16.19C289.596 16.2833 288.36 16.33 288.22 16.33C288.033 16.2833 286.703 16.3767 284.23 16.61L280.45 16.96ZM361.052 39.78C360.539 39.78 360.212 39.7567 360.072 39.71C359.932 39.6633 359.629 39.3833 359.162 38.87C358.742 38.3567 358.369 37.9367 358.042 37.61C357.715 37.2833 357.249 36.6533 356.642 35.72C356.082 34.7867 355.802 34.18 355.802 33.9C355.755 33.9 355.732 33.8767 355.732 33.83C355.732 33.5967 355.802 33.3633 355.942 33.13C356.035 32.8967 356.175 32.71 356.362 32.57C356.595 32.43 356.899 32.36 357.272 32.36C357.599 32.36 357.832 32.4067 357.972 32.5C358.159 32.5933 358.835 33.48 360.002 35.16V35.23C360.095 35.23 360.165 34.9733 360.212 34.46C360.212 33.8533 360.235 33.4333 360.282 33.2C360.375 32.92 360.469 32.2433 360.562 31.17C360.655 30.0967 360.702 29.0933 360.702 28.16C360.749 27.2267 360.865 26.1067 361.052 24.8C361.239 23.4933 361.495 21.79 361.822 19.69C362.195 17.59 362.475 15.8633 362.662 14.51C362.849 13.1567 362.942 12.27 362.942 11.85C362.989 11.3833 363.059 10.8233 363.152 10.17C363.245 9.51667 363.339 9.09667 363.432 8.91C363.432 8.81667 362.685 8.77 361.192 8.77C360.352 8.77 359.255 8.79333 357.902 8.84C354.169 8.93333 351.999 8.98 351.392 8.98C350.785 8.98 350.412 8.95666 350.272 8.91C350.132 8.86333 349.829 8.44333 349.362 7.65V7.37C349.362 7.18333 349.409 6.99667 349.502 6.81C349.595 6.57667 349.735 6.39 349.922 6.25C350.155 6.11 352.815 5.97 357.902 5.83C361.075 5.78333 363.292 5.76 364.552 5.76H365.882C366.069 5.85333 366.302 6.06333 366.582 6.39C366.909 6.71667 367.095 7.06666 367.142 7.44V7.65C367.142 7.97667 367.095 8.25666 367.002 8.49L366.792 8.91C366.745 8.91 366.675 9.07333 366.582 9.4L366.442 9.89C366.395 9.89 366.349 10.1233 366.302 10.59L366.162 11.36C366.115 11.36 366.069 11.57 366.022 11.99C366.022 12.3633 365.952 12.83 365.812 13.39L365.602 14.3C365.555 14.3 365.509 14.72 365.462 15.56L365.392 16.89C365.345 16.89 365.252 17.38 365.112 18.36L364.902 19.9C364.855 19.9 364.692 21.02 364.412 23.26L363.922 26.62C363.875 26.62 363.829 27.0867 363.782 28.02C363.782 28.9533 363.759 29.56 363.712 29.84L363.642 30.26C363.595 30.26 363.549 30.68 363.502 31.52C363.502 32.36 363.479 32.8967 363.432 33.13L363.362 33.48C363.315 33.48 363.269 34.2267 363.222 35.72L363.152 38.03C363.105 38.03 363.035 38.17 362.942 38.45C362.895 38.73 362.615 39.1033 362.102 39.57L361.752 39.78H361.052ZM335.432 31.94C335.199 31.94 334.989 31.9167 334.802 31.87C334.615 31.7767 334.405 31.4733 334.172 30.96C333.985 30.4467 333.845 30.1433 333.752 30.05C333.705 29.91 333.379 26.5967 332.772 20.11C332.259 16.47 332.002 14.37 332.002 13.81C332.002 13.7167 332.025 13.67 332.072 13.67C332.119 13.4833 332.235 13.2967 332.422 13.11C332.655 12.9233 332.935 12.8067 333.262 12.76H333.542C333.729 12.76 333.892 12.7833 334.032 12.83C334.265 12.9233 334.452 13.0867 334.592 13.32C334.779 13.5533 335.152 16.19 335.712 21.23C336.319 26.27 336.645 28.8367 336.692 28.93C336.785 28.9767 336.832 29.3267 336.832 29.98C336.832 30.68 336.762 31.1233 336.622 31.31C336.482 31.4967 336.295 31.6367 336.062 31.73L335.712 31.94H335.432ZM336.832 29.14C336.225 29.0933 335.829 29 335.642 28.86C335.455 28.72 335.315 28.51 335.222 28.23C335.129 28.09 335.082 27.9267 335.082 27.74C335.082 27.6 335.105 27.46 335.152 27.32C335.199 26.9933 335.292 26.76 335.432 26.62C335.619 26.4333 338.419 25.5467 343.832 23.96C344.159 23.96 344.415 24.03 344.602 24.17C344.789 24.2633 344.952 24.4267 345.092 24.66C345.185 24.8933 345.232 25.1267 345.232 25.36V25.57C345.185 25.9433 345.069 26.2233 344.882 26.41C344.742 26.5967 343.365 27.0867 340.752 27.88L336.832 29.14ZM344.672 30.54C343.879 30.4933 343.389 30.4 343.202 30.26C343.015 30.12 342.735 29.56 342.362 28.58C342.315 28.4867 342.292 28.3933 342.292 28.3C342.292 28.02 342.339 27.81 342.432 27.67C342.479 27.4833 342.595 27.32 342.782 27.18C342.969 26.9933 343.109 26.3867 343.202 25.36C343.295 24.3333 343.342 23.4933 343.342 22.84C343.389 22.14 343.459 21.3233 343.552 20.39C343.645 19.4567 343.715 18.8733 343.762 18.64C343.855 18.36 343.949 17.66 344.042 16.54C344.135 15.42 344.205 14.58 344.252 14.02C344.252 13.7867 344.019 13.67 343.552 13.67C342.852 13.67 341.522 13.9733 339.562 14.58C336.575 15.4667 334.849 15.91 334.382 15.91C334.009 15.8633 333.752 15.7933 333.612 15.7C333.472 15.56 333.355 15.35 333.262 15.07C333.169 14.93 333.122 14.7667 333.122 14.58C333.122 14.44 333.145 14.3 333.192 14.16C333.239 13.8333 333.332 13.6 333.472 13.46C333.659 13.2733 337.369 12.1767 344.602 10.17H345.092C345.512 10.17 345.815 10.1933 346.002 10.24C346.189 10.3333 346.422 10.5433 346.702 10.87C347.029 11.1967 347.215 11.9667 347.262 13.18V14.3C347.262 14.86 347.239 15.1867 347.192 15.28L347.122 15.56C347.075 15.56 347.029 16.0033 346.982 16.89C346.982 17.7767 346.959 18.3367 346.912 18.57L346.842 18.92C346.795 18.92 346.749 19.27 346.702 19.97C346.702 20.67 346.679 21.1367 346.632 21.37L346.562 21.72C346.515 21.72 346.469 22.07 346.422 22.77C346.422 23.47 346.399 23.9367 346.352 24.17L346.282 24.52C346.235 24.52 346.189 25.01 346.142 25.99C346.142 26.9233 346.119 27.46 346.072 27.6L346.002 27.81C345.955 27.81 345.909 28.1133 345.862 28.72C345.815 29.3267 345.535 29.8633 345.022 30.33L344.672 30.54ZM349.992 40.06C349.759 40.06 349.549 40.0367 349.362 39.99C349.175 39.8967 348.895 39.1267 348.522 37.68C348.475 37.5867 348.452 37.4933 348.452 37.4C348.452 36.6533 348.545 36.07 348.732 35.65C348.872 35.1833 349.012 34.88 349.152 34.74C349.339 34.6 350.179 30.8433 351.672 23.47C353.165 16.0967 353.959 12.2 354.052 11.78C354.192 11.36 354.635 10.94 355.382 10.52H355.662C355.849 10.52 356.012 10.5433 356.152 10.59C356.385 10.6833 356.572 10.8467 356.712 11.08C356.899 11.3133 357.015 11.57 357.062 11.85V11.92C357.062 12.34 356.479 15.5133 355.312 21.44C354.145 27.5533 353.399 31.2633 353.072 32.57L352.582 34.6C352.535 34.6 352.442 34.88 352.302 35.44C352.209 36 352.092 36.56 351.952 37.12L351.672 38.03C351.625 38.03 351.555 38.2167 351.462 38.59C351.415 38.9633 351.135 39.3833 350.622 39.85L350.272 40.06H349.992ZM349.432 28.86C348.825 28.8133 348.429 28.72 348.242 28.58C348.055 28.44 347.915 28.23 347.822 27.95C347.729 27.81 347.682 27.6467 347.682 27.46C347.682 27.32 347.705 27.18 347.752 27.04C347.799 26.7133 347.915 26.4567 348.102 26.27C348.335 26.0833 352.675 24.8 361.122 22.42C361.309 22.3267 361.495 22.28 361.682 22.28H362.032C362.359 22.3733 362.615 22.5367 362.802 22.77C363.035 23.0033 363.152 23.3533 363.152 23.82C363.152 24.3333 363.082 24.6833 362.942 24.87C362.802 25.0567 362.429 25.2667 361.822 25.5C361.635 25.5 359.535 26.06 355.522 27.18L349.432 28.86ZM349.432 21.58C349.199 21.58 348.965 21.5333 348.732 21.44C348.545 21.3467 348.289 20.9267 347.962 20.18C347.915 20.1333 347.892 20.0867 347.892 20.04C347.892 19.8533 347.939 19.69 348.032 19.55C348.079 19.3633 348.172 19.2 348.312 19.06C348.499 18.8733 350.575 18.08 354.542 16.68C358.509 15.2333 360.679 14.4867 361.052 14.44H361.962C362.149 14.5333 362.335 14.6967 362.522 14.93C362.755 15.1633 362.872 15.4667 362.872 15.84C362.872 16.26 362.779 16.5867 362.592 16.82C362.452 17.0067 360.119 17.8933 355.592 19.48L349.712 21.58H349.432ZM374.072 44.82C373.372 44.7267 372.882 44.54 372.602 44.26C372.322 43.98 372.042 43.3967 371.762 42.51C371.529 41.6233 371.342 41.0167 371.202 40.69C371.062 40.3167 370.969 39.9667 370.922 39.64V39.36C370.922 39.1267 370.969 38.9167 371.062 38.73C371.155 38.4967 371.342 38.31 371.622 38.17C371.809 38.0767 371.902 37.9133 371.902 37.68V37.47C371.809 37.19 371.739 36.63 371.692 35.79C371.692 34.9033 371.645 33.2933 371.552 30.96C371.459 28.58 371.272 24.8233 370.992 19.69C370.759 15.5833 370.642 13.0633 370.642 12.13C370.642 11.8967 370.665 11.7567 370.712 11.71C370.759 11.5233 370.875 11.3367 371.062 11.15C371.295 10.9633 371.575 10.8467 371.902 10.8H372.112C372.345 10.8 372.555 10.8233 372.742 10.87C372.975 11.01 373.162 11.1967 373.302 11.43C373.442 11.6167 373.652 15.2333 373.932 22.28C374.259 29.28 374.445 32.9433 374.492 33.27C374.585 33.5967 374.679 34.3433 374.772 35.51C374.865 36.63 374.912 37.5633 374.912 38.31C374.959 39.01 375.052 40.2 375.192 41.88C375.192 43.2333 375.122 44.0033 374.982 44.19C374.842 44.3767 374.655 44.5167 374.422 44.61L374.072 44.82ZM377.432 32.5C376.545 32.4067 375.985 32.2433 375.752 32.01C375.519 31.73 375.239 31.0767 374.912 30.05C374.632 29.0233 374.445 28.4633 374.352 28.37C374.305 28.23 374.282 27.8333 374.282 27.18C374.282 26.5733 374.329 26.1767 374.422 25.99C374.562 25.8033 374.795 25.64 375.122 25.5C375.309 25.4067 375.495 25.36 375.682 25.36H376.032C376.359 25.4533 376.615 25.6167 376.802 25.85C377.035 26.0833 377.175 26.41 377.222 26.83C377.315 27.25 377.385 27.6467 377.432 28.02C377.479 28.3933 377.549 28.65 377.642 28.79C377.642 28.8833 377.689 28.93 377.782 28.93C377.875 28.93 377.969 28.8833 378.062 28.79C378.295 28.6967 378.552 28.5333 378.832 28.3C379.112 28.02 379.765 27.2967 380.792 26.13C381.865 24.9167 382.472 24.1467 382.612 23.82C382.752 23.4467 382.845 23.12 382.892 22.84V22.77C382.892 22.5367 382.752 22.3267 382.472 22.14C382.145 22 381.819 21.93 381.492 21.93C381.165 21.8833 380.699 21.72 380.092 21.44C379.485 21.16 379.042 20.95 378.762 20.81C378.482 20.67 378.085 20.2733 377.572 19.62C377.059 18.9667 376.802 18.22 376.802 17.38C376.802 16.5867 376.895 16.05 377.082 15.77C377.269 15.49 377.712 14.8367 378.412 13.81C379.159 12.7367 379.649 12.0367 379.882 11.71C380.115 11.3833 380.419 10.9633 380.792 10.45C380.839 10.4033 380.862 10.3567 380.862 10.31C380.862 10.17 380.535 10.1 379.882 10.1C379.182 10.1 378.155 10.17 376.802 10.31C374.095 10.6833 372.439 10.87 371.832 10.87H371.692C371.272 10.8233 370.945 10.6833 370.712 10.45C370.525 10.2167 370.409 9.93666 370.362 9.61V9.4C370.362 9.16667 370.409 8.95667 370.502 8.77C370.595 8.53667 370.735 8.35 370.922 8.21C371.155 8.07 375.099 7.53333 382.752 6.6C383.265 6.6 383.662 6.67 383.942 6.81C384.222 6.95 384.595 7.58 385.062 8.7V8.98C385.062 9.54 384.992 9.96 384.852 10.24C384.712 10.5667 384.479 10.9167 384.152 11.29L383.592 11.85C383.545 11.85 383.335 12.1067 382.962 12.62C382.635 13.1333 382.309 13.5767 381.982 13.95L381.422 14.58C381.375 14.58 381.282 14.6733 381.142 14.86L380.932 15.21C380.885 15.21 380.699 15.5133 380.372 16.12L379.882 17.03C379.835 17.03 379.812 17.1467 379.812 17.38C379.765 17.4267 379.742 17.4733 379.742 17.52C379.742 17.7067 379.812 17.8467 379.952 17.94C380.092 18.0333 380.325 18.1967 380.652 18.43C381.025 18.6633 381.749 18.9667 382.822 19.34C383.942 19.6667 384.595 19.9233 384.782 20.11C385.015 20.25 385.389 21.02 385.902 22.42V22.63C385.902 23.2367 385.809 23.8433 385.622 24.45C385.389 25.1033 385.132 25.6167 384.852 25.99C384.619 26.3633 384.222 26.8533 383.662 27.46L382.752 28.37C382.705 28.37 382.565 28.5333 382.332 28.86C382.099 29.1867 381.329 29.9567 380.022 31.17C379.975 31.17 379.835 31.2867 379.602 31.52C379.369 31.7533 378.925 31.9867 378.272 32.22C378.085 32.22 377.899 32.2667 377.712 32.36L377.432 32.5ZM405.79 42.93C405.51 43.1633 405.183 43.2567 404.81 43.21C404.39 43.21 404.017 43.07 403.69 42.79C403.41 42.4633 403.27 42.09 403.27 41.67C403.27 41.1567 403.457 40.7367 403.83 40.41C404.11 40.2233 404.343 39.8967 404.53 39.43C404.763 38.9167 404.88 38.4733 404.88 38.1C404.88 37.5867 404.787 37.3067 404.6 37.26C404.413 37.1667 403.9 37.2367 403.06 37.47C402.547 37.61 402.08 37.5167 401.66 37.19C401.287 36.8633 401.1 36.4433 401.1 35.93C401.1 35.5567 401.193 35.23 401.38 34.95C401.613 34.67 401.893 34.4833 402.22 34.39C404.133 33.8767 405.58 34.04 406.56 34.88C407.54 35.6733 408.03 36.7467 408.03 38.1C408.03 38.8 407.82 39.6633 407.4 40.69C406.98 41.67 406.443 42.4167 405.79 42.93ZM451.263 43.35C450.143 43.35 449.233 43.3033 448.533 43.21C447.833 43.1167 447.016 42.86 446.083 42.44C445.149 42.02 444.566 41.7167 444.333 41.53C444.146 41.3433 443.726 40.9233 443.073 40.27C442.466 39.57 442.046 38.9167 441.813 38.31C441.579 37.7033 441.439 36.6067 441.393 35.02C441.346 34.46 441.323 33.97 441.323 33.55C441.323 32.8967 441.369 32.4767 441.463 32.29C441.556 32.0567 441.719 31.8467 441.953 31.66C442.233 31.4733 442.559 31.3567 442.933 31.31H443.073C443.399 31.31 443.679 31.38 443.913 31.52C444.146 31.66 444.333 31.87 444.473 32.15C444.659 32.3833 444.846 33.34 445.033 35.02C445.219 36.7 445.476 37.7033 445.803 38.03C446.129 38.3567 446.759 38.73 447.693 39.15C448.673 39.5233 449.723 39.71 450.843 39.71C451.123 39.7567 451.379 39.78 451.613 39.78C452.266 39.78 452.663 39.7333 452.803 39.64C452.943 39.5933 453.386 39.5 454.133 39.36C454.926 39.22 456.069 38.94 457.563 38.52C458.963 38.1467 459.663 37.8667 459.663 37.68V37.61C459.616 37.5167 459.593 37.3767 459.593 37.19V36.77C459.639 36.3967 459.733 36.1167 459.873 35.93C460.059 35.7433 460.293 35.58 460.573 35.44C460.759 35.3467 460.969 35.3 461.203 35.3C461.389 35.3 461.599 35.3233 461.833 35.37C462.346 35.4633 462.696 35.58 462.883 35.72C463.069 35.86 463.396 36.0233 463.863 36.21C464.376 36.3967 464.726 36.63 464.913 36.91C465.146 37.19 465.286 37.5633 465.333 38.03V38.17C465.333 38.59 465.263 38.9167 465.123 39.15C464.936 39.43 464.656 39.6867 464.283 39.92C463.909 40.1533 462.369 40.69 459.663 41.53C456.956 42.3233 455.556 42.72 455.463 42.72C455.323 42.72 454.856 42.8133 454.063 43L452.873 43.35H451.263ZM434.813 39.64C434.533 39.64 434.299 39.6167 434.113 39.57C433.973 39.4767 433.646 38.87 433.133 37.75C433.133 37.19 433.249 36.63 433.483 36.07C433.716 35.51 433.903 34.9967 434.043 34.53C434.089 34.25 434.113 33.9467 434.113 33.62C434.113 33.34 434.089 33.0133 434.043 32.64C433.949 31.8933 433.879 31.1467 433.833 30.4V29.7C433.833 29.42 433.856 29.21 433.903 29.07C433.949 28.93 434.089 28.7433 434.323 28.51C434.603 28.2767 434.929 28.1367 435.303 28.09H436.143C436.329 28.1833 436.539 28.37 436.773 28.65C437.053 28.93 437.356 30.54 437.683 33.48C437.683 34.18 437.613 34.8333 437.473 35.44L437.263 36.35C437.216 36.35 437.146 36.56 437.053 36.98L436.843 37.61C436.796 37.61 436.726 37.7733 436.633 38.1C436.539 38.4267 436.213 38.87 435.653 39.43L435.233 39.64H434.813ZM454.063 36.07C453.643 36.07 453.363 36.0467 453.223 36C453.083 35.9533 452.663 35.79 451.963 35.51C451.263 35.1833 450.283 34.7633 449.023 34.25C447.763 33.7367 446.946 32.99 446.573 32.01C446.573 31.59 446.619 31.2867 446.713 31.1C446.853 30.9133 447.389 30.6567 448.323 30.33C448.649 30.33 449.583 30.6333 451.123 31.24C452.663 31.8467 453.759 32.29 454.413 32.57C455.113 32.85 455.533 33.1067 455.673 33.34C455.813 33.5267 455.906 33.7133 455.953 33.9V34.6C455.906 34.9267 455.813 35.1833 455.673 35.37C455.533 35.5567 455.346 35.72 455.113 35.86L454.693 36.07H454.063ZM444.333 29.28C444.006 29.28 443.703 29.21 443.423 29.07C443.189 28.93 442.909 28.1833 442.583 26.83C442.536 26.55 442.513 26.2933 442.513 26.06C442.513 25.64 442.536 25.3367 442.583 25.15C442.629 24.9167 442.699 24.66 442.793 24.38C442.933 24.0533 443.073 23.4233 443.213 22.49C443.353 21.51 443.446 20.2267 443.493 18.64V17.94C443.493 16.7267 443.446 15.7467 443.353 15C443.213 14.16 443.143 13.4833 443.143 12.97C443.143 12.4567 443.189 12.1067 443.283 11.92C443.423 11.7333 443.959 11.4533 444.893 11.08C445.266 11.08 445.546 11.15 445.733 11.29C445.966 11.3833 446.223 12.13 446.503 13.53C446.829 14.8833 447.016 16.4 447.063 18.08V19.06C447.063 20.2267 447.016 21.02 446.923 21.44L446.783 22.28C446.736 22.28 446.689 22.56 446.643 23.12C446.643 23.6333 446.573 24.17 446.433 24.73L446.223 25.57C446.176 25.57 446.129 26.0133 446.083 26.9C446.036 27.74 445.733 28.4633 445.173 29.07L444.753 29.28H444.333ZM445.733 24.94C445.173 24.8933 444.776 24.8 444.543 24.66C444.309 24.52 444.029 24.0067 443.703 23.12C443.703 22.7933 443.749 22.5367 443.843 22.35C443.983 22.1167 445.266 21.86 447.693 21.58C450.119 21.2533 451.543 21.0433 451.963 20.95C452.429 20.81 453.083 20.6467 453.923 20.46C454.809 20.2733 455.439 20.1567 455.813 20.11H456.023C456.303 20.11 456.536 20.1567 456.723 20.25C456.956 20.39 457.166 20.6 457.353 20.88C457.539 21.1133 457.656 21.4167 457.703 21.79V22C457.703 22.28 457.656 22.5133 457.563 22.7C457.469 22.9333 457.259 23.1667 456.933 23.4C456.653 23.6333 455.673 23.9133 453.993 24.24C453.573 24.24 453.129 24.31 452.663 24.45C452.243 24.5433 450.983 24.6367 448.883 24.73L445.733 24.94ZM433.343 19.55C432.596 19.41 432.083 19.2 431.803 18.92C431.569 18.64 431.429 18.29 431.383 17.87V17.52C431.383 17.2867 431.406 17.0767 431.453 16.89C431.546 16.61 431.686 16.3767 431.873 16.19C432.106 16.0033 432.689 15.56 433.623 14.86C434.603 14.1133 435.326 13.5067 435.793 13.04C436.259 12.5733 437.076 11.8033 438.243 10.73C439.409 9.65666 440.413 8.65333 441.253 7.72C442.093 6.78666 442.723 5.62 443.143 4.22C443.609 2.77333 443.959 1.95666 444.193 1.77C444.473 1.58333 444.823 1.46666 445.243 1.42H445.383C445.709 1.42 445.966 1.46666 446.153 1.56C446.339 1.7 446.526 1.91 446.713 2.19C446.899 2.42333 447.016 2.70333 447.063 3.03V3.1C447.063 3.52 446.853 4.43 446.433 5.83C445.966 7.32333 445.476 8.37333 444.963 8.98C444.449 9.58667 442.886 11.1267 440.273 13.6C437.706 16.0733 436.399 17.31 436.353 17.31C436.306 17.31 435.956 17.6133 435.303 18.22C434.696 18.78 434.229 19.13 433.903 19.27L433.343 19.55ZM447.273 19.69C447.086 19.69 446.853 19.6433 446.573 19.55C446.293 19.41 445.966 18.8967 445.593 18.01C445.546 17.9167 445.523 17.8233 445.523 17.73C445.523 17.4967 445.569 17.31 445.663 17.17C445.709 17.03 445.826 16.8667 446.013 16.68C446.246 16.4467 447.669 16.0267 450.283 15.42C452.943 14.8133 454.903 14.51 456.163 14.51C457.376 14.51 458.099 14.6033 458.333 14.79C458.566 14.93 458.753 15.1167 458.893 15.35C458.986 15.5833 459.033 15.84 459.033 16.12V16.4C458.986 16.82 458.893 17.1233 458.753 17.31C458.613 17.45 457.889 17.66 456.583 17.94C455.696 17.94 454.996 17.9867 454.483 18.08C453.969 18.1267 453.643 18.15 453.503 18.15C453.363 18.15 452.336 18.4067 450.423 18.92L447.483 19.69H447.273ZM470.023 32.01C469.136 31.9633 468.599 31.8933 468.413 31.8C468.273 31.7067 466.733 31.5433 463.793 31.31C460.899 31.0767 459.383 30.8433 459.243 30.61C459.103 30.3767 459.033 30.0967 459.033 29.77C458.986 29.7233 458.963 29.6767 458.963 29.63C458.963 29.35 459.033 29.0933 459.173 28.86C459.313 28.58 459.523 28.3467 459.803 28.16C459.989 28.02 461.296 27.95 463.723 27.95H464.843C467.923 27.9967 469.579 28.0667 469.813 28.16C470.093 28.2067 470.443 28.44 470.863 28.86C471.283 29.2333 471.516 29.63 471.563 30.05V30.33C471.563 30.61 471.539 30.7967 471.493 30.89C471.399 31.0767 471.259 31.2633 471.073 31.45C470.886 31.6367 470.676 31.7767 470.443 31.87L470.023 32.01ZM441.953 13.46C441.439 13.4133 441.066 13.3433 440.833 13.25C440.646 13.11 440.389 12.62 440.063 11.78C440.016 11.6867 439.993 11.5933 439.993 11.5C439.993 11.2667 440.039 11.08 440.133 10.94C440.179 10.8 440.319 10.6133 440.553 10.38C440.833 10.1467 442.349 9.82 445.103 9.4C447.856 8.93333 449.489 8.65333 450.003 8.56C450.516 8.46667 451.729 8.28 453.643 8C455.556 7.72 456.933 7.58 457.773 7.58C458.566 7.58 459.103 7.60333 459.383 7.65C459.663 7.65 460.013 7.86 460.433 8.28C460.853 8.7 461.063 9.07333 461.063 9.4C461.063 9.72667 460.993 10.0067 460.853 10.24C460.759 10.4733 460.293 10.7067 459.453 10.94C458.659 11.1267 457.446 11.3133 455.813 11.5C454.226 11.6867 453.293 11.78 453.013 11.78C452.733 11.78 452.033 11.8733 450.913 12.06C449.793 12.2 449.116 12.27 448.883 12.27C448.603 12.27 447.389 12.4567 445.243 12.83L441.953 13.46ZM492.131 41.18C490.777 41.1333 490.007 41.0633 489.821 40.97C489.681 40.83 489.541 40.62 489.401 40.34C489.307 40.1533 489.261 39.9433 489.261 39.71V39.5C489.307 39.1733 489.447 38.87 489.681 38.59C489.914 38.31 490.451 37.89 491.291 37.33C492.177 36.7233 492.901 36.2567 493.461 35.93C494.067 35.5567 495.374 34.6 497.381 33.06C499.387 31.52 500.717 30.4933 501.371 29.98C502.024 29.4667 504.801 26.8067 509.701 22C514.601 17.1467 517.237 14.72 517.611 14.72C517.937 14.72 518.194 14.79 518.381 14.93C518.567 15.0233 518.731 15.1867 518.871 15.42C518.964 15.6533 519.011 15.8867 519.011 16.12V16.33C518.964 16.7033 516.794 19.06 512.501 23.4C508.207 27.6933 504.987 30.7033 502.841 32.43C500.694 34.1567 499.597 35.02 499.551 35.02C499.504 35.02 499.201 35.2767 498.641 35.79C498.314 36.0233 498.151 36.21 498.151 36.35C498.151 36.3967 498.244 36.42 498.431 36.42H498.711C499.317 36.3267 499.854 36.1867 500.321 36C500.834 35.8133 503.051 35.44 506.971 34.88C510.891 34.2733 513.131 33.9233 513.691 33.83C514.251 33.7367 514.741 33.62 515.161 33.48H515.441C515.627 33.48 515.791 33.5033 515.931 33.55C516.164 33.6433 516.351 33.8067 516.491 34.04C516.677 34.2733 516.771 34.5767 516.771 34.95C516.771 35.3233 516.701 35.6033 516.561 35.79C516.421 35.9767 515.814 36.28 514.741 36.7C514.461 36.7 513.971 36.7933 513.271 36.98C512.571 37.12 508.907 37.6567 502.281 38.59C502.094 38.59 501.791 38.6833 501.371 38.87C500.951 39.01 499.527 39.3133 497.101 39.78C497.007 39.78 496.634 39.8967 495.981 40.13C495.327 40.3167 494.954 40.41 494.861 40.41C494.767 40.41 494.511 40.5033 494.091 40.69C493.717 40.83 493.391 40.9 493.111 40.9C492.831 40.9 492.597 40.9467 492.411 41.04L492.131 41.18ZM487.231 31.66C486.904 31.66 486.647 31.6367 486.461 31.59C486.274 31.4967 485.994 31.0533 485.621 30.26C485.574 30.2133 485.551 30.1667 485.551 30.12C485.551 29.9333 485.597 29.77 485.691 29.63C485.737 29.4433 485.831 29.28 485.971 29.14C486.157 28.9533 486.647 28.6967 487.441 28.37C488.234 28.0433 489.424 27.3433 491.011 26.27C492.597 25.15 494.137 23.9367 495.631 22.63C497.124 21.2767 499.201 18.4767 501.861 14.23C504.521 9.98333 506.247 7.62666 507.041 7.16H507.321C507.507 7.16 507.671 7.18333 507.811 7.23C508.044 7.32333 508.231 7.48667 508.371 7.72C508.557 7.95333 508.651 8.25667 508.651 8.63C508.651 9.00333 507.297 11.36 504.591 15.7C501.884 19.9933 499.807 22.8167 498.361 24.17C496.961 25.5233 495.327 26.8533 493.461 28.16C491.641 29.4667 490.217 30.3767 489.191 30.89L487.651 31.66H487.231ZM524.051 43.14C523.164 43.0467 522.627 42.9067 522.441 42.72C522.254 42.5333 521.881 42.09 521.321 41.39C520.807 40.69 519.057 38.73 516.071 35.51C513.131 32.2433 511.474 30.2133 511.101 29.42C511.054 29.3733 511.031 29.3267 511.031 29.28C511.031 29.0933 511.077 28.93 511.171 28.79C511.217 28.6033 511.334 28.4167 511.521 28.23C511.754 28.0433 512.011 27.9267 512.291 27.88H512.571C512.757 27.88 512.944 27.9033 513.131 27.95C513.364 28.0433 515.137 29.91 518.451 33.55C521.764 37.1433 523.607 39.1033 523.981 39.43C524.354 39.7567 524.634 40.06 524.821 40.34C525.054 40.62 525.171 40.9933 525.171 41.46C525.171 41.9733 525.101 42.3233 524.961 42.51C524.821 42.6967 524.634 42.8367 524.401 42.93L524.051 43.14ZM572.212 45.31C571.932 45.31 571.325 45.17 570.392 44.89C569.459 44.6567 567.895 44.33 565.702 43.91C563.555 43.5367 562.155 43.2567 561.502 43.07C560.849 42.93 559.402 42.65 557.162 42.23C554.922 41.81 553.359 41.53 552.472 41.39C551.585 41.25 550.512 41.0867 549.252 40.9C547.992 40.6667 546.219 40.55 543.932 40.55C541.645 40.5033 540.339 40.3867 540.012 40.2C539.685 39.9667 539.452 39.6867 539.312 39.36C539.219 39.1733 539.172 38.94 539.172 38.66V38.38C539.219 38.0067 539.312 37.7267 539.452 37.54C539.639 37.3067 539.942 37.0733 540.362 36.84C540.782 36.56 541.132 36.35 541.412 36.21C541.739 36.07 542.135 35.8133 542.602 35.44C543.115 35.0667 543.559 34.7633 543.932 34.53C544.305 34.2967 545.099 33.69 546.312 32.71C546.359 32.71 546.382 32.6867 546.382 32.64C546.382 32.5467 546.312 32.4767 546.172 32.43C545.985 32.3367 545.705 32.15 545.332 31.87C545.005 31.59 544.655 30.7267 544.282 29.28C544.235 29.1867 544.212 29.0933 544.212 29C544.212 28.2533 544.305 27.7167 544.492 27.39C544.679 27.0633 544.795 26.76 544.842 26.48C544.935 26.2 545.075 25.9433 545.262 25.71V25.64C545.262 25.5 545.029 25.43 544.562 25.43H544.002C543.022 25.5233 542.252 25.57 541.692 25.57C541.085 25.57 540.665 25.5 540.432 25.36C540.199 25.22 539.919 24.7067 539.592 23.82C539.592 23.4467 539.639 23.1667 539.732 22.98C539.872 22.7467 540.922 22.49 542.882 22.21C544.842 21.8833 546.335 21.72 547.362 21.72C548.342 21.72 548.925 21.79 549.112 21.93C549.299 22.07 549.602 22.7233 550.022 23.89V24.1C550.022 24.66 549.929 25.1033 549.742 25.43L549.392 25.99C549.345 25.99 549.182 26.2233 548.902 26.69L548.482 27.46C548.435 27.46 548.342 27.6467 548.202 28.02L547.922 28.58C547.875 28.58 547.852 28.6967 547.852 28.93C547.852 29.1633 547.992 29.35 548.272 29.49C548.599 29.63 549.065 30.0267 549.672 30.68C550.325 31.3333 550.675 31.94 550.722 32.5V32.85C550.722 33.27 550.675 33.55 550.582 33.69C550.489 33.9233 550.302 34.18 550.022 34.46C549.742 34.6933 549.579 34.81 549.532 34.81C549.485 34.81 549.369 34.9033 549.182 35.09C548.995 35.2767 548.879 35.37 548.832 35.37C548.785 35.37 548.435 35.6267 547.782 36.14C547.595 36.28 547.502 36.42 547.502 36.56C547.502 36.8867 548.062 37.12 549.182 37.26C550.722 37.54 551.842 37.7267 552.542 37.82C553.289 37.8667 554.759 38.1 556.952 38.52C559.145 38.94 560.452 39.22 560.872 39.36C561.292 39.4533 562.692 39.7333 565.072 40.2C567.499 40.62 568.922 40.9 569.342 41.04C569.762 41.1333 570.065 41.18 570.252 41.18C570.439 41.18 570.719 41.2033 571.092 41.25C571.512 41.2967 572.002 41.46 572.562 41.74C573.169 41.9733 573.565 42.23 573.752 42.51C573.939 42.7433 574.055 43.0467 574.102 43.42V43.7C574.102 43.9333 574.079 44.0967 574.032 44.19C573.939 44.3767 573.799 44.5633 573.612 44.75C573.425 44.9367 573.215 45.0767 572.982 45.17L572.562 45.31H572.212ZM547.712 19.06C547.385 19.06 547.105 19.0133 546.872 18.92C546.639 18.78 546.359 18.4533 546.032 17.94C545.752 17.4267 545.122 16.7033 544.142 15.77C543.209 14.8367 542.509 13.8333 542.042 12.76C542.042 12.2933 542.089 11.99 542.182 11.85C542.275 11.71 542.765 11.43 543.652 11.01H543.862C544.095 11.01 544.282 11.0333 544.422 11.08C544.562 11.1733 545.262 11.85 546.522 13.11C547.829 14.37 548.739 15.4433 549.252 16.33C549.345 16.5633 549.392 16.82 549.392 17.1V17.45C549.345 17.9167 549.252 18.2433 549.112 18.43C548.972 18.57 548.785 18.71 548.552 18.85L548.202 19.06H547.712ZM570.462 33.13C569.809 33.0833 569.295 32.9667 568.922 32.78C568.549 32.5933 567.709 31.9633 566.402 30.89C565.095 29.8167 563.975 29.0467 563.042 28.58C562.109 28.0667 560.615 27.4367 558.562 26.69C556.509 25.9433 555.412 25.4533 555.272 25.22C555.132 24.9867 555.062 24.7067 555.062 24.38C555.015 24.3333 554.992 24.2867 554.992 24.24C554.992 23.96 555.062 23.7033 555.202 23.47C555.295 23.2367 555.459 23.0267 555.692 22.84C555.972 22.6533 556.299 22.5367 556.672 22.49C557.045 22.49 558.119 22.7933 559.892 23.4C561.665 24.0067 563.065 24.5667 564.092 25.08C565.165 25.5933 566.099 26.1067 566.892 26.62C567.685 27.1333 568.385 27.6467 568.992 28.16C569.599 28.6733 570.182 29.1633 570.742 29.63C571.349 30.05 571.722 30.3767 571.862 30.61C571.909 30.7967 571.932 31.0067 571.932 31.24V31.52C571.885 31.8933 571.769 32.1967 571.582 32.43C571.442 32.6167 571.232 32.78 570.952 32.92L570.462 33.13ZM556.602 34.25C556.275 34.25 555.972 34.2033 555.692 34.11C555.459 33.97 555.109 33.41 554.642 32.43C554.595 32.3367 554.572 32.2433 554.572 32.15C554.572 31.9167 554.619 31.73 554.712 31.59C554.759 31.45 554.899 31.2633 555.132 31.03C555.412 30.7967 555.739 30.61 556.112 30.47C556.532 30.33 557.045 29.9567 557.652 29.35C558.259 28.7433 558.865 28.09 559.472 27.39C560.079 26.69 560.592 26.0367 561.012 25.43C561.479 24.8233 562.179 23.9367 563.112 22.77C564.045 21.6033 564.699 20.46 565.072 19.34C565.492 18.1733 565.889 17.3567 566.262 16.89C566.682 16.4233 567.079 16.1667 567.452 16.12H567.592C567.872 16.12 568.129 16.19 568.362 16.33C568.642 16.47 568.852 16.6567 568.992 16.89C569.132 17.0767 569.225 17.3567 569.272 17.73V17.8C569.272 18.22 569.015 19.13 568.502 20.53C567.942 22.0233 567.265 23.2833 566.472 24.31L565.282 25.92C565.235 25.92 564.909 26.3167 564.302 27.11C563.742 27.9033 563.275 28.4867 562.902 28.86L562.342 29.49C562.295 29.49 562.155 29.6533 561.922 29.98C561.689 30.3067 561.315 30.7267 560.802 31.24L560.032 32.08C559.985 32.08 559.845 32.2433 559.612 32.57C559.379 32.85 558.749 33.3167 557.722 33.97L557.022 34.25H556.602ZM552.402 20.81C551.702 20.67 551.212 20.46 550.932 20.18C550.699 19.9 550.559 19.5733 550.512 19.2V18.78C550.512 18.5933 550.535 18.4533 550.582 18.36C550.629 18.1733 550.769 17.9633 551.002 17.73C551.282 17.4967 552.682 17.1233 555.202 16.61C557.722 16.0967 559.239 15.77 559.752 15.63C560.265 15.49 562.482 15.1167 566.402 14.51C570.322 13.9033 572.399 13.53 572.632 13.39C572.912 13.25 573.355 13.1567 573.962 13.11H574.522C574.802 13.11 575.012 13.1333 575.152 13.18C575.292 13.2267 575.455 13.32 575.642 13.46C575.829 13.6 576.062 14.09 576.342 14.93C576.342 15.3033 576.272 15.6067 576.132 15.84C575.992 16.0733 575.152 16.3767 573.612 16.75C572.119 17.1233 571.255 17.31 571.022 17.31C570.789 17.31 569.389 17.5433 566.822 18.01C564.255 18.43 562.902 18.64 562.762 18.64C562.622 18.64 562.062 18.7567 561.082 18.99C560.102 19.2233 559.542 19.34 559.402 19.34C559.262 19.34 558.072 19.5733 555.832 20.04L552.402 20.81ZM562.412 15.98C562.179 15.98 561.922 15.9333 561.642 15.84C561.409 15.7 561.059 15.2567 560.592 14.51C560.172 13.7633 559.519 12.7833 558.632 11.57C557.745 10.31 557.232 9.49333 557.092 9.12C556.952 8.88666 556.882 8.63 556.882 8.35V8.14C556.929 7.81333 557.022 7.55667 557.162 7.37C557.349 7.13667 557.605 6.95 557.932 6.81C558.119 6.71666 558.352 6.67 558.632 6.67H558.842C559.169 6.71667 559.425 6.83333 559.612 7.02C559.845 7.16 560.569 8.16333 561.782 10.03C562.995 11.85 563.672 12.8533 563.812 13.04C563.952 13.2267 564.045 13.4367 564.092 13.67C564.139 13.8567 564.162 14.0433 564.162 14.23V14.51C564.115 14.79 563.999 15.0467 563.812 15.28C563.672 15.4667 563.462 15.63 563.182 15.77L562.762 15.98H562.412ZM596.912 41.18C595.559 41.1333 594.789 41.0633 594.602 40.97C594.462 40.83 594.322 40.62 594.182 40.34C594.089 40.1533 594.042 39.9433 594.042 39.71V39.5C594.089 39.1733 594.229 38.87 594.462 38.59C594.695 38.31 595.232 37.89 596.072 37.33C596.959 36.7233 597.682 36.2567 598.242 35.93C598.849 35.5567 600.155 34.6 602.162 33.06C604.169 31.52 605.499 30.4933 606.152 29.98C606.805 29.4667 609.582 26.8067 614.482 22C619.382 17.1467 622.019 14.72 622.392 14.72C622.719 14.72 622.975 14.79 623.162 14.93C623.349 15.0233 623.512 15.1867 623.652 15.42C623.745 15.6533 623.792 15.8867 623.792 16.12V16.33C623.745 16.7033 621.575 19.06 617.282 23.4C612.989 27.6933 609.769 30.7033 607.622 32.43C605.475 34.1567 604.379 35.02 604.332 35.02C604.285 35.02 603.982 35.2767 603.422 35.79C603.095 36.0233 602.932 36.21 602.932 36.35C602.932 36.3967 603.025 36.42 603.212 36.42H603.492C604.099 36.3267 604.635 36.1867 605.102 36C605.615 35.8133 607.832 35.44 611.752 34.88C615.672 34.2733 617.912 33.9233 618.472 33.83C619.032 33.7367 619.522 33.62 619.942 33.48H620.222C620.409 33.48 620.572 33.5033 620.712 33.55C620.945 33.6433 621.132 33.8067 621.272 34.04C621.459 34.2733 621.552 34.5767 621.552 34.95C621.552 35.3233 621.482 35.6033 621.342 35.79C621.202 35.9767 620.595 36.28 619.522 36.7C619.242 36.7 618.752 36.7933 618.052 36.98C617.352 37.12 613.689 37.6567 607.062 38.59C606.875 38.59 606.572 38.6833 606.152 38.87C605.732 39.01 604.309 39.3133 601.882 39.78C601.789 39.78 601.415 39.8967 600.762 40.13C600.109 40.3167 599.735 40.41 599.642 40.41C599.549 40.41 599.292 40.5033 598.872 40.69C598.499 40.83 598.172 40.9 597.892 40.9C597.612 40.9 597.379 40.9467 597.192 41.04L596.912 41.18ZM592.012 31.66C591.685 31.66 591.429 31.6367 591.242 31.59C591.055 31.4967 590.775 31.0533 590.402 30.26C590.355 30.2133 590.332 30.1667 590.332 30.12C590.332 29.9333 590.379 29.77 590.472 29.63C590.519 29.4433 590.612 29.28 590.752 29.14C590.939 28.9533 591.429 28.6967 592.222 28.37C593.015 28.0433 594.205 27.3433 595.792 26.27C597.379 25.15 598.919 23.9367 600.412 22.63C601.905 21.2767 603.982 18.4767 606.642 14.23C609.302 9.98333 611.029 7.62666 611.822 7.16H612.102C612.289 7.16 612.452 7.18333 612.592 7.23C612.825 7.32333 613.012 7.48667 613.152 7.72C613.339 7.95333 613.432 8.25667 613.432 8.63C613.432 9.00333 612.079 11.36 609.372 15.7C606.665 19.9933 604.589 22.8167 603.142 24.17C601.742 25.5233 600.109 26.8533 598.242 28.16C596.422 29.4667 594.999 30.3767 593.972 30.89L592.432 31.66H592.012ZM628.832 43.14C627.945 43.0467 627.409 42.9067 627.222 42.72C627.035 42.5333 626.662 42.09 626.102 41.39C625.589 40.69 623.839 38.73 620.852 35.51C617.912 32.2433 616.255 30.2133 615.882 29.42C615.835 29.3733 615.812 29.3267 615.812 29.28C615.812 29.0933 615.859 28.93 615.952 28.79C615.999 28.6033 616.115 28.4167 616.302 28.23C616.535 28.0433 616.792 27.9267 617.072 27.88H617.352C617.539 27.88 617.725 27.9033 617.912 27.95C618.145 28.0433 619.919 29.91 623.232 33.55C626.545 37.1433 628.389 39.1033 628.762 39.43C629.135 39.7567 629.415 40.06 629.602 40.34C629.835 40.62 629.952 40.9933 629.952 41.46C629.952 41.9733 629.882 42.3233 629.742 42.51C629.602 42.6967 629.415 42.8367 629.182 42.93L628.832 43.14ZM682.103 23.26C681.216 23.1667 680.586 22.9567 680.213 22.63C679.84 22.2567 679.42 21.58 678.953 20.6V20.32C678.953 20.0867 679 19.8767 679.093 19.69C679.186 19.4567 679.326 19.27 679.513 19.13C679.746 18.99 680.026 18.92 680.353 18.92C680.68 18.92 680.843 18.7567 680.843 18.43C680.89 18.0567 681.076 17.17 681.403 15.77C681.776 14.37 682.033 13.46 682.173 13.04C682.36 12.5733 682.57 11.85 682.803 10.87C683.083 9.84333 683.386 8.81666 683.713 7.79C683.9 7.04333 683.993 6.55333 683.993 6.32V6.18H683.923C683.783 6.18 683.643 6.22666 683.503 6.32C683.316 6.41333 682.99 6.46 682.523 6.46C682.056 6.46 677.203 7.58 667.963 9.82C658.77 12.0133 653.963 13.11 653.543 13.11C653.123 13.11 652.82 13.04 652.633 12.9C652.446 12.76 652.306 12.55 652.213 12.27C652.12 12.13 652.073 11.9667 652.073 11.78C652.073 11.64 652.096 11.5 652.143 11.36C652.19 11.0333 652.306 10.7767 652.493 10.59C652.726 10.4033 657.813 9.16667 667.753 6.88C677.693 4.59333 682.71 3.42667 682.803 3.38C682.896 3.28666 683.48 3.21667 684.553 3.17H685.253C685.906 3.17 686.326 3.19333 686.513 3.24C686.7 3.33333 686.933 3.54333 687.213 3.87C687.54 4.19666 687.726 4.59333 687.773 5.06V5.41C687.773 5.73667 687.726 5.97 687.633 6.11L687.493 6.46C687.446 6.46 687.376 6.53 687.283 6.67L687.143 6.95C687.096 6.95 686.98 7.3 686.793 8C686.606 8.65333 686.42 9.28333 686.233 9.89L685.883 10.8C685.836 10.8 685.766 11.0333 685.673 11.5C685.626 11.9667 685.533 12.48 685.393 13.04L685.113 13.88C685.066 13.88 684.926 14.4633 684.693 15.63C684.506 16.7967 684.343 17.5433 684.203 17.87L683.993 18.43C683.946 18.43 683.9 18.6633 683.853 19.13C683.853 19.5967 683.783 20.0867 683.643 20.6L683.433 21.37C683.386 21.37 683.34 21.5333 683.293 21.86C683.246 22.1867 682.966 22.5833 682.453 23.05L682.103 23.26ZM658.583 51.26C657.976 51.2133 657.58 51.12 657.393 50.98C657.253 50.8867 657.113 50.7 656.973 50.42C656.88 50.28 656.833 49.8133 656.833 49.02C656.833 48.3667 656.88 47.4567 656.973 46.29C657.066 43.77 657.16 42.4167 657.253 42.23C657.393 42.0433 657.626 41.88 657.953 41.74C658.14 41.6467 658.326 41.6 658.513 41.6H658.863C659.19 41.6933 659.423 41.8333 659.563 42.02C659.75 42.16 659.866 42.3 659.913 42.44C659.96 42.5333 659.983 42.8367 659.983 43.35C659.983 43.8633 659.96 44.61 659.913 45.59V47.48C659.913 48.18 659.936 48.5767 659.983 48.67V49.51C659.936 49.9767 659.796 50.3267 659.563 50.56C659.376 50.7933 659.166 50.9567 658.933 51.05L658.583 51.26ZM671.743 49.02C671.043 48.9267 670.576 48.7633 670.343 48.53C670.156 48.3433 669.806 48.1333 669.293 47.9C668.826 47.7133 667.636 47.2233 665.723 46.43C663.81 45.6367 662.62 44.8433 662.153 44.05V43.84C662.153 43.6067 662.2 43.3967 662.293 43.21C662.386 42.9767 662.526 42.79 662.713 42.65C662.946 42.51 663.25 42.44 663.623 42.44C663.95 42.44 665.023 42.8367 666.843 43.63C668.663 44.4233 670.016 44.96 670.903 45.24C671.79 45.52 672.326 45.7767 672.513 46.01C672.746 46.2433 672.863 46.64 672.863 47.2C672.863 47.8067 672.793 48.2033 672.653 48.39C672.513 48.5767 672.326 48.7167 672.093 48.81L671.743 49.02ZM645.703 46.78C645.096 46.7333 644.7 46.64 644.513 46.5C644.326 46.36 644.186 46.15 644.093 45.87C644 45.73 643.953 45.5667 643.953 45.38C643.953 45.24 643.976 45.1 644.023 44.96C644.07 44.6333 644.186 44.3767 644.373 44.19C644.606 44.0033 658.14 40.41 684.973 33.41H685.603C686.21 33.41 686.606 33.4333 686.793 33.48C686.98 33.5733 687.166 33.7367 687.353 33.97C687.586 34.2033 687.703 34.5533 687.703 35.02C687.703 35.5333 687.633 35.8833 687.493 36.07C687.353 36.2567 686.676 36.56 685.463 36.98C685.09 36.98 684.81 37.0267 684.623 37.12C684.436 37.2133 683.97 37.26 683.223 37.26C682.43 37.26 681.986 37.2367 681.893 37.19C681.613 37.19 675.57 38.7767 663.763 41.95L645.703 46.78ZM679.023 46.5C678.23 46.4533 677.763 46.36 677.623 46.22C677.483 46.1267 676.41 45.73 674.403 45.03C672.396 44.3767 671.346 43.91 671.253 43.63C671.16 43.49 671.113 43.3267 671.113 43.14C671.113 43 671.136 42.86 671.183 42.72C671.23 42.3933 671.346 42.1367 671.533 41.95C671.766 41.7633 672.046 41.6467 672.373 41.6H672.443C672.816 41.6 673.89 41.8567 675.663 42.37C677.53 42.93 678.626 43.28 678.953 43.42C679.326 43.6067 679.723 44.12 680.143 44.96C680.143 45.38 680.073 45.6833 679.933 45.87C679.793 46.0567 679.606 46.1967 679.373 46.29L679.023 46.5ZM660.053 36.98C659.4 36.9333 658.98 36.8633 658.793 36.77C658.653 36.63 658.513 36.42 658.373 36.14C658.28 35.9533 658.233 35.7433 658.233 35.51V35.3C658.28 34.9733 658.373 34.7167 658.513 34.53C658.7 34.3433 660.8 33.4333 664.813 31.8C668.826 30.1667 670.973 29.28 671.253 29.14C671.58 28.9533 672.256 28.6967 673.283 28.37C674.31 28.0433 675.08 27.8567 675.593 27.81H675.943C676.27 27.81 676.526 27.8333 676.713 27.88C676.9 27.9733 677.086 28.1367 677.273 28.37C677.506 28.6033 677.623 28.9067 677.623 29.28C677.623 29.7 677.553 30.0033 677.413 30.19C677.273 30.3767 676.806 30.5867 676.013 30.82C675.686 30.82 675.173 30.9367 674.473 31.17C673.82 31.4033 673.446 31.52 673.353 31.52C673.26 31.52 673.026 31.6133 672.653 31.8C672.326 31.9867 671.65 32.1967 670.623 32.43C670.53 32.43 668.756 33.1767 665.303 34.67L660.053 36.98ZM657.463 28.02C656.67 27.9733 656.203 27.9033 656.063 27.81C655.923 27.7167 654.57 24.4967 652.003 18.15C649.436 11.7567 648.153 8.37333 648.153 8C648.153 7.67333 648.2 7.41666 648.293 7.23C648.433 7.04333 648.643 6.88 648.923 6.74C649.11 6.64666 649.32 6.6 649.553 6.6H649.903C650.23 6.69333 650.486 6.85667 650.673 7.09C650.86 7.27667 652.12 10.0767 654.453 15.49C656.786 20.8567 658.046 23.6567 658.233 23.89C658.466 24.1233 658.583 24.7067 658.583 25.64C658.583 26.62 658.513 27.2033 658.373 27.39C658.233 27.5767 658.046 27.7167 657.813 27.81L657.463 28.02ZM688.823 47.06C688.123 46.9667 687.703 46.85 687.563 46.71C687.47 46.6167 687.12 46.3367 686.513 45.87C685.906 45.45 685.486 45.1233 685.253 44.89C685.02 44.7033 684.11 44.1433 682.523 43.21C680.936 42.2767 680.12 41.6467 680.073 41.32V41.04C680.073 40.8067 680.12 40.5967 680.213 40.41C680.306 40.1767 680.446 39.99 680.633 39.85C680.866 39.71 681.17 39.64 681.543 39.64C681.87 39.64 682.71 40.0133 684.063 40.76C685.463 41.46 686.443 41.9967 687.003 42.37C687.61 42.6967 688.006 42.9533 688.193 43.14C688.38 43.3267 688.706 43.63 689.173 44.05C689.686 44.47 689.943 44.9133 689.943 45.38C689.943 45.8933 689.873 46.2433 689.733 46.43C689.593 46.6167 689.406 46.7567 689.173 46.85L688.823 47.06ZM672.023 40.9C671.323 40.8067 670.88 40.6667 670.693 40.48C670.506 40.2933 670.32 39.8967 670.133 39.29C669.993 38.6367 669.9 38.2867 669.853 38.24C669.806 38.1933 669.76 38.0067 669.713 37.68V37.33C669.713 37.19 669.736 37.0733 669.783 36.98C669.83 36.84 669.876 36.49 669.923 35.93V35.58C669.923 35.2533 669.9 34.9967 669.853 34.81C669.76 34.5767 669.69 32.01 669.643 27.11C669.643 22.21 669.036 16.82 667.823 10.94C667.776 10.66 667.753 10.4267 667.753 10.24C667.753 10.0067 667.8 9.79667 667.893 9.61C667.986 9.37666 668.126 9.19 668.313 9.05C668.546 8.91 668.85 8.84 669.223 8.84C669.55 8.84 669.783 8.88666 669.923 8.98C670.11 9.07333 670.6 10.8 671.393 14.16C672.186 17.4733 672.583 21.58 672.583 26.48C672.63 31.38 672.7 34.53 672.793 35.93C672.886 37.33 672.956 38.0767 673.003 38.17C673.096 38.2167 673.143 38.52 673.143 39.08C673.143 39.6867 673.073 40.0833 672.933 40.27C672.793 40.4567 672.606 40.5967 672.373 40.69L672.023 40.9ZM663.903 21.58C663.483 21.58 663.18 21.5567 662.993 21.51C662.806 21.4167 662.596 21.0433 662.363 20.39C662.176 19.69 661.803 18.4067 661.243 16.54C660.73 14.6267 660.473 13.4833 660.473 13.11C660.473 12.7367 660.52 12.4567 660.613 12.27C660.753 12.0833 660.986 11.92 661.313 11.78C661.5 11.6867 661.686 11.64 661.873 11.64H662.223C662.55 11.7333 662.806 11.8733 662.993 12.06C663.18 12.2467 663.646 13.4133 664.393 15.56C665.14 17.66 665.583 18.8267 665.723 19.06C665.816 19.2933 665.863 19.5267 665.863 19.76V19.97C665.816 20.3433 665.676 20.6467 665.443 20.88C665.256 21.1133 665.046 21.2767 664.813 21.37L664.463 21.58H663.903ZM661.383 27.74C661.15 27.74 660.916 27.6933 660.683 27.6C660.496 27.5067 660.24 27.0867 659.913 26.34C659.866 26.2933 659.843 26.2467 659.843 26.2C659.843 26.0133 659.89 25.85 659.983 25.71C660.03 25.5233 660.123 25.36 660.263 25.22C660.45 25.0333 662.806 24.2167 667.333 22.77C671.86 21.3233 674.216 20.5533 674.403 20.46C674.59 20.32 675.22 20.1567 676.293 19.97C677.413 19.7367 678.09 19.55 678.323 19.41C678.603 19.27 679.116 19.2 679.863 19.2C680.563 19.2 681.006 19.27 681.193 19.41C681.38 19.5033 681.543 19.6667 681.683 19.9C681.776 20.1333 681.823 20.39 681.823 20.67V20.95C681.776 21.4167 681.59 21.8133 681.263 22.14C680.983 22.4667 680.33 22.8167 679.303 23.19C678.883 23.19 678.58 23.12 678.393 22.98C678.253 22.84 677.996 22.7467 677.623 22.7H677.343C677.11 22.7 676.9 22.7233 676.713 22.77C676.48 22.8633 676.316 22.91 676.223 22.91C676.13 22.91 675.943 23.0033 675.663 23.19C675.383 23.33 674.636 23.5167 673.423 23.75C673.283 23.75 671.3 24.4033 667.473 25.71L661.663 27.74H661.383ZM672.863 21.86C672.63 21.86 672.42 21.8367 672.233 21.79C672.046 21.6967 671.766 21.16 671.393 20.18C671.393 19.76 671.44 19.48 671.533 19.34C671.673 19.1533 672.723 17.38 674.683 14.02C676.69 10.6133 677.786 8.81667 677.973 8.63C678.206 8.44333 678.486 8.32666 678.813 8.28H679.023C679.256 8.28 679.466 8.30333 679.653 8.35C679.886 8.49 680.073 8.67667 680.213 8.91C680.353 9.09667 680.423 9.37667 680.423 9.75C680.423 10.1233 679.513 11.8733 677.693 15L674.963 19.69C674.916 19.69 674.8 19.8767 674.613 20.25C674.426 20.6233 674.053 21.09 673.493 21.65L673.143 21.86H672.863ZM713.032 9.33C713.312 10.59 713.335 11.9667 713.102 13.46C712.915 14.9067 712.705 16.2367 712.472 17.45C711.958 20.0167 711.468 22.4667 711.002 24.8C710.535 27.1333 710.162 29.63 709.882 32.29C709.742 32.6167 709.508 32.8267 709.182 32.92C708.902 32.9667 708.622 32.92 708.342 32.78C707.128 31.6133 706.592 30.3533 706.732 29C706.965 26.1533 707.408 23.33 708.062 20.53C708.762 17.73 709.322 14.79 709.742 11.71C709.695 11.3833 709.438 11.2667 708.972 11.36C708.552 11.4533 708.202 11.4533 707.922 11.36C707.922 9.96 708.225 9.09667 708.832 8.77C709.485 8.44333 709.998 8.21 710.372 8.07C710.932 8.02333 711.445 8.09333 711.912 8.28C712.425 8.46667 712.798 8.81667 713.032 9.33ZM711.562 41.53C711.562 42.2767 711.235 42.72 710.582 42.86C709.882 43.0467 709.182 43.0467 708.482 42.86C707.828 42.6733 707.245 42.3233 706.732 41.81C706.312 41.39 706.032 40.9233 705.892 40.41C705.752 39.8967 705.565 39.3833 705.332 38.87C705.332 38.6833 705.588 38.4033 706.102 38.03C706.615 37.61 706.965 37.4467 707.152 37.54C707.758 37.12 708.715 37.3767 710.022 38.31C710.488 38.5433 710.885 38.9867 711.212 39.64C711.538 40.2467 711.655 40.8767 711.562 41.53Z" fill="white"/>
</svg>
